SplineFontDB: 1.0
FontName: Braille
FullName: Braille
FamilyName: Braille
Weight: Medium
Copyright: Created by Vyacheslav Dikonov with PfaEdit 1.0 (http://pfaedit.sf.net). Free to use and distribute.
Comments: 2002-11-29: Created.
Version: 001.000
ItalicAngle: 0
UnderlinePosition: 0
UnderlineWidth: 0
Ascent: 1100
Descent: 100
FSType: 0
PfmFamily: 49
TTFWeight: 400
TTFWidth: 5
Panose: 2 0 6 9 0 0 0 0 0 0
LineGap: 67
VLineGap: 0

Encoding: unicode
DisplaySize: -36
AntiAlias: 1
BeginChars: 65536 514
StartChar: uni2801
Encoding: 10241 10241
Width: 800
VWidth: 1024
Flags: W
HStem: 829.5 171<400 416>
VStem: 320 171<909 925>
Fore
405 1000.5 m 0
 417 1000.5 428.167 998.167 438.5 993.5 c 0
 448.833 988.833 457.833 982.667 465.5 975 c 0
 473.167 967.333 479.333 958.333 484 948 c 0
 488.667 937.667 491 926.5 491 914.5 c 0
 491 903.167 488.667 892.333 484 882 c 0
 479.333 871.667 473.167 862.667 465.5 855 c 0
 457.833 847.333 448.833 841.167 438.5 836.5 c 0
 428.167 831.833 417 829.5 405 829.5 c 0
 393.667 829.5 382.833 831.833 372.5 836.5 c 0
 362.167 841.167 353.167 847.333 345.5 855 c 0
 337.833 862.667 331.667 871.667 327 882 c 0
 322.333 892.333 320 903.167 320 914.5 c 0
 320 926.5 322.333 937.667 327 948 c 0
 331.667 958.333 337.833 967.333 345.5 975 c 0
 353.167 982.667 362.167 988.833 372.5 993.5 c 0
 382.833 998.167 393.667 1000.5 405 1000.5 c 0
EndSplineSet
MinimumDistance: x4,-1 
EndChar
StartChar: uni2802
Encoding: 10242 10242
Width: 800
VWidth: 1024
Flags: W
HStem: 569 171<399 415>
VStem: 319.5 171<649 665>
Fore
404.5 740 m 0
 416.5 740 427.667 737.667 438 733 c 0
 448.333 728.333 457.333 722.167 465 714.5 c 0
 472.667 706.833 478.833 697.833 483.5 687.5 c 0
 488.167 677.167 490.5 666 490.5 654 c 0
 490.5 642.667 488.167 631.833 483.5 621.5 c 0
 478.833 611.167 472.667 602.167 465 594.5 c 0
 457.333 586.833 448.333 580.667 438 576 c 0
 427.667 571.333 416.5 569 404.5 569 c 0
 393.167 569 382.333 571.333 372 576 c 0
 361.667 580.667 352.667 586.833 345 594.5 c 0
 337.333 602.167 331.167 611.167 326.5 621.5 c 0
 321.833 631.833 319.5 642.667 319.5 654 c 0
 319.5 666 321.833 677.167 326.5 687.5 c 0
 331.167 697.833 337.333 706.833 345 714.5 c 0
 352.667 722.167 361.667 728.333 372 733 c 0
 382.333 737.667 393.167 740 404.5 740 c 0
EndSplineSet
MinimumDistance: x4,-1 
EndChar
StartChar: uni2803
Encoding: 10243 10243
Width: 800
VWidth: 1024
Flags: W
HStem: 569 171<399 415> 829.5 171<399 415>
VStem: 319.5 171<649 665 905 921>
Fore
404.5 740 m 0
 416.5 740 427.667 737.667 438 733 c 0
 448.333 728.333 457.333 722.167 465 714.5 c 0
 472.667 706.833 478.833 697.833 483.5 687.5 c 0
 488.167 677.167 490.5 666 490.5 654 c 0
 490.5 642.667 488.167 631.833 483.5 621.5 c 0
 478.833 611.167 472.667 602.167 465 594.5 c 0
 457.333 586.833 448.333 580.667 438 576 c 0
 427.667 571.333 416.5 569 404.5 569 c 0
 393.167 569 382.333 571.333 372 576 c 0
 361.667 580.667 352.667 586.833 345 594.5 c 0
 337.333 602.167 331.167 611.167 326.5 621.5 c 0
 321.833 631.833 319.5 642.667 319.5 654 c 0
 319.5 666 321.833 677.167 326.5 687.5 c 0
 331.167 697.833 337.333 706.833 345 714.5 c 0
 352.667 722.167 361.667 728.333 372 733 c 0
 382.333 737.667 393.167 740 404.5 740 c 0
405 1000.5 m 0
 417 1000.5 428.167 998.167 438.5 993.5 c 0
 448.833 988.833 457.833 982.667 465.5 975 c 0
 473.167 967.333 479.333 958.333 484 948 c 0
 488.667 937.667 491 926.5 491 914.5 c 0
 491 903.167 488.667 892.333 484 882 c 0
 479.333 871.667 473.167 862.667 465.5 855 c 0
 457.833 847.333 448.833 841.167 438.5 836.5 c 0
 428.167 831.833 417 829.5 405 829.5 c 0
 393.667 829.5 382.833 831.833 372.5 836.5 c 0
 362.167 841.167 353.167 847.333 345.5 855 c 0
 337.833 862.667 331.667 871.667 327 882 c 0
 322.333 892.333 320 903.167 320 914.5 c 0
 320 926.5 322.333 937.667 327 948 c 0
 331.667 958.333 337.833 967.333 345.5 975 c 0
 353.167 982.667 362.167 988.833 372.5 993.5 c 0
 382.833 998.167 393.667 1000.5 405 1000.5 c 0
EndSplineSet
MinimumDistance: x4,-1 
EndChar
StartChar: uni2804
Encoding: 10244 10244
Width: 800
VWidth: 1024
Flags: W
HStem: 309.5 171<399 415>
VStem: 319 171<389 405>
Fore
404 480.5 m 0
 416 480.5 427.167 478.167 437.5 473.5 c 0
 447.833 468.833 456.833 462.667 464.5 455 c 0
 472.167 447.333 478.333 438.333 483 428 c 0
 487.667 417.667 490 406.5 490 394.5 c 0
 490 383.167 487.667 372.333 483 362 c 0
 478.333 351.667 472.167 342.667 464.5 335 c 0
 456.833 327.333 447.833 321.167 437.5 316.5 c 0
 427.167 311.833 416 309.5 404 309.5 c 0
 392.667 309.5 381.833 311.833 371.5 316.5 c 0
 361.167 321.167 352.167 327.333 344.5 335 c 0
 336.833 342.667 330.667 351.667 326 362 c 0
 321.333 372.333 319 383.167 319 394.5 c 0
 319 406.5 321.333 417.667 326 428 c 0
 330.667 438.333 336.833 447.333 344.5 455 c 0
 352.167 462.667 361.167 468.833 371.5 473.5 c 0
 381.833 478.167 392.667 480.5 404 480.5 c 0
EndSplineSet
MinimumDistance: x4,-1 
EndChar
StartChar: uni2805
Encoding: 10245 10245
Width: 800
VWidth: 1024
Flags: W
HStem: 309.5 171<399 415> 829.5 171<399 415>
VStem: 319 171<389 405 901.79 917>
Fore
404 480.5 m 0
 416 480.5 427.167 478.167 437.5 473.5 c 0
 447.833 468.833 456.833 462.667 464.5 455 c 0
 472.167 447.333 478.333 438.333 483 428 c 0
 487.667 417.667 490 406.5 490 394.5 c 0
 490 383.167 487.667 372.333 483 362 c 0
 478.333 351.667 472.167 342.667 464.5 335 c 0
 456.833 327.333 447.833 321.167 437.5 316.5 c 0
 427.167 311.833 416 309.5 404 309.5 c 0
 392.667 309.5 381.833 311.833 371.5 316.5 c 0
 361.167 321.167 352.167 327.333 344.5 335 c 0
 336.833 342.667 330.667 351.667 326 362 c 0
 321.333 372.333 319 383.167 319 394.5 c 0
 319 406.5 321.333 417.667 326 428 c 0
 330.667 438.333 336.833 447.333 344.5 455 c 0
 352.167 462.667 361.167 468.833 371.5 473.5 c 0
 381.833 478.167 392.667 480.5 404 480.5 c 0
405 1000.5 m 0
 417 1000.5 428.167 998.167 438.5 993.5 c 0
 448.833 988.833 457.833 982.667 465.5 975 c 0
 473.167 967.333 479.333 958.333 484 948 c 0
 488.667 937.667 491 926.5 491 914.5 c 0
 491 903.167 488.667 892.333 484 882 c 0
 479.333 871.667 473.167 862.667 465.5 855 c 0
 457.833 847.333 448.833 841.167 438.5 836.5 c 0
 428.167 831.833 417 829.5 405 829.5 c 0
 393.667 829.5 382.833 831.833 372.5 836.5 c 0
 362.167 841.167 353.167 847.333 345.5 855 c 0
 337.833 862.667 331.667 871.667 327 882 c 0
 322.333 892.333 320 903.167 320 914.5 c 0
 320 926.5 322.333 937.667 327 948 c 0
 331.667 958.333 337.833 967.333 345.5 975 c 0
 353.167 982.667 362.167 988.833 372.5 993.5 c 0
 382.833 998.167 393.667 1000.5 405 1000.5 c 0
EndSplineSet
MinimumDistance: x4,-1 
EndChar
StartChar: uni2806
Encoding: 10246 10246
Width: 800
VWidth: 1024
Flags: W
HStem: 309.5 171<399 415> 569 171<399 415>
VStem: 319 171<389 405 645 661>
Fore
404 480.5 m 0
 416 480.5 427.167 478.167 437.5 473.5 c 0
 447.833 468.833 456.833 462.667 464.5 455 c 0
 472.167 447.333 478.333 438.333 483 428 c 0
 487.667 417.667 490 406.5 490 394.5 c 0
 490 383.167 487.667 372.333 483 362 c 0
 478.333 351.667 472.167 342.667 464.5 335 c 0
 456.833 327.333 447.833 321.167 437.5 316.5 c 0
 427.167 311.833 416 309.5 404 309.5 c 0
 392.667 309.5 381.833 311.833 371.5 316.5 c 0
 361.167 321.167 352.167 327.333 344.5 335 c 0
 336.833 342.667 330.667 351.667 326 362 c 0
 321.333 372.333 319 383.167 319 394.5 c 0
 319 406.5 321.333 417.667 326 428 c 0
 330.667 438.333 336.833 447.333 344.5 455 c 0
 352.167 462.667 361.167 468.833 371.5 473.5 c 0
 381.833 478.167 392.667 480.5 404 480.5 c 0
404.5 740 m 0
 416.5 740 427.667 737.667 438 733 c 0
 448.333 728.333 457.333 722.167 465 714.5 c 0
 472.667 706.833 478.833 697.833 483.5 687.5 c 0
 488.167 677.167 490.5 666 490.5 654 c 0
 490.5 642.667 488.167 631.833 483.5 621.5 c 0
 478.833 611.167 472.667 602.167 465 594.5 c 0
 457.333 586.833 448.333 580.667 438 576 c 0
 427.667 571.333 416.5 569 404.5 569 c 0
 393.167 569 382.333 571.333 372 576 c 0
 361.667 580.667 352.667 586.833 345 594.5 c 0
 337.333 602.167 331.167 611.167 326.5 621.5 c 0
 321.833 631.833 319.5 642.667 319.5 654 c 0
 319.5 666 321.833 677.167 326.5 687.5 c 0
 331.167 697.833 337.333 706.833 345 714.5 c 0
 352.667 722.167 361.667 728.333 372 733 c 0
 382.333 737.667 393.167 740 404.5 740 c 0
EndSplineSet
MinimumDistance: x4,-1 
EndChar
StartChar: uni2807
Encoding: 10247 10247
Width: 800
VWidth: 1024
Flags: W
HStem: 309.5 171<399 415> 569 171<399 415> 829.5 171<399 415>
VStem: 319 171<389 405 645 661 901.79 917>
Fore
404 480.5 m 0
 416 480.5 427.167 478.167 437.5 473.5 c 0
 447.833 468.833 456.833 462.667 464.5 455 c 0
 472.167 447.333 478.333 438.333 483 428 c 0
 487.667 417.667 490 406.5 490 394.5 c 0
 490 383.167 487.667 372.333 483 362 c 0
 478.333 351.667 472.167 342.667 464.5 335 c 0
 456.833 327.333 447.833 321.167 437.5 316.5 c 0
 427.167 311.833 416 309.5 404 309.5 c 0
 392.667 309.5 381.833 311.833 371.5 316.5 c 0
 361.167 321.167 352.167 327.333 344.5 335 c 0
 336.833 342.667 330.667 351.667 326 362 c 0
 321.333 372.333 319 383.167 319 394.5 c 0
 319 406.5 321.333 417.667 326 428 c 0
 330.667 438.333 336.833 447.333 344.5 455 c 0
 352.167 462.667 361.167 468.833 371.5 473.5 c 0
 381.833 478.167 392.667 480.5 404 480.5 c 0
404.5 740 m 0
 416.5 740 427.667 737.667 438 733 c 0
 448.333 728.333 457.333 722.167 465 714.5 c 0
 472.667 706.833 478.833 697.833 483.5 687.5 c 0
 488.167 677.167 490.5 666 490.5 654 c 0
 490.5 642.667 488.167 631.833 483.5 621.5 c 0
 478.833 611.167 472.667 602.167 465 594.5 c 0
 457.333 586.833 448.333 580.667 438 576 c 0
 427.667 571.333 416.5 569 404.5 569 c 0
 393.167 569 382.333 571.333 372 576 c 0
 361.667 580.667 352.667 586.833 345 594.5 c 0
 337.333 602.167 331.167 611.167 326.5 621.5 c 0
 321.833 631.833 319.5 642.667 319.5 654 c 0
 319.5 666 321.833 677.167 326.5 687.5 c 0
 331.167 697.833 337.333 706.833 345 714.5 c 0
 352.667 722.167 361.667 728.333 372 733 c 0
 382.333 737.667 393.167 740 404.5 740 c 0
405 1000.5 m 0
 417 1000.5 428.167 998.167 438.5 993.5 c 0
 448.833 988.833 457.833 982.667 465.5 975 c 0
 473.167 967.333 479.333 958.333 484 948 c 0
 488.667 937.667 491 926.5 491 914.5 c 0
 491 903.167 488.667 892.333 484 882 c 0
 479.333 871.667 473.167 862.667 465.5 855 c 0
 457.833 847.333 448.833 841.167 438.5 836.5 c 0
 428.167 831.833 417 829.5 405 829.5 c 0
 393.667 829.5 382.833 831.833 372.5 836.5 c 0
 362.167 841.167 353.167 847.333 345.5 855 c 0
 337.833 862.667 331.667 871.667 327 882 c 0
 322.333 892.333 320 903.167 320 914.5 c 0
 320 926.5 322.333 937.667 327 948 c 0
 331.667 958.333 337.833 967.333 345.5 975 c 0
 353.167 982.667 362.167 988.833 372.5 993.5 c 0
 382.833 998.167 393.667 1000.5 405 1000.5 c 0
EndSplineSet
MinimumDistance: x4,-1 
EndChar
StartChar: uni2808
Encoding: 10248 10248
Width: 800
VWidth: 1024
Flags: W
HStem: 829 171<660 676>
VStem: 580 171<909 925>
Fore
665 1000 m 0
 677 1000 688.167 997.667 698.5 993 c 0
 708.833 988.333 717.833 982.167 725.5 974.5 c 0
 733.167 966.833 739.333 957.833 744 947.5 c 0
 748.667 937.167 751 926 751 914 c 0
 751 902.667 748.667 891.833 744 881.5 c 0
 739.333 871.167 733.167 862.167 725.5 854.5 c 0
 717.833 846.833 708.833 840.667 698.5 836 c 0
 688.167 831.333 677 829 665 829 c 0
 653.667 829 642.833 831.333 632.5 836 c 0
 622.167 840.667 613.167 846.833 605.5 854.5 c 0
 597.833 862.167 591.667 871.167 587 881.5 c 0
 582.333 891.833 580 902.667 580 914 c 0
 580 926 582.333 937.167 587 947.5 c 0
 591.667 957.833 597.833 966.833 605.5 974.5 c 0
 613.167 982.167 622.167 988.333 632.5 993 c 0
 642.833 997.667 653.667 1000 665 1000 c 0
EndSplineSet
MinimumDistance: x4,-1 
EndChar
StartChar: uni2809
Encoding: 10249 10249
Width: 800
VWidth: 1024
Flags: W
HStem: 829.5 171<400 416 656 672>
VStem: 320 171<909 925> 580 171<909 925>
Fore
665 1000 m 0
 677 1000 688.167 997.667 698.5 993 c 0
 708.833 988.333 717.833 982.167 725.5 974.5 c 0
 733.167 966.833 739.333 957.833 744 947.5 c 0
 748.667 937.167 751 926 751 914 c 0
 751 902.667 748.667 891.833 744 881.5 c 0
 739.333 871.167 733.167 862.167 725.5 854.5 c 0
 717.833 846.833 708.833 840.667 698.5 836 c 0
 688.167 831.333 677 829 665 829 c 0
 653.667 829 642.833 831.333 632.5 836 c 0
 622.167 840.667 613.167 846.833 605.5 854.5 c 0
 597.833 862.167 591.667 871.167 587 881.5 c 0
 582.333 891.833 580 902.667 580 914 c 0
 580 926 582.333 937.167 587 947.5 c 0
 591.667 957.833 597.833 966.833 605.5 974.5 c 0
 613.167 982.167 622.167 988.333 632.5 993 c 0
 642.833 997.667 653.667 1000 665 1000 c 0
405 1000.5 m 0
 417 1000.5 428.167 998.167 438.5 993.5 c 0
 448.833 988.833 457.833 982.667 465.5 975 c 0
 473.167 967.333 479.333 958.333 484 948 c 0
 488.667 937.667 491 926.5 491 914.5 c 0
 491 903.167 488.667 892.333 484 882 c 0
 479.333 871.667 473.167 862.667 465.5 855 c 0
 457.833 847.333 448.833 841.167 438.5 836.5 c 0
 428.167 831.833 417 829.5 405 829.5 c 0
 393.667 829.5 382.833 831.833 372.5 836.5 c 0
 362.167 841.167 353.167 847.333 345.5 855 c 0
 337.833 862.667 331.667 871.667 327 882 c 0
 322.333 892.333 320 903.167 320 914.5 c 0
 320 926.5 322.333 937.667 327 948 c 0
 331.667 958.333 337.833 967.333 345.5 975 c 0
 353.167 982.667 362.167 988.833 372.5 993.5 c 0
 382.833 998.167 393.667 1000.5 405 1000.5 c 0
EndSplineSet
MinimumDistance: x4,-1 
EndChar
StartChar: uni280A
Encoding: 10250 10250
Width: 800
VWidth: 1024
Flags: W
HStem: 569 171<399 415> 829 171<655 671>
VStem: 319.5 171<649 665> 580 171<905 921>
Fore
404.5 740 m 0
 416.5 740 427.667 737.667 438 733 c 0
 448.333 728.333 457.333 722.167 465 714.5 c 0
 472.667 706.833 478.833 697.833 483.5 687.5 c 0
 488.167 677.167 490.5 666 490.5 654 c 0
 490.5 642.667 488.167 631.833 483.5 621.5 c 0
 478.833 611.167 472.667 602.167 465 594.5 c 0
 457.333 586.833 448.333 580.667 438 576 c 0
 427.667 571.333 416.5 569 404.5 569 c 0
 393.167 569 382.333 571.333 372 576 c 0
 361.667 580.667 352.667 586.833 345 594.5 c 0
 337.333 602.167 331.167 611.167 326.5 621.5 c 0
 321.833 631.833 319.5 642.667 319.5 654 c 0
 319.5 666 321.833 677.167 326.5 687.5 c 0
 331.167 697.833 337.333 706.833 345 714.5 c 0
 352.667 722.167 361.667 728.333 372 733 c 0
 382.333 737.667 393.167 740 404.5 740 c 0
665 1000 m 0
 677 1000 688.167 997.667 698.5 993 c 0
 708.833 988.333 717.833 982.167 725.5 974.5 c 0
 733.167 966.833 739.333 957.833 744 947.5 c 0
 748.667 937.167 751 926 751 914 c 0
 751 902.667 748.667 891.833 744 881.5 c 0
 739.333 871.167 733.167 862.167 725.5 854.5 c 0
 717.833 846.833 708.833 840.667 698.5 836 c 0
 688.167 831.333 677 829 665 829 c 0
 653.667 829 642.833 831.333 632.5 836 c 0
 622.167 840.667 613.167 846.833 605.5 854.5 c 0
 597.833 862.167 591.667 871.167 587 881.5 c 0
 582.333 891.833 580 902.667 580 914 c 0
 580 926 582.333 937.167 587 947.5 c 0
 591.667 957.833 597.833 966.833 605.5 974.5 c 0
 613.167 982.167 622.167 988.333 632.5 993 c 0
 642.833 997.667 653.667 1000 665 1000 c 0
EndSplineSet
MinimumDistance: x20,-1 
EndChar
StartChar: uni280B
Encoding: 10251 10251
Width: 800
VWidth: 1024
Flags: W
HStem: 569 171<399 415> 829.5 171<399 415 655 671>
VStem: 319.5 171<649 665 905 921> 580 171<905 921>
Fore
404.5 740 m 0
 416.5 740 427.667 737.667 438 733 c 0
 448.333 728.333 457.333 722.167 465 714.5 c 0
 472.667 706.833 478.833 697.833 483.5 687.5 c 0
 488.167 677.167 490.5 666 490.5 654 c 0
 490.5 642.667 488.167 631.833 483.5 621.5 c 0
 478.833 611.167 472.667 602.167 465 594.5 c 0
 457.333 586.833 448.333 580.667 438 576 c 0
 427.667 571.333 416.5 569 404.5 569 c 0
 393.167 569 382.333 571.333 372 576 c 0
 361.667 580.667 352.667 586.833 345 594.5 c 0
 337.333 602.167 331.167 611.167 326.5 621.5 c 0
 321.833 631.833 319.5 642.667 319.5 654 c 0
 319.5 666 321.833 677.167 326.5 687.5 c 0
 331.167 697.833 337.333 706.833 345 714.5 c 0
 352.667 722.167 361.667 728.333 372 733 c 0
 382.333 737.667 393.167 740 404.5 740 c 0
665 1000 m 0
 677 1000 688.167 997.667 698.5 993 c 0
 708.833 988.333 717.833 982.167 725.5 974.5 c 0
 733.167 966.833 739.333 957.833 744 947.5 c 0
 748.667 937.167 751 926 751 914 c 0
 751 902.667 748.667 891.833 744 881.5 c 0
 739.333 871.167 733.167 862.167 725.5 854.5 c 0
 717.833 846.833 708.833 840.667 698.5 836 c 0
 688.167 831.333 677 829 665 829 c 0
 653.667 829 642.833 831.333 632.5 836 c 0
 622.167 840.667 613.167 846.833 605.5 854.5 c 0
 597.833 862.167 591.667 871.167 587 881.5 c 0
 582.333 891.833 580 902.667 580 914 c 0
 580 926 582.333 937.167 587 947.5 c 0
 591.667 957.833 597.833 966.833 605.5 974.5 c 0
 613.167 982.167 622.167 988.333 632.5 993 c 0
 642.833 997.667 653.667 1000 665 1000 c 0
405 1000.5 m 0
 417 1000.5 428.167 998.167 438.5 993.5 c 0
 448.833 988.833 457.833 982.667 465.5 975 c 0
 473.167 967.333 479.333 958.333 484 948 c 0
 488.667 937.667 491 926.5 491 914.5 c 0
 491 903.167 488.667 892.333 484 882 c 0
 479.333 871.667 473.167 862.667 465.5 855 c 0
 457.833 847.333 448.833 841.167 438.5 836.5 c 0
 428.167 831.833 417 829.5 405 829.5 c 0
 393.667 829.5 382.833 831.833 372.5 836.5 c 0
 362.167 841.167 353.167 847.333 345.5 855 c 0
 337.833 862.667 331.667 871.667 327 882 c 0
 322.333 892.333 320 903.167 320 914.5 c 0
 320 926.5 322.333 937.667 327 948 c 0
 331.667 958.333 337.833 967.333 345.5 975 c 0
 353.167 982.667 362.167 988.833 372.5 993.5 c 0
 382.833 998.167 393.667 1000.5 405 1000.5 c 0
EndSplineSet
MinimumDistance: x20,-1 
EndChar
StartChar: uni280C
Encoding: 10252 10252
Width: 800
VWidth: 1024
Flags: W
HStem: 309.5 171<399 415> 829 171<655 671>
VStem: 319 171<389 405> 580 171<901.338 917>
Fore
404 480.5 m 0
 416 480.5 427.167 478.167 437.5 473.5 c 0
 447.833 468.833 456.833 462.667 464.5 455 c 0
 472.167 447.333 478.333 438.333 483 428 c 0
 487.667 417.667 490 406.5 490 394.5 c 0
 490 383.167 487.667 372.333 483 362 c 0
 478.333 351.667 472.167 342.667 464.5 335 c 0
 456.833 327.333 447.833 321.167 437.5 316.5 c 0
 427.167 311.833 416 309.5 404 309.5 c 0
 392.667 309.5 381.833 311.833 371.5 316.5 c 0
 361.167 321.167 352.167 327.333 344.5 335 c 0
 336.833 342.667 330.667 351.667 326 362 c 0
 321.333 372.333 319 383.167 319 394.5 c 0
 319 406.5 321.333 417.667 326 428 c 0
 330.667 438.333 336.833 447.333 344.5 455 c 0
 352.167 462.667 361.167 468.833 371.5 473.5 c 0
 381.833 478.167 392.667 480.5 404 480.5 c 0
665 1000 m 0
 677 1000 688.167 997.667 698.5 993 c 0
 708.833 988.333 717.833 982.167 725.5 974.5 c 0
 733.167 966.833 739.333 957.833 744 947.5 c 0
 748.667 937.167 751 926 751 914 c 0
 751 902.667 748.667 891.833 744 881.5 c 0
 739.333 871.167 733.167 862.167 725.5 854.5 c 0
 717.833 846.833 708.833 840.667 698.5 836 c 0
 688.167 831.333 677 829 665 829 c 0
 653.667 829 642.833 831.333 632.5 836 c 0
 622.167 840.667 613.167 846.833 605.5 854.5 c 0
 597.833 862.167 591.667 871.167 587 881.5 c 0
 582.333 891.833 580 902.667 580 914 c 0
 580 926 582.333 937.167 587 947.5 c 0
 591.667 957.833 597.833 966.833 605.5 974.5 c 0
 613.167 982.167 622.167 988.333 632.5 993 c 0
 642.833 997.667 653.667 1000 665 1000 c 0
EndSplineSet
MinimumDistance: x20,-1 
EndChar
StartChar: uni280D
Encoding: 10253 10253
Width: 800
VWidth: 1024
Flags: W
HStem: 309.5 171<399 415> 829.5 171<399 415 655 671>
VStem: 319 171<389 405 901.79 917> 580 171<901.338 917>
Fore
404 480.5 m 0
 416 480.5 427.167 478.167 437.5 473.5 c 0
 447.833 468.833 456.833 462.667 464.5 455 c 0
 472.167 447.333 478.333 438.333 483 428 c 0
 487.667 417.667 490 406.5 490 394.5 c 0
 490 383.167 487.667 372.333 483 362 c 0
 478.333 351.667 472.167 342.667 464.5 335 c 0
 456.833 327.333 447.833 321.167 437.5 316.5 c 0
 427.167 311.833 416 309.5 404 309.5 c 0
 392.667 309.5 381.833 311.833 371.5 316.5 c 0
 361.167 321.167 352.167 327.333 344.5 335 c 0
 336.833 342.667 330.667 351.667 326 362 c 0
 321.333 372.333 319 383.167 319 394.5 c 0
 319 406.5 321.333 417.667 326 428 c 0
 330.667 438.333 336.833 447.333 344.5 455 c 0
 352.167 462.667 361.167 468.833 371.5 473.5 c 0
 381.833 478.167 392.667 480.5 404 480.5 c 0
665 1000 m 0
 677 1000 688.167 997.667 698.5 993 c 0
 708.833 988.333 717.833 982.167 725.5 974.5 c 0
 733.167 966.833 739.333 957.833 744 947.5 c 0
 748.667 937.167 751 926 751 914 c 0
 751 902.667 748.667 891.833 744 881.5 c 0
 739.333 871.167 733.167 862.167 725.5 854.5 c 0
 717.833 846.833 708.833 840.667 698.5 836 c 0
 688.167 831.333 677 829 665 829 c 0
 653.667 829 642.833 831.333 632.5 836 c 0
 622.167 840.667 613.167 846.833 605.5 854.5 c 0
 597.833 862.167 591.667 871.167 587 881.5 c 0
 582.333 891.833 580 902.667 580 914 c 0
 580 926 582.333 937.167 587 947.5 c 0
 591.667 957.833 597.833 966.833 605.5 974.5 c 0
 613.167 982.167 622.167 988.333 632.5 993 c 0
 642.833 997.667 653.667 1000 665 1000 c 0
405 1000.5 m 0
 417 1000.5 428.167 998.167 438.5 993.5 c 0
 448.833 988.833 457.833 982.667 465.5 975 c 0
 473.167 967.333 479.333 958.333 484 948 c 0
 488.667 937.667 491 926.5 491 914.5 c 0
 491 903.167 488.667 892.333 484 882 c 0
 479.333 871.667 473.167 862.667 465.5 855 c 0
 457.833 847.333 448.833 841.167 438.5 836.5 c 0
 428.167 831.833 417 829.5 405 829.5 c 0
 393.667 829.5 382.833 831.833 372.5 836.5 c 0
 362.167 841.167 353.167 847.333 345.5 855 c 0
 337.833 862.667 331.667 871.667 327 882 c 0
 322.333 892.333 320 903.167 320 914.5 c 0
 320 926.5 322.333 937.667 327 948 c 0
 331.667 958.333 337.833 967.333 345.5 975 c 0
 353.167 982.667 362.167 988.833 372.5 993.5 c 0
 382.833 998.167 393.667 1000.5 405 1000.5 c 0
EndSplineSet
MinimumDistance: x20,-1 
EndChar
StartChar: uni280E
Encoding: 10254 10254
Width: 800
VWidth: 1024
Flags: W
HStem: 309.5 171<399 415> 569 171<399 415> 829 171<655 671>
VStem: 319 171<389 405 645 661> 580 171<901.338 917>
Fore
404 480.5 m 0
 416 480.5 427.167 478.167 437.5 473.5 c 0
 447.833 468.833 456.833 462.667 464.5 455 c 0
 472.167 447.333 478.333 438.333 483 428 c 0
 487.667 417.667 490 406.5 490 394.5 c 0
 490 383.167 487.667 372.333 483 362 c 0
 478.333 351.667 472.167 342.667 464.5 335 c 0
 456.833 327.333 447.833 321.167 437.5 316.5 c 0
 427.167 311.833 416 309.5 404 309.5 c 0
 392.667 309.5 381.833 311.833 371.5 316.5 c 0
 361.167 321.167 352.167 327.333 344.5 335 c 0
 336.833 342.667 330.667 351.667 326 362 c 0
 321.333 372.333 319 383.167 319 394.5 c 0
 319 406.5 321.333 417.667 326 428 c 0
 330.667 438.333 336.833 447.333 344.5 455 c 0
 352.167 462.667 361.167 468.833 371.5 473.5 c 0
 381.833 478.167 392.667 480.5 404 480.5 c 0
404.5 740 m 0
 416.5 740 427.667 737.667 438 733 c 0
 448.333 728.333 457.333 722.167 465 714.5 c 0
 472.667 706.833 478.833 697.833 483.5 687.5 c 0
 488.167 677.167 490.5 666 490.5 654 c 0
 490.5 642.667 488.167 631.833 483.5 621.5 c 0
 478.833 611.167 472.667 602.167 465 594.5 c 0
 457.333 586.833 448.333 580.667 438 576 c 0
 427.667 571.333 416.5 569 404.5 569 c 0
 393.167 569 382.333 571.333 372 576 c 0
 361.667 580.667 352.667 586.833 345 594.5 c 0
 337.333 602.167 331.167 611.167 326.5 621.5 c 0
 321.833 631.833 319.5 642.667 319.5 654 c 0
 319.5 666 321.833 677.167 326.5 687.5 c 0
 331.167 697.833 337.333 706.833 345 714.5 c 0
 352.667 722.167 361.667 728.333 372 733 c 0
 382.333 737.667 393.167 740 404.5 740 c 0
665 1000 m 0
 677 1000 688.167 997.667 698.5 993 c 0
 708.833 988.333 717.833 982.167 725.5 974.5 c 0
 733.167 966.833 739.333 957.833 744 947.5 c 0
 748.667 937.167 751 926 751 914 c 0
 751 902.667 748.667 891.833 744 881.5 c 0
 739.333 871.167 733.167 862.167 725.5 854.5 c 0
 717.833 846.833 708.833 840.667 698.5 836 c 0
 688.167 831.333 677 829 665 829 c 0
 653.667 829 642.833 831.333 632.5 836 c 0
 622.167 840.667 613.167 846.833 605.5 854.5 c 0
 597.833 862.167 591.667 871.167 587 881.5 c 0
 582.333 891.833 580 902.667 580 914 c 0
 580 926 582.333 937.167 587 947.5 c 0
 591.667 957.833 597.833 966.833 605.5 974.5 c 0
 613.167 982.167 622.167 988.333 632.5 993 c 0
 642.833 997.667 653.667 1000 665 1000 c 0
EndSplineSet
MinimumDistance: x36,-1 
EndChar
StartChar: uni280F
Encoding: 10255 10255
Width: 800
VWidth: 1024
Flags: W
HStem: 309.5 171<399 415> 569 171<399 415> 829.5 171<399 415 655 671>
VStem: 319 171<389 405 645 661 901.79 917> 580 171<901.338 917>
Fore
404 480.5 m 0
 416 480.5 427.167 478.167 437.5 473.5 c 0
 447.833 468.833 456.833 462.667 464.5 455 c 0
 472.167 447.333 478.333 438.333 483 428 c 0
 487.667 417.667 490 406.5 490 394.5 c 0
 490 383.167 487.667 372.333 483 362 c 0
 478.333 351.667 472.167 342.667 464.5 335 c 0
 456.833 327.333 447.833 321.167 437.5 316.5 c 0
 427.167 311.833 416 309.5 404 309.5 c 0
 392.667 309.5 381.833 311.833 371.5 316.5 c 0
 361.167 321.167 352.167 327.333 344.5 335 c 0
 336.833 342.667 330.667 351.667 326 362 c 0
 321.333 372.333 319 383.167 319 394.5 c 0
 319 406.5 321.333 417.667 326 428 c 0
 330.667 438.333 336.833 447.333 344.5 455 c 0
 352.167 462.667 361.167 468.833 371.5 473.5 c 0
 381.833 478.167 392.667 480.5 404 480.5 c 0
404.5 740 m 0
 416.5 740 427.667 737.667 438 733 c 0
 448.333 728.333 457.333 722.167 465 714.5 c 0
 472.667 706.833 478.833 697.833 483.5 687.5 c 0
 488.167 677.167 490.5 666 490.5 654 c 0
 490.5 642.667 488.167 631.833 483.5 621.5 c 0
 478.833 611.167 472.667 602.167 465 594.5 c 0
 457.333 586.833 448.333 580.667 438 576 c 0
 427.667 571.333 416.5 569 404.5 569 c 0
 393.167 569 382.333 571.333 372 576 c 0
 361.667 580.667 352.667 586.833 345 594.5 c 0
 337.333 602.167 331.167 611.167 326.5 621.5 c 0
 321.833 631.833 319.5 642.667 319.5 654 c 0
 319.5 666 321.833 677.167 326.5 687.5 c 0
 331.167 697.833 337.333 706.833 345 714.5 c 0
 352.667 722.167 361.667 728.333 372 733 c 0
 382.333 737.667 393.167 740 404.5 740 c 0
665 1000 m 0
 677 1000 688.167 997.667 698.5 993 c 0
 708.833 988.333 717.833 982.167 725.5 974.5 c 0
 733.167 966.833 739.333 957.833 744 947.5 c 0
 748.667 937.167 751 926 751 914 c 0
 751 902.667 748.667 891.833 744 881.5 c 0
 739.333 871.167 733.167 862.167 725.5 854.5 c 0
 717.833 846.833 708.833 840.667 698.5 836 c 0
 688.167 831.333 677 829 665 829 c 0
 653.667 829 642.833 831.333 632.5 836 c 0
 622.167 840.667 613.167 846.833 605.5 854.5 c 0
 597.833 862.167 591.667 871.167 587 881.5 c 0
 582.333 891.833 580 902.667 580 914 c 0
 580 926 582.333 937.167 587 947.5 c 0
 591.667 957.833 597.833 966.833 605.5 974.5 c 0
 613.167 982.167 622.167 988.333 632.5 993 c 0
 642.833 997.667 653.667 1000 665 1000 c 0
405 1000.5 m 0
 417 1000.5 428.167 998.167 438.5 993.5 c 0
 448.833 988.833 457.833 982.667 465.5 975 c 0
 473.167 967.333 479.333 958.333 484 948 c 0
 488.667 937.667 491 926.5 491 914.5 c 0
 491 903.167 488.667 892.333 484 882 c 0
 479.333 871.667 473.167 862.667 465.5 855 c 0
 457.833 847.333 448.833 841.167 438.5 836.5 c 0
 428.167 831.833 417 829.5 405 829.5 c 0
 393.667 829.5 382.833 831.833 372.5 836.5 c 0
 362.167 841.167 353.167 847.333 345.5 855 c 0
 337.833 862.667 331.667 871.667 327 882 c 0
 322.333 892.333 320 903.167 320 914.5 c 0
 320 926.5 322.333 937.667 327 948 c 0
 331.667 958.333 337.833 967.333 345.5 975 c 0
 353.167 982.667 362.167 988.833 372.5 993.5 c 0
 382.833 998.167 393.667 1000.5 405 1000.5 c 0
EndSplineSet
MinimumDistance: x36,-1 
EndChar
StartChar: uni2810
Encoding: 10256 10256
Width: 800
VWidth: 1024
Flags: W
HStem: 569.5 171<660 676>
VStem: 580 171<649 665>
Fore
665 740.5 m 0
 677 740.5 688.167 738.167 698.5 733.5 c 0
 708.833 728.833 717.833 722.667 725.5 715 c 0
 733.167 707.333 739.333 698.333 744 688 c 0
 748.667 677.667 751 666.5 751 654.5 c 0
 751 643.167 748.667 632.333 744 622 c 0
 739.333 611.667 733.167 602.667 725.5 595 c 0
 717.833 587.333 708.833 581.167 698.5 576.5 c 0
 688.167 571.833 677 569.5 665 569.5 c 0
 653.667 569.5 642.833 571.833 632.5 576.5 c 0
 622.167 581.167 613.167 587.333 605.5 595 c 0
 597.833 602.667 591.667 611.667 587 622 c 0
 582.333 632.333 580 643.167 580 654.5 c 0
 580 666.5 582.333 677.667 587 688 c 0
 591.667 698.333 597.833 707.333 605.5 715 c 0
 613.167 722.667 622.167 728.833 632.5 733.5 c 0
 642.833 738.167 653.667 740.5 665 740.5 c 0
EndSplineSet
MinimumDistance: x4,-1 
EndChar
StartChar: uni2811
Encoding: 10257 10257
Width: 800
VWidth: 1024
Flags: W
HStem: 569.5 171<656 672> 829.5 171<400 416>
VStem: 320 171<905 921> 580 171<649 665>
Fore
665 740.5 m 0
 677 740.5 688.167 738.167 698.5 733.5 c 0
 708.833 728.833 717.833 722.667 725.5 715 c 0
 733.167 707.333 739.333 698.333 744 688 c 0
 748.667 677.667 751 666.5 751 654.5 c 0
 751 643.167 748.667 632.333 744 622 c 0
 739.333 611.667 733.167 602.667 725.5 595 c 0
 717.833 587.333 708.833 581.167 698.5 576.5 c 0
 688.167 571.833 677 569.5 665 569.5 c 0
 653.667 569.5 642.833 571.833 632.5 576.5 c 0
 622.167 581.167 613.167 587.333 605.5 595 c 0
 597.833 602.667 591.667 611.667 587 622 c 0
 582.333 632.333 580 643.167 580 654.5 c 0
 580 666.5 582.333 677.667 587 688 c 0
 591.667 698.333 597.833 707.333 605.5 715 c 0
 613.167 722.667 622.167 728.833 632.5 733.5 c 0
 642.833 738.167 653.667 740.5 665 740.5 c 0
405 1000.5 m 0
 417 1000.5 428.167 998.167 438.5 993.5 c 0
 448.833 988.833 457.833 982.667 465.5 975 c 0
 473.167 967.333 479.333 958.333 484 948 c 0
 488.667 937.667 491 926.5 491 914.5 c 0
 491 903.167 488.667 892.333 484 882 c 0
 479.333 871.667 473.167 862.667 465.5 855 c 0
 457.833 847.333 448.833 841.167 438.5 836.5 c 0
 428.167 831.833 417 829.5 405 829.5 c 0
 393.667 829.5 382.833 831.833 372.5 836.5 c 0
 362.167 841.167 353.167 847.333 345.5 855 c 0
 337.833 862.667 331.667 871.667 327 882 c 0
 322.333 892.333 320 903.167 320 914.5 c 0
 320 926.5 322.333 937.667 327 948 c 0
 331.667 958.333 337.833 967.333 345.5 975 c 0
 353.167 982.667 362.167 988.833 372.5 993.5 c 0
 382.833 998.167 393.667 1000.5 405 1000.5 c 0
EndSplineSet
MinimumDistance: x4,-1 
EndChar
StartChar: uni2812
Encoding: 10258 10258
Width: 800
VWidth: 1024
Flags: W
HStem: 569 171<399 415 655 671>
VStem: 319.5 171<649 665> 580 171<649 665>
Fore
665 740.5 m 0
 677 740.5 688.167 738.167 698.5 733.5 c 0
 708.833 728.833 717.833 722.667 725.5 715 c 0
 733.167 707.333 739.333 698.333 744 688 c 0
 748.667 677.667 751 666.5 751 654.5 c 0
 751 643.167 748.667 632.333 744 622 c 0
 739.333 611.667 733.167 602.667 725.5 595 c 0
 717.833 587.333 708.833 581.167 698.5 576.5 c 0
 688.167 571.833 677 569.5 665 569.5 c 0
 653.667 569.5 642.833 571.833 632.5 576.5 c 0
 622.167 581.167 613.167 587.333 605.5 595 c 0
 597.833 602.667 591.667 611.667 587 622 c 0
 582.333 632.333 580 643.167 580 654.5 c 0
 580 666.5 582.333 677.667 587 688 c 0
 591.667 698.333 597.833 707.333 605.5 715 c 0
 613.167 722.667 622.167 728.833 632.5 733.5 c 0
 642.833 738.167 653.667 740.5 665 740.5 c 0
404.5 740 m 0
 416.5 740 427.667 737.667 438 733 c 0
 448.333 728.333 457.333 722.167 465 714.5 c 0
 472.667 706.833 478.833 697.833 483.5 687.5 c 0
 488.167 677.167 490.5 666 490.5 654 c 0
 490.5 642.667 488.167 631.833 483.5 621.5 c 0
 478.833 611.167 472.667 602.167 465 594.5 c 0
 457.333 586.833 448.333 580.667 438 576 c 0
 427.667 571.333 416.5 569 404.5 569 c 0
 393.167 569 382.333 571.333 372 576 c 0
 361.667 580.667 352.667 586.833 345 594.5 c 0
 337.333 602.167 331.167 611.167 326.5 621.5 c 0
 321.833 631.833 319.5 642.667 319.5 654 c 0
 319.5 666 321.833 677.167 326.5 687.5 c 0
 331.167 697.833 337.333 706.833 345 714.5 c 0
 352.667 722.167 361.667 728.333 372 733 c 0
 382.333 737.667 393.167 740 404.5 740 c 0
EndSplineSet
MinimumDistance: x4,-1 
EndChar
StartChar: uni2813
Encoding: 10259 10259
Width: 800
VWidth: 1024
Flags: W
HStem: 569 171<399 415 655 671> 829.5 171<399 415>
VStem: 319.5 171<649 665 905 921> 580 171<649 665>
Fore
665 740.5 m 0
 677 740.5 688.167 738.167 698.5 733.5 c 0
 708.833 728.833 717.833 722.667 725.5 715 c 0
 733.167 707.333 739.333 698.333 744 688 c 0
 748.667 677.667 751 666.5 751 654.5 c 0
 751 643.167 748.667 632.333 744 622 c 0
 739.333 611.667 733.167 602.667 725.5 595 c 0
 717.833 587.333 708.833 581.167 698.5 576.5 c 0
 688.167 571.833 677 569.5 665 569.5 c 0
 653.667 569.5 642.833 571.833 632.5 576.5 c 0
 622.167 581.167 613.167 587.333 605.5 595 c 0
 597.833 602.667 591.667 611.667 587 622 c 0
 582.333 632.333 580 643.167 580 654.5 c 0
 580 666.5 582.333 677.667 587 688 c 0
 591.667 698.333 597.833 707.333 605.5 715 c 0
 613.167 722.667 622.167 728.833 632.5 733.5 c 0
 642.833 738.167 653.667 740.5 665 740.5 c 0
404.5 740 m 0
 416.5 740 427.667 737.667 438 733 c 0
 448.333 728.333 457.333 722.167 465 714.5 c 0
 472.667 706.833 478.833 697.833 483.5 687.5 c 0
 488.167 677.167 490.5 666 490.5 654 c 0
 490.5 642.667 488.167 631.833 483.5 621.5 c 0
 478.833 611.167 472.667 602.167 465 594.5 c 0
 457.333 586.833 448.333 580.667 438 576 c 0
 427.667 571.333 416.5 569 404.5 569 c 0
 393.167 569 382.333 571.333 372 576 c 0
 361.667 580.667 352.667 586.833 345 594.5 c 0
 337.333 602.167 331.167 611.167 326.5 621.5 c 0
 321.833 631.833 319.5 642.667 319.5 654 c 0
 319.5 666 321.833 677.167 326.5 687.5 c 0
 331.167 697.833 337.333 706.833 345 714.5 c 0
 352.667 722.167 361.667 728.333 372 733 c 0
 382.333 737.667 393.167 740 404.5 740 c 0
405 1000.5 m 0
 417 1000.5 428.167 998.167 438.5 993.5 c 0
 448.833 988.833 457.833 982.667 465.5 975 c 0
 473.167 967.333 479.333 958.333 484 948 c 0
 488.667 937.667 491 926.5 491 914.5 c 0
 491 903.167 488.667 892.333 484 882 c 0
 479.333 871.667 473.167 862.667 465.5 855 c 0
 457.833 847.333 448.833 841.167 438.5 836.5 c 0
 428.167 831.833 417 829.5 405 829.5 c 0
 393.667 829.5 382.833 831.833 372.5 836.5 c 0
 362.167 841.167 353.167 847.333 345.5 855 c 0
 337.833 862.667 331.667 871.667 327 882 c 0
 322.333 892.333 320 903.167 320 914.5 c 0
 320 926.5 322.333 937.667 327 948 c 0
 331.667 958.333 337.833 967.333 345.5 975 c 0
 353.167 982.667 362.167 988.833 372.5 993.5 c 0
 382.833 998.167 393.667 1000.5 405 1000.5 c 0
EndSplineSet
MinimumDistance: x4,-1 
EndChar
StartChar: uni2814
Encoding: 10260 10260
Width: 800
VWidth: 1024
Flags: W
HStem: 309.5 171<399 415> 569.5 171<655 671>
VStem: 319 171<389 405> 580 171<645 661>
Fore
404 480.5 m 0
 416 480.5 427.167 478.167 437.5 473.5 c 0
 447.833 468.833 456.833 462.667 464.5 455 c 0
 472.167 447.333 478.333 438.333 483 428 c 0
 487.667 417.667 490 406.5 490 394.5 c 0
 490 383.167 487.667 372.333 483 362 c 0
 478.333 351.667 472.167 342.667 464.5 335 c 0
 456.833 327.333 447.833 321.167 437.5 316.5 c 0
 427.167 311.833 416 309.5 404 309.5 c 0
 392.667 309.5 381.833 311.833 371.5 316.5 c 0
 361.167 321.167 352.167 327.333 344.5 335 c 0
 336.833 342.667 330.667 351.667 326 362 c 0
 321.333 372.333 319 383.167 319 394.5 c 0
 319 406.5 321.333 417.667 326 428 c 0
 330.667 438.333 336.833 447.333 344.5 455 c 0
 352.167 462.667 361.167 468.833 371.5 473.5 c 0
 381.833 478.167 392.667 480.5 404 480.5 c 0
665 740.5 m 0
 677 740.5 688.167 738.167 698.5 733.5 c 0
 708.833 728.833 717.833 722.667 725.5 715 c 0
 733.167 707.333 739.333 698.333 744 688 c 0
 748.667 677.667 751 666.5 751 654.5 c 0
 751 643.167 748.667 632.333 744 622 c 0
 739.333 611.667 733.167 602.667 725.5 595 c 0
 717.833 587.333 708.833 581.167 698.5 576.5 c 0
 688.167 571.833 677 569.5 665 569.5 c 0
 653.667 569.5 642.833 571.833 632.5 576.5 c 0
 622.167 581.167 613.167 587.333 605.5 595 c 0
 597.833 602.667 591.667 611.667 587 622 c 0
 582.333 632.333 580 643.167 580 654.5 c 0
 580 666.5 582.333 677.667 587 688 c 0
 591.667 698.333 597.833 707.333 605.5 715 c 0
 613.167 722.667 622.167 728.833 632.5 733.5 c 0
 642.833 738.167 653.667 740.5 665 740.5 c 0
EndSplineSet
MinimumDistance: x20,-1 
EndChar
StartChar: uni2815
Encoding: 10261 10261
Width: 800
VWidth: 1024
Flags: W
HStem: 309.5 171<399 415> 569.5 171<655 671> 829.5 171<399 415>
VStem: 319 171<389 405 901.79 917> 580 171<645 661>
Fore
404 480.5 m 0
 416 480.5 427.167 478.167 437.5 473.5 c 0
 447.833 468.833 456.833 462.667 464.5 455 c 0
 472.167 447.333 478.333 438.333 483 428 c 0
 487.667 417.667 490 406.5 490 394.5 c 0
 490 383.167 487.667 372.333 483 362 c 0
 478.333 351.667 472.167 342.667 464.5 335 c 0
 456.833 327.333 447.833 321.167 437.5 316.5 c 0
 427.167 311.833 416 309.5 404 309.5 c 0
 392.667 309.5 381.833 311.833 371.5 316.5 c 0
 361.167 321.167 352.167 327.333 344.5 335 c 0
 336.833 342.667 330.667 351.667 326 362 c 0
 321.333 372.333 319 383.167 319 394.5 c 0
 319 406.5 321.333 417.667 326 428 c 0
 330.667 438.333 336.833 447.333 344.5 455 c 0
 352.167 462.667 361.167 468.833 371.5 473.5 c 0
 381.833 478.167 392.667 480.5 404 480.5 c 0
665 740.5 m 0
 677 740.5 688.167 738.167 698.5 733.5 c 0
 708.833 728.833 717.833 722.667 725.5 715 c 0
 733.167 707.333 739.333 698.333 744 688 c 0
 748.667 677.667 751 666.5 751 654.5 c 0
 751 643.167 748.667 632.333 744 622 c 0
 739.333 611.667 733.167 602.667 725.5 595 c 0
 717.833 587.333 708.833 581.167 698.5 576.5 c 0
 688.167 571.833 677 569.5 665 569.5 c 0
 653.667 569.5 642.833 571.833 632.5 576.5 c 0
 622.167 581.167 613.167 587.333 605.5 595 c 0
 597.833 602.667 591.667 611.667 587 622 c 0
 582.333 632.333 580 643.167 580 654.5 c 0
 580 666.5 582.333 677.667 587 688 c 0
 591.667 698.333 597.833 707.333 605.5 715 c 0
 613.167 722.667 622.167 728.833 632.5 733.5 c 0
 642.833 738.167 653.667 740.5 665 740.5 c 0
405 1000.5 m 0
 417 1000.5 428.167 998.167 438.5 993.5 c 0
 448.833 988.833 457.833 982.667 465.5 975 c 0
 473.167 967.333 479.333 958.333 484 948 c 0
 488.667 937.667 491 926.5 491 914.5 c 0
 491 903.167 488.667 892.333 484 882 c 0
 479.333 871.667 473.167 862.667 465.5 855 c 0
 457.833 847.333 448.833 841.167 438.5 836.5 c 0
 428.167 831.833 417 829.5 405 829.5 c 0
 393.667 829.5 382.833 831.833 372.5 836.5 c 0
 362.167 841.167 353.167 847.333 345.5 855 c 0
 337.833 862.667 331.667 871.667 327 882 c 0
 322.333 892.333 320 903.167 320 914.5 c 0
 320 926.5 322.333 937.667 327 948 c 0
 331.667 958.333 337.833 967.333 345.5 975 c 0
 353.167 982.667 362.167 988.833 372.5 993.5 c 0
 382.833 998.167 393.667 1000.5 405 1000.5 c 0
EndSplineSet
MinimumDistance: x20,-1 
EndChar
StartChar: uni2816
Encoding: 10262 10262
Width: 800
VWidth: 1024
Flags: W
HStem: 309.5 171<399 415> 569 171<399 415 655 671>
VStem: 319 171<389 405 645 661> 580 171<645 661>
Fore
404 480.5 m 0
 416 480.5 427.167 478.167 437.5 473.5 c 0
 447.833 468.833 456.833 462.667 464.5 455 c 0
 472.167 447.333 478.333 438.333 483 428 c 0
 487.667 417.667 490 406.5 490 394.5 c 0
 490 383.167 487.667 372.333 483 362 c 0
 478.333 351.667 472.167 342.667 464.5 335 c 0
 456.833 327.333 447.833 321.167 437.5 316.5 c 0
 427.167 311.833 416 309.5 404 309.5 c 0
 392.667 309.5 381.833 311.833 371.5 316.5 c 0
 361.167 321.167 352.167 327.333 344.5 335 c 0
 336.833 342.667 330.667 351.667 326 362 c 0
 321.333 372.333 319 383.167 319 394.5 c 0
 319 406.5 321.333 417.667 326 428 c 0
 330.667 438.333 336.833 447.333 344.5 455 c 0
 352.167 462.667 361.167 468.833 371.5 473.5 c 0
 381.833 478.167 392.667 480.5 404 480.5 c 0
665 740.5 m 0
 677 740.5 688.167 738.167 698.5 733.5 c 0
 708.833 728.833 717.833 722.667 725.5 715 c 0
 733.167 707.333 739.333 698.333 744 688 c 0
 748.667 677.667 751 666.5 751 654.5 c 0
 751 643.167 748.667 632.333 744 622 c 0
 739.333 611.667 733.167 602.667 725.5 595 c 0
 717.833 587.333 708.833 581.167 698.5 576.5 c 0
 688.167 571.833 677 569.5 665 569.5 c 0
 653.667 569.5 642.833 571.833 632.5 576.5 c 0
 622.167 581.167 613.167 587.333 605.5 595 c 0
 597.833 602.667 591.667 611.667 587 622 c 0
 582.333 632.333 580 643.167 580 654.5 c 0
 580 666.5 582.333 677.667 587 688 c 0
 591.667 698.333 597.833 707.333 605.5 715 c 0
 613.167 722.667 622.167 728.833 632.5 733.5 c 0
 642.833 738.167 653.667 740.5 665 740.5 c 0
404.5 740 m 0
 416.5 740 427.667 737.667 438 733 c 0
 448.333 728.333 457.333 722.167 465 714.5 c 0
 472.667 706.833 478.833 697.833 483.5 687.5 c 0
 488.167 677.167 490.5 666 490.5 654 c 0
 490.5 642.667 488.167 631.833 483.5 621.5 c 0
 478.833 611.167 472.667 602.167 465 594.5 c 0
 457.333 586.833 448.333 580.667 438 576 c 0
 427.667 571.333 416.5 569 404.5 569 c 0
 393.167 569 382.333 571.333 372 576 c 0
 361.667 580.667 352.667 586.833 345 594.5 c 0
 337.333 602.167 331.167 611.167 326.5 621.5 c 0
 321.833 631.833 319.5 642.667 319.5 654 c 0
 319.5 666 321.833 677.167 326.5 687.5 c 0
 331.167 697.833 337.333 706.833 345 714.5 c 0
 352.667 722.167 361.667 728.333 372 733 c 0
 382.333 737.667 393.167 740 404.5 740 c 0
EndSplineSet
MinimumDistance: x20,-1 
EndChar
StartChar: uni2817
Encoding: 10263 10263
Width: 800
VWidth: 1024
Flags: W
HStem: 309.5 171<399 415> 569 171<399 415 655 671> 829.5 171<399 415>
VStem: 319 171<389 405 645 661 901.79 917> 580 171<645 661>
Fore
404 480.5 m 0
 416 480.5 427.167 478.167 437.5 473.5 c 0
 447.833 468.833 456.833 462.667 464.5 455 c 0
 472.167 447.333 478.333 438.333 483 428 c 0
 487.667 417.667 490 406.5 490 394.5 c 0
 490 383.167 487.667 372.333 483 362 c 0
 478.333 351.667 472.167 342.667 464.5 335 c 0
 456.833 327.333 447.833 321.167 437.5 316.5 c 0
 427.167 311.833 416 309.5 404 309.5 c 0
 392.667 309.5 381.833 311.833 371.5 316.5 c 0
 361.167 321.167 352.167 327.333 344.5 335 c 0
 336.833 342.667 330.667 351.667 326 362 c 0
 321.333 372.333 319 383.167 319 394.5 c 0
 319 406.5 321.333 417.667 326 428 c 0
 330.667 438.333 336.833 447.333 344.5 455 c 0
 352.167 462.667 361.167 468.833 371.5 473.5 c 0
 381.833 478.167 392.667 480.5 404 480.5 c 0
665 740.5 m 0
 677 740.5 688.167 738.167 698.5 733.5 c 0
 708.833 728.833 717.833 722.667 725.5 715 c 0
 733.167 707.333 739.333 698.333 744 688 c 0
 748.667 677.667 751 666.5 751 654.5 c 0
 751 643.167 748.667 632.333 744 622 c 0
 739.333 611.667 733.167 602.667 725.5 595 c 0
 717.833 587.333 708.833 581.167 698.5 576.5 c 0
 688.167 571.833 677 569.5 665 569.5 c 0
 653.667 569.5 642.833 571.833 632.5 576.5 c 0
 622.167 581.167 613.167 587.333 605.5 595 c 0
 597.833 602.667 591.667 611.667 587 622 c 0
 582.333 632.333 580 643.167 580 654.5 c 0
 580 666.5 582.333 677.667 587 688 c 0
 591.667 698.333 597.833 707.333 605.5 715 c 0
 613.167 722.667 622.167 728.833 632.5 733.5 c 0
 642.833 738.167 653.667 740.5 665 740.5 c 0
404.5 740 m 0
 416.5 740 427.667 737.667 438 733 c 0
 448.333 728.333 457.333 722.167 465 714.5 c 0
 472.667 706.833 478.833 697.833 483.5 687.5 c 0
 488.167 677.167 490.5 666 490.5 654 c 0
 490.5 642.667 488.167 631.833 483.5 621.5 c 0
 478.833 611.167 472.667 602.167 465 594.5 c 0
 457.333 586.833 448.333 580.667 438 576 c 0
 427.667 571.333 416.5 569 404.5 569 c 0
 393.167 569 382.333 571.333 372 576 c 0
 361.667 580.667 352.667 586.833 345 594.5 c 0
 337.333 602.167 331.167 611.167 326.5 621.5 c 0
 321.833 631.833 319.5 642.667 319.5 654 c 0
 319.5 666 321.833 677.167 326.5 687.5 c 0
 331.167 697.833 337.333 706.833 345 714.5 c 0
 352.667 722.167 361.667 728.333 372 733 c 0
 382.333 737.667 393.167 740 404.5 740 c 0
405 1000.5 m 0
 417 1000.5 428.167 998.167 438.5 993.5 c 0
 448.833 988.833 457.833 982.667 465.5 975 c 0
 473.167 967.333 479.333 958.333 484 948 c 0
 488.667 937.667 491 926.5 491 914.5 c 0
 491 903.167 488.667 892.333 484 882 c 0
 479.333 871.667 473.167 862.667 465.5 855 c 0
 457.833 847.333 448.833 841.167 438.5 836.5 c 0
 428.167 831.833 417 829.5 405 829.5 c 0
 393.667 829.5 382.833 831.833 372.5 836.5 c 0
 362.167 841.167 353.167 847.333 345.5 855 c 0
 337.833 862.667 331.667 871.667 327 882 c 0
 322.333 892.333 320 903.167 320 914.5 c 0
 320 926.5 322.333 937.667 327 948 c 0
 331.667 958.333 337.833 967.333 345.5 975 c 0
 353.167 982.667 362.167 988.833 372.5 993.5 c 0
 382.833 998.167 393.667 1000.5 405 1000.5 c 0
EndSplineSet
MinimumDistance: x20,-1 
EndChar
StartChar: uni2818
Encoding: 10264 10264
Width: 800
VWidth: 1024
Flags: W
HStem: 569.5 171<660 676> 829 171<660 676>
VStem: 580 171<649 665 905 921>
Fore
665 740.5 m 0
 677 740.5 688.167 738.167 698.5 733.5 c 0
 708.833 728.833 717.833 722.667 725.5 715 c 0
 733.167 707.333 739.333 698.333 744 688 c 0
 748.667 677.667 751 666.5 751 654.5 c 0
 751 643.167 748.667 632.333 744 622 c 0
 739.333 611.667 733.167 602.667 725.5 595 c 0
 717.833 587.333 708.833 581.167 698.5 576.5 c 0
 688.167 571.833 677 569.5 665 569.5 c 0
 653.667 569.5 642.833 571.833 632.5 576.5 c 0
 622.167 581.167 613.167 587.333 605.5 595 c 0
 597.833 602.667 591.667 611.667 587 622 c 0
 582.333 632.333 580 643.167 580 654.5 c 0
 580 666.5 582.333 677.667 587 688 c 0
 591.667 698.333 597.833 707.333 605.5 715 c 0
 613.167 722.667 622.167 728.833 632.5 733.5 c 0
 642.833 738.167 653.667 740.5 665 740.5 c 0
665 1000 m 0
 677 1000 688.167 997.667 698.5 993 c 0
 708.833 988.333 717.833 982.167 725.5 974.5 c 0
 733.167 966.833 739.333 957.833 744 947.5 c 0
 748.667 937.167 751 926 751 914 c 0
 751 902.667 748.667 891.833 744 881.5 c 0
 739.333 871.167 733.167 862.167 725.5 854.5 c 0
 717.833 846.833 708.833 840.667 698.5 836 c 0
 688.167 831.333 677 829 665 829 c 0
 653.667 829 642.833 831.333 632.5 836 c 0
 622.167 840.667 613.167 846.833 605.5 854.5 c 0
 597.833 862.167 591.667 871.167 587 881.5 c 0
 582.333 891.833 580 902.667 580 914 c 0
 580 926 582.333 937.167 587 947.5 c 0
 591.667 957.833 597.833 966.833 605.5 974.5 c 0
 613.167 982.167 622.167 988.333 632.5 993 c 0
 642.833 997.667 653.667 1000 665 1000 c 0
EndSplineSet
MinimumDistance: x4,-1 
EndChar
StartChar: uni2819
Encoding: 10265 10265
Width: 800
VWidth: 1024
Flags: W
HStem: 569.5 171<656 672> 829.5 171<400 416 656 672>
VStem: 320 171<905 921> 580 171<649 665 905 921>
Fore
665 740.5 m 0
 677 740.5 688.167 738.167 698.5 733.5 c 0
 708.833 728.833 717.833 722.667 725.5 715 c 0
 733.167 707.333 739.333 698.333 744 688 c 0
 748.667 677.667 751 666.5 751 654.5 c 0
 751 643.167 748.667 632.333 744 622 c 0
 739.333 611.667 733.167 602.667 725.5 595 c 0
 717.833 587.333 708.833 581.167 698.5 576.5 c 0
 688.167 571.833 677 569.5 665 569.5 c 0
 653.667 569.5 642.833 571.833 632.5 576.5 c 0
 622.167 581.167 613.167 587.333 605.5 595 c 0
 597.833 602.667 591.667 611.667 587 622 c 0
 582.333 632.333 580 643.167 580 654.5 c 0
 580 666.5 582.333 677.667 587 688 c 0
 591.667 698.333 597.833 707.333 605.5 715 c 0
 613.167 722.667 622.167 728.833 632.5 733.5 c 0
 642.833 738.167 653.667 740.5 665 740.5 c 0
665 1000 m 0
 677 1000 688.167 997.667 698.5 993 c 0
 708.833 988.333 717.833 982.167 725.5 974.5 c 0
 733.167 966.833 739.333 957.833 744 947.5 c 0
 748.667 937.167 751 926 751 914 c 0
 751 902.667 748.667 891.833 744 881.5 c 0
 739.333 871.167 733.167 862.167 725.5 854.5 c 0
 717.833 846.833 708.833 840.667 698.5 836 c 0
 688.167 831.333 677 829 665 829 c 0
 653.667 829 642.833 831.333 632.5 836 c 0
 622.167 840.667 613.167 846.833 605.5 854.5 c 0
 597.833 862.167 591.667 871.167 587 881.5 c 0
 582.333 891.833 580 902.667 580 914 c 0
 580 926 582.333 937.167 587 947.5 c 0
 591.667 957.833 597.833 966.833 605.5 974.5 c 0
 613.167 982.167 622.167 988.333 632.5 993 c 0
 642.833 997.667 653.667 1000 665 1000 c 0
405 1000.5 m 0
 417 1000.5 428.167 998.167 438.5 993.5 c 0
 448.833 988.833 457.833 982.667 465.5 975 c 0
 473.167 967.333 479.333 958.333 484 948 c 0
 488.667 937.667 491 926.5 491 914.5 c 0
 491 903.167 488.667 892.333 484 882 c 0
 479.333 871.667 473.167 862.667 465.5 855 c 0
 457.833 847.333 448.833 841.167 438.5 836.5 c 0
 428.167 831.833 417 829.5 405 829.5 c 0
 393.667 829.5 382.833 831.833 372.5 836.5 c 0
 362.167 841.167 353.167 847.333 345.5 855 c 0
 337.833 862.667 331.667 871.667 327 882 c 0
 322.333 892.333 320 903.167 320 914.5 c 0
 320 926.5 322.333 937.667 327 948 c 0
 331.667 958.333 337.833 967.333 345.5 975 c 0
 353.167 982.667 362.167 988.833 372.5 993.5 c 0
 382.833 998.167 393.667 1000.5 405 1000.5 c 0
EndSplineSet
MinimumDistance: x4,-1 
EndChar
StartChar: uni281A
Encoding: 10266 10266
Width: 800
VWidth: 1024
Flags: W
HStem: 569 171<399 415 655 671> 829 171<655 671>
VStem: 319.5 171<649 665> 580 171<649 665 905 921>
Fore
665 740.5 m 0
 677 740.5 688.167 738.167 698.5 733.5 c 0
 708.833 728.833 717.833 722.667 725.5 715 c 0
 733.167 707.333 739.333 698.333 744 688 c 0
 748.667 677.667 751 666.5 751 654.5 c 0
 751 643.167 748.667 632.333 744 622 c 0
 739.333 611.667 733.167 602.667 725.5 595 c 0
 717.833 587.333 708.833 581.167 698.5 576.5 c 0
 688.167 571.833 677 569.5 665 569.5 c 0
 653.667 569.5 642.833 571.833 632.5 576.5 c 0
 622.167 581.167 613.167 587.333 605.5 595 c 0
 597.833 602.667 591.667 611.667 587 622 c 0
 582.333 632.333 580 643.167 580 654.5 c 0
 580 666.5 582.333 677.667 587 688 c 0
 591.667 698.333 597.833 707.333 605.5 715 c 0
 613.167 722.667 622.167 728.833 632.5 733.5 c 0
 642.833 738.167 653.667 740.5 665 740.5 c 0
404.5 740 m 0
 416.5 740 427.667 737.667 438 733 c 0
 448.333 728.333 457.333 722.167 465 714.5 c 0
 472.667 706.833 478.833 697.833 483.5 687.5 c 0
 488.167 677.167 490.5 666 490.5 654 c 0
 490.5 642.667 488.167 631.833 483.5 621.5 c 0
 478.833 611.167 472.667 602.167 465 594.5 c 0
 457.333 586.833 448.333 580.667 438 576 c 0
 427.667 571.333 416.5 569 404.5 569 c 0
 393.167 569 382.333 571.333 372 576 c 0
 361.667 580.667 352.667 586.833 345 594.5 c 0
 337.333 602.167 331.167 611.167 326.5 621.5 c 0
 321.833 631.833 319.5 642.667 319.5 654 c 0
 319.5 666 321.833 677.167 326.5 687.5 c 0
 331.167 697.833 337.333 706.833 345 714.5 c 0
 352.667 722.167 361.667 728.333 372 733 c 0
 382.333 737.667 393.167 740 404.5 740 c 0
665 1000 m 0
 677 1000 688.167 997.667 698.5 993 c 0
 708.833 988.333 717.833 982.167 725.5 974.5 c 0
 733.167 966.833 739.333 957.833 744 947.5 c 0
 748.667 937.167 751 926 751 914 c 0
 751 902.667 748.667 891.833 744 881.5 c 0
 739.333 871.167 733.167 862.167 725.5 854.5 c 0
 717.833 846.833 708.833 840.667 698.5 836 c 0
 688.167 831.333 677 829 665 829 c 0
 653.667 829 642.833 831.333 632.5 836 c 0
 622.167 840.667 613.167 846.833 605.5 854.5 c 0
 597.833 862.167 591.667 871.167 587 881.5 c 0
 582.333 891.833 580 902.667 580 914 c 0
 580 926 582.333 937.167 587 947.5 c 0
 591.667 957.833 597.833 966.833 605.5 974.5 c 0
 613.167 982.167 622.167 988.333 632.5 993 c 0
 642.833 997.667 653.667 1000 665 1000 c 0
EndSplineSet
MinimumDistance: x4,-1 
EndChar
StartChar: uni281B
Encoding: 10267 10267
Width: 800
VWidth: 1024
Flags: W
HStem: 569 171<399 415 655 671> 829.5 171<399 415 655 671>
VStem: 319.5 171<649 665 905 921> 580 171<649 665 905 921>
Fore
665 740.5 m 0
 677 740.5 688.167 738.167 698.5 733.5 c 0
 708.833 728.833 717.833 722.667 725.5 715 c 0
 733.167 707.333 739.333 698.333 744 688 c 0
 748.667 677.667 751 666.5 751 654.5 c 0
 751 643.167 748.667 632.333 744 622 c 0
 739.333 611.667 733.167 602.667 725.5 595 c 0
 717.833 587.333 708.833 581.167 698.5 576.5 c 0
 688.167 571.833 677 569.5 665 569.5 c 0
 653.667 569.5 642.833 571.833 632.5 576.5 c 0
 622.167 581.167 613.167 587.333 605.5 595 c 0
 597.833 602.667 591.667 611.667 587 622 c 0
 582.333 632.333 580 643.167 580 654.5 c 0
 580 666.5 582.333 677.667 587 688 c 0
 591.667 698.333 597.833 707.333 605.5 715 c 0
 613.167 722.667 622.167 728.833 632.5 733.5 c 0
 642.833 738.167 653.667 740.5 665 740.5 c 0
404.5 740 m 0
 416.5 740 427.667 737.667 438 733 c 0
 448.333 728.333 457.333 722.167 465 714.5 c 0
 472.667 706.833 478.833 697.833 483.5 687.5 c 0
 488.167 677.167 490.5 666 490.5 654 c 0
 490.5 642.667 488.167 631.833 483.5 621.5 c 0
 478.833 611.167 472.667 602.167 465 594.5 c 0
 457.333 586.833 448.333 580.667 438 576 c 0
 427.667 571.333 416.5 569 404.5 569 c 0
 393.167 569 382.333 571.333 372 576 c 0
 361.667 580.667 352.667 586.833 345 594.5 c 0
 337.333 602.167 331.167 611.167 326.5 621.5 c 0
 321.833 631.833 319.5 642.667 319.5 654 c 0
 319.5 666 321.833 677.167 326.5 687.5 c 0
 331.167 697.833 337.333 706.833 345 714.5 c 0
 352.667 722.167 361.667 728.333 372 733 c 0
 382.333 737.667 393.167 740 404.5 740 c 0
665 1000 m 0
 677 1000 688.167 997.667 698.5 993 c 0
 708.833 988.333 717.833 982.167 725.5 974.5 c 0
 733.167 966.833 739.333 957.833 744 947.5 c 0
 748.667 937.167 751 926 751 914 c 0
 751 902.667 748.667 891.833 744 881.5 c 0
 739.333 871.167 733.167 862.167 725.5 854.5 c 0
 717.833 846.833 708.833 840.667 698.5 836 c 0
 688.167 831.333 677 829 665 829 c 0
 653.667 829 642.833 831.333 632.5 836 c 0
 622.167 840.667 613.167 846.833 605.5 854.5 c 0
 597.833 862.167 591.667 871.167 587 881.5 c 0
 582.333 891.833 580 902.667 580 914 c 0
 580 926 582.333 937.167 587 947.5 c 0
 591.667 957.833 597.833 966.833 605.5 974.5 c 0
 613.167 982.167 622.167 988.333 632.5 993 c 0
 642.833 997.667 653.667 1000 665 1000 c 0
405 1000.5 m 0
 417 1000.5 428.167 998.167 438.5 993.5 c 0
 448.833 988.833 457.833 982.667 465.5 975 c 0
 473.167 967.333 479.333 958.333 484 948 c 0
 488.667 937.667 491 926.5 491 914.5 c 0
 491 903.167 488.667 892.333 484 882 c 0
 479.333 871.667 473.167 862.667 465.5 855 c 0
 457.833 847.333 448.833 841.167 438.5 836.5 c 0
 428.167 831.833 417 829.5 405 829.5 c 0
 393.667 829.5 382.833 831.833 372.5 836.5 c 0
 362.167 841.167 353.167 847.333 345.5 855 c 0
 337.833 862.667 331.667 871.667 327 882 c 0
 322.333 892.333 320 903.167 320 914.5 c 0
 320 926.5 322.333 937.667 327 948 c 0
 331.667 958.333 337.833 967.333 345.5 975 c 0
 353.167 982.667 362.167 988.833 372.5 993.5 c 0
 382.833 998.167 393.667 1000.5 405 1000.5 c 0
EndSplineSet
MinimumDistance: x4,-1 
EndChar
StartChar: uni281C
Encoding: 10268 10268
Width: 800
VWidth: 1024
Flags: W
HStem: 309.5 171<399 415> 569.5 171<655 671> 829 171<655 671>
VStem: 319 171<389 405> 580 171<645 661 901.338 917>
Fore
404 480.5 m 0
 416 480.5 427.167 478.167 437.5 473.5 c 0
 447.833 468.833 456.833 462.667 464.5 455 c 0
 472.167 447.333 478.333 438.333 483 428 c 0
 487.667 417.667 490 406.5 490 394.5 c 0
 490 383.167 487.667 372.333 483 362 c 0
 478.333 351.667 472.167 342.667 464.5 335 c 0
 456.833 327.333 447.833 321.167 437.5 316.5 c 0
 427.167 311.833 416 309.5 404 309.5 c 0
 392.667 309.5 381.833 311.833 371.5 316.5 c 0
 361.167 321.167 352.167 327.333 344.5 335 c 0
 336.833 342.667 330.667 351.667 326 362 c 0
 321.333 372.333 319 383.167 319 394.5 c 0
 319 406.5 321.333 417.667 326 428 c 0
 330.667 438.333 336.833 447.333 344.5 455 c 0
 352.167 462.667 361.167 468.833 371.5 473.5 c 0
 381.833 478.167 392.667 480.5 404 480.5 c 0
665 740.5 m 0
 677 740.5 688.167 738.167 698.5 733.5 c 0
 708.833 728.833 717.833 722.667 725.5 715 c 0
 733.167 707.333 739.333 698.333 744 688 c 0
 748.667 677.667 751 666.5 751 654.5 c 0
 751 643.167 748.667 632.333 744 622 c 0
 739.333 611.667 733.167 602.667 725.5 595 c 0
 717.833 587.333 708.833 581.167 698.5 576.5 c 0
 688.167 571.833 677 569.5 665 569.5 c 0
 653.667 569.5 642.833 571.833 632.5 576.5 c 0
 622.167 581.167 613.167 587.333 605.5 595 c 0
 597.833 602.667 591.667 611.667 587 622 c 0
 582.333 632.333 580 643.167 580 654.5 c 0
 580 666.5 582.333 677.667 587 688 c 0
 591.667 698.333 597.833 707.333 605.5 715 c 0
 613.167 722.667 622.167 728.833 632.5 733.5 c 0
 642.833 738.167 653.667 740.5 665 740.5 c 0
665 1000 m 0
 677 1000 688.167 997.667 698.5 993 c 0
 708.833 988.333 717.833 982.167 725.5 974.5 c 0
 733.167 966.833 739.333 957.833 744 947.5 c 0
 748.667 937.167 751 926 751 914 c 0
 751 902.667 748.667 891.833 744 881.5 c 0
 739.333 871.167 733.167 862.167 725.5 854.5 c 0
 717.833 846.833 708.833 840.667 698.5 836 c 0
 688.167 831.333 677 829 665 829 c 0
 653.667 829 642.833 831.333 632.5 836 c 0
 622.167 840.667 613.167 846.833 605.5 854.5 c 0
 597.833 862.167 591.667 871.167 587 881.5 c 0
 582.333 891.833 580 902.667 580 914 c 0
 580 926 582.333 937.167 587 947.5 c 0
 591.667 957.833 597.833 966.833 605.5 974.5 c 0
 613.167 982.167 622.167 988.333 632.5 993 c 0
 642.833 997.667 653.667 1000 665 1000 c 0
EndSplineSet
MinimumDistance: x20,-1 
EndChar
StartChar: uni281D
Encoding: 10269 10269
Width: 800
VWidth: 1024
Flags: W
HStem: 309.5 171<399 415> 569.5 171<655 671> 829.5 171<399 415 655 671>
VStem: 319 171<389 405 901.79 917> 580 171<645 661 901.338 917>
Fore
404 480.5 m 0
 416 480.5 427.167 478.167 437.5 473.5 c 0
 447.833 468.833 456.833 462.667 464.5 455 c 0
 472.167 447.333 478.333 438.333 483 428 c 0
 487.667 417.667 490 406.5 490 394.5 c 0
 490 383.167 487.667 372.333 483 362 c 0
 478.333 351.667 472.167 342.667 464.5 335 c 0
 456.833 327.333 447.833 321.167 437.5 316.5 c 0
 427.167 311.833 416 309.5 404 309.5 c 0
 392.667 309.5 381.833 311.833 371.5 316.5 c 0
 361.167 321.167 352.167 327.333 344.5 335 c 0
 336.833 342.667 330.667 351.667 326 362 c 0
 321.333 372.333 319 383.167 319 394.5 c 0
 319 406.5 321.333 417.667 326 428 c 0
 330.667 438.333 336.833 447.333 344.5 455 c 0
 352.167 462.667 361.167 468.833 371.5 473.5 c 0
 381.833 478.167 392.667 480.5 404 480.5 c 0
665 740.5 m 0
 677 740.5 688.167 738.167 698.5 733.5 c 0
 708.833 728.833 717.833 722.667 725.5 715 c 0
 733.167 707.333 739.333 698.333 744 688 c 0
 748.667 677.667 751 666.5 751 654.5 c 0
 751 643.167 748.667 632.333 744 622 c 0
 739.333 611.667 733.167 602.667 725.5 595 c 0
 717.833 587.333 708.833 581.167 698.5 576.5 c 0
 688.167 571.833 677 569.5 665 569.5 c 0
 653.667 569.5 642.833 571.833 632.5 576.5 c 0
 622.167 581.167 613.167 587.333 605.5 595 c 0
 597.833 602.667 591.667 611.667 587 622 c 0
 582.333 632.333 580 643.167 580 654.5 c 0
 580 666.5 582.333 677.667 587 688 c 0
 591.667 698.333 597.833 707.333 605.5 715 c 0
 613.167 722.667 622.167 728.833 632.5 733.5 c 0
 642.833 738.167 653.667 740.5 665 740.5 c 0
665 1000 m 0
 677 1000 688.167 997.667 698.5 993 c 0
 708.833 988.333 717.833 982.167 725.5 974.5 c 0
 733.167 966.833 739.333 957.833 744 947.5 c 0
 748.667 937.167 751 926 751 914 c 0
 751 902.667 748.667 891.833 744 881.5 c 0
 739.333 871.167 733.167 862.167 725.5 854.5 c 0
 717.833 846.833 708.833 840.667 698.5 836 c 0
 688.167 831.333 677 829 665 829 c 0
 653.667 829 642.833 831.333 632.5 836 c 0
 622.167 840.667 613.167 846.833 605.5 854.5 c 0
 597.833 862.167 591.667 871.167 587 881.5 c 0
 582.333 891.833 580 902.667 580 914 c 0
 580 926 582.333 937.167 587 947.5 c 0
 591.667 957.833 597.833 966.833 605.5 974.5 c 0
 613.167 982.167 622.167 988.333 632.5 993 c 0
 642.833 997.667 653.667 1000 665 1000 c 0
405 1000.5 m 0
 417 1000.5 428.167 998.167 438.5 993.5 c 0
 448.833 988.833 457.833 982.667 465.5 975 c 0
 473.167 967.333 479.333 958.333 484 948 c 0
 488.667 937.667 491 926.5 491 914.5 c 0
 491 903.167 488.667 892.333 484 882 c 0
 479.333 871.667 473.167 862.667 465.5 855 c 0
 457.833 847.333 448.833 841.167 438.5 836.5 c 0
 428.167 831.833 417 829.5 405 829.5 c 0
 393.667 829.5 382.833 831.833 372.5 836.5 c 0
 362.167 841.167 353.167 847.333 345.5 855 c 0
 337.833 862.667 331.667 871.667 327 882 c 0
 322.333 892.333 320 903.167 320 914.5 c 0
 320 926.5 322.333 937.667 327 948 c 0
 331.667 958.333 337.833 967.333 345.5 975 c 0
 353.167 982.667 362.167 988.833 372.5 993.5 c 0
 382.833 998.167 393.667 1000.5 405 1000.5 c 0
EndSplineSet
MinimumDistance: x20,-1 
EndChar
StartChar: uni281E
Encoding: 10270 10270
Width: 800
VWidth: 1024
Flags: W
HStem: 309.5 171<399 415> 569 171<399 415 655 671> 829 171<655 671>
VStem: 319 171<389 405 645 661> 580 171<645 661 901.338 917>
Fore
404 480.5 m 0
 416 480.5 427.167 478.167 437.5 473.5 c 0
 447.833 468.833 456.833 462.667 464.5 455 c 0
 472.167 447.333 478.333 438.333 483 428 c 0
 487.667 417.667 490 406.5 490 394.5 c 0
 490 383.167 487.667 372.333 483 362 c 0
 478.333 351.667 472.167 342.667 464.5 335 c 0
 456.833 327.333 447.833 321.167 437.5 316.5 c 0
 427.167 311.833 416 309.5 404 309.5 c 0
 392.667 309.5 381.833 311.833 371.5 316.5 c 0
 361.167 321.167 352.167 327.333 344.5 335 c 0
 336.833 342.667 330.667 351.667 326 362 c 0
 321.333 372.333 319 383.167 319 394.5 c 0
 319 406.5 321.333 417.667 326 428 c 0
 330.667 438.333 336.833 447.333 344.5 455 c 0
 352.167 462.667 361.167 468.833 371.5 473.5 c 0
 381.833 478.167 392.667 480.5 404 480.5 c 0
665 740.5 m 0
 677 740.5 688.167 738.167 698.5 733.5 c 0
 708.833 728.833 717.833 722.667 725.5 715 c 0
 733.167 707.333 739.333 698.333 744 688 c 0
 748.667 677.667 751 666.5 751 654.5 c 0
 751 643.167 748.667 632.333 744 622 c 0
 739.333 611.667 733.167 602.667 725.5 595 c 0
 717.833 587.333 708.833 581.167 698.5 576.5 c 0
 688.167 571.833 677 569.5 665 569.5 c 0
 653.667 569.5 642.833 571.833 632.5 576.5 c 0
 622.167 581.167 613.167 587.333 605.5 595 c 0
 597.833 602.667 591.667 611.667 587 622 c 0
 582.333 632.333 580 643.167 580 654.5 c 0
 580 666.5 582.333 677.667 587 688 c 0
 591.667 698.333 597.833 707.333 605.5 715 c 0
 613.167 722.667 622.167 728.833 632.5 733.5 c 0
 642.833 738.167 653.667 740.5 665 740.5 c 0
404.5 740 m 0
 416.5 740 427.667 737.667 438 733 c 0
 448.333 728.333 457.333 722.167 465 714.5 c 0
 472.667 706.833 478.833 697.833 483.5 687.5 c 0
 488.167 677.167 490.5 666 490.5 654 c 0
 490.5 642.667 488.167 631.833 483.5 621.5 c 0
 478.833 611.167 472.667 602.167 465 594.5 c 0
 457.333 586.833 448.333 580.667 438 576 c 0
 427.667 571.333 416.5 569 404.5 569 c 0
 393.167 569 382.333 571.333 372 576 c 0
 361.667 580.667 352.667 586.833 345 594.5 c 0
 337.333 602.167 331.167 611.167 326.5 621.5 c 0
 321.833 631.833 319.5 642.667 319.5 654 c 0
 319.5 666 321.833 677.167 326.5 687.5 c 0
 331.167 697.833 337.333 706.833 345 714.5 c 0
 352.667 722.167 361.667 728.333 372 733 c 0
 382.333 737.667 393.167 740 404.5 740 c 0
665 1000 m 0
 677 1000 688.167 997.667 698.5 993 c 0
 708.833 988.333 717.833 982.167 725.5 974.5 c 0
 733.167 966.833 739.333 957.833 744 947.5 c 0
 748.667 937.167 751 926 751 914 c 0
 751 902.667 748.667 891.833 744 881.5 c 0
 739.333 871.167 733.167 862.167 725.5 854.5 c 0
 717.833 846.833 708.833 840.667 698.5 836 c 0
 688.167 831.333 677 829 665 829 c 0
 653.667 829 642.833 831.333 632.5 836 c 0
 622.167 840.667 613.167 846.833 605.5 854.5 c 0
 597.833 862.167 591.667 871.167 587 881.5 c 0
 582.333 891.833 580 902.667 580 914 c 0
 580 926 582.333 937.167 587 947.5 c 0
 591.667 957.833 597.833 966.833 605.5 974.5 c 0
 613.167 982.167 622.167 988.333 632.5 993 c 0
 642.833 997.667 653.667 1000 665 1000 c 0
EndSplineSet
MinimumDistance: x20,-1 
EndChar
StartChar: uni281F
Encoding: 10271 10271
Width: 800
VWidth: 1024
Flags: W
HStem: 309.5 171<399 415> 569 171<399 415 655 671> 829.5 171<399 415 655 671>
VStem: 319 171<389 405 645 661 901.79 917> 580 171<645 661 901.338 917>
Fore
404 480.5 m 0
 416 480.5 427.167 478.167 437.5 473.5 c 0
 447.833 468.833 456.833 462.667 464.5 455 c 0
 472.167 447.333 478.333 438.333 483 428 c 0
 487.667 417.667 490 406.5 490 394.5 c 0
 490 383.167 487.667 372.333 483 362 c 0
 478.333 351.667 472.167 342.667 464.5 335 c 0
 456.833 327.333 447.833 321.167 437.5 316.5 c 0
 427.167 311.833 416 309.5 404 309.5 c 0
 392.667 309.5 381.833 311.833 371.5 316.5 c 0
 361.167 321.167 352.167 327.333 344.5 335 c 0
 336.833 342.667 330.667 351.667 326 362 c 0
 321.333 372.333 319 383.167 319 394.5 c 0
 319 406.5 321.333 417.667 326 428 c 0
 330.667 438.333 336.833 447.333 344.5 455 c 0
 352.167 462.667 361.167 468.833 371.5 473.5 c 0
 381.833 478.167 392.667 480.5 404 480.5 c 0
665 740.5 m 0
 677 740.5 688.167 738.167 698.5 733.5 c 0
 708.833 728.833 717.833 722.667 725.5 715 c 0
 733.167 707.333 739.333 698.333 744 688 c 0
 748.667 677.667 751 666.5 751 654.5 c 0
 751 643.167 748.667 632.333 744 622 c 0
 739.333 611.667 733.167 602.667 725.5 595 c 0
 717.833 587.333 708.833 581.167 698.5 576.5 c 0
 688.167 571.833 677 569.5 665 569.5 c 0
 653.667 569.5 642.833 571.833 632.5 576.5 c 0
 622.167 581.167 613.167 587.333 605.5 595 c 0
 597.833 602.667 591.667 611.667 587 622 c 0
 582.333 632.333 580 643.167 580 654.5 c 0
 580 666.5 582.333 677.667 587 688 c 0
 591.667 698.333 597.833 707.333 605.5 715 c 0
 613.167 722.667 622.167 728.833 632.5 733.5 c 0
 642.833 738.167 653.667 740.5 665 740.5 c 0
404.5 740 m 0
 416.5 740 427.667 737.667 438 733 c 0
 448.333 728.333 457.333 722.167 465 714.5 c 0
 472.667 706.833 478.833 697.833 483.5 687.5 c 0
 488.167 677.167 490.5 666 490.5 654 c 0
 490.5 642.667 488.167 631.833 483.5 621.5 c 0
 478.833 611.167 472.667 602.167 465 594.5 c 0
 457.333 586.833 448.333 580.667 438 576 c 0
 427.667 571.333 416.5 569 404.5 569 c 0
 393.167 569 382.333 571.333 372 576 c 0
 361.667 580.667 352.667 586.833 345 594.5 c 0
 337.333 602.167 331.167 611.167 326.5 621.5 c 0
 321.833 631.833 319.5 642.667 319.5 654 c 0
 319.5 666 321.833 677.167 326.5 687.5 c 0
 331.167 697.833 337.333 706.833 345 714.5 c 0
 352.667 722.167 361.667 728.333 372 733 c 0
 382.333 737.667 393.167 740 404.5 740 c 0
665 1000 m 0
 677 1000 688.167 997.667 698.5 993 c 0
 708.833 988.333 717.833 982.167 725.5 974.5 c 0
 733.167 966.833 739.333 957.833 744 947.5 c 0
 748.667 937.167 751 926 751 914 c 0
 751 902.667 748.667 891.833 744 881.5 c 0
 739.333 871.167 733.167 862.167 725.5 854.5 c 0
 717.833 846.833 708.833 840.667 698.5 836 c 0
 688.167 831.333 677 829 665 829 c 0
 653.667 829 642.833 831.333 632.5 836 c 0
 622.167 840.667 613.167 846.833 605.5 854.5 c 0
 597.833 862.167 591.667 871.167 587 881.5 c 0
 582.333 891.833 580 902.667 580 914 c 0
 580 926 582.333 937.167 587 947.5 c 0
 591.667 957.833 597.833 966.833 605.5 974.5 c 0
 613.167 982.167 622.167 988.333 632.5 993 c 0
 642.833 997.667 653.667 1000 665 1000 c 0
405 1000.5 m 0
 417 1000.5 428.167 998.167 438.5 993.5 c 0
 448.833 988.833 457.833 982.667 465.5 975 c 0
 473.167 967.333 479.333 958.333 484 948 c 0
 488.667 937.667 491 926.5 491 914.5 c 0
 491 903.167 488.667 892.333 484 882 c 0
 479.333 871.667 473.167 862.667 465.5 855 c 0
 457.833 847.333 448.833 841.167 438.5 836.5 c 0
 428.167 831.833 417 829.5 405 829.5 c 0
 393.667 829.5 382.833 831.833 372.5 836.5 c 0
 362.167 841.167 353.167 847.333 345.5 855 c 0
 337.833 862.667 331.667 871.667 327 882 c 0
 322.333 892.333 320 903.167 320 914.5 c 0
 320 926.5 322.333 937.667 327 948 c 0
 331.667 958.333 337.833 967.333 345.5 975 c 0
 353.167 982.667 362.167 988.833 372.5 993.5 c 0
 382.833 998.167 393.667 1000.5 405 1000.5 c 0
EndSplineSet
MinimumDistance: x20,-1 
EndChar
StartChar: uni2820
Encoding: 10272 10272
Width: 800
VWidth: 1024
Flags: W
HStem: 309.5 171<660 676>
VStem: 580 171<389 405>
Fore
665 480.5 m 0
 677 480.5 688.167 478.167 698.5 473.5 c 0
 708.833 468.833 717.833 462.667 725.5 455 c 0
 733.167 447.333 739.333 438.333 744 428 c 0
 748.667 417.667 751 406.5 751 394.5 c 0
 751 383.167 748.667 372.333 744 362 c 0
 739.333 351.667 733.167 342.667 725.5 335 c 0
 717.833 327.333 708.833 321.167 698.5 316.5 c 0
 688.167 311.833 677 309.5 665 309.5 c 0
 653.667 309.5 642.833 311.833 632.5 316.5 c 0
 622.167 321.167 613.167 327.333 605.5 335 c 0
 597.833 342.667 591.667 351.667 587 362 c 0
 582.333 372.333 580 383.167 580 394.5 c 0
 580 406.5 582.333 417.667 587 428 c 0
 591.667 438.333 597.833 447.333 605.5 455 c 0
 613.167 462.667 622.167 468.833 632.5 473.5 c 0
 642.833 478.167 653.667 480.5 665 480.5 c 0
EndSplineSet
MinimumDistance: x4,-1 
EndChar
StartChar: uni2821
Encoding: 10273 10273
Width: 800
VWidth: 1024
Flags: W
HStem: 309.5 171<656 672> 829.5 171<400 416>
VStem: 320 171<901.79 917> 580 171<389 405>
Fore
665 480.5 m 0
 677 480.5 688.167 478.167 698.5 473.5 c 0
 708.833 468.833 717.833 462.667 725.5 455 c 0
 733.167 447.333 739.333 438.333 744 428 c 0
 748.667 417.667 751 406.5 751 394.5 c 0
 751 383.167 748.667 372.333 744 362 c 0
 739.333 351.667 733.167 342.667 725.5 335 c 0
 717.833 327.333 708.833 321.167 698.5 316.5 c 0
 688.167 311.833 677 309.5 665 309.5 c 0
 653.667 309.5 642.833 311.833 632.5 316.5 c 0
 622.167 321.167 613.167 327.333 605.5 335 c 0
 597.833 342.667 591.667 351.667 587 362 c 0
 582.333 372.333 580 383.167 580 394.5 c 0
 580 406.5 582.333 417.667 587 428 c 0
 591.667 438.333 597.833 447.333 605.5 455 c 0
 613.167 462.667 622.167 468.833 632.5 473.5 c 0
 642.833 478.167 653.667 480.5 665 480.5 c 0
405 1000.5 m 0
 417 1000.5 428.167 998.167 438.5 993.5 c 0
 448.833 988.833 457.833 982.667 465.5 975 c 0
 473.167 967.333 479.333 958.333 484 948 c 0
 488.667 937.667 491 926.5 491 914.5 c 0
 491 903.167 488.667 892.333 484 882 c 0
 479.333 871.667 473.167 862.667 465.5 855 c 0
 457.833 847.333 448.833 841.167 438.5 836.5 c 0
 428.167 831.833 417 829.5 405 829.5 c 0
 393.667 829.5 382.833 831.833 372.5 836.5 c 0
 362.167 841.167 353.167 847.333 345.5 855 c 0
 337.833 862.667 331.667 871.667 327 882 c 0
 322.333 892.333 320 903.167 320 914.5 c 0
 320 926.5 322.333 937.667 327 948 c 0
 331.667 958.333 337.833 967.333 345.5 975 c 0
 353.167 982.667 362.167 988.833 372.5 993.5 c 0
 382.833 998.167 393.667 1000.5 405 1000.5 c 0
EndSplineSet
MinimumDistance: x4,-1 
EndChar
StartChar: uni2822
Encoding: 10274 10274
Width: 800
VWidth: 1024
Flags: W
HStem: 309.5 171<655 671> 569 171<399 415>
VStem: 319.5 171<645 661> 580 171<389 405>
Fore
665 480.5 m 0
 677 480.5 688.167 478.167 698.5 473.5 c 0
 708.833 468.833 717.833 462.667 725.5 455 c 0
 733.167 447.333 739.333 438.333 744 428 c 0
 748.667 417.667 751 406.5 751 394.5 c 0
 751 383.167 748.667 372.333 744 362 c 0
 739.333 351.667 733.167 342.667 725.5 335 c 0
 717.833 327.333 708.833 321.167 698.5 316.5 c 0
 688.167 311.833 677 309.5 665 309.5 c 0
 653.667 309.5 642.833 311.833 632.5 316.5 c 0
 622.167 321.167 613.167 327.333 605.5 335 c 0
 597.833 342.667 591.667 351.667 587 362 c 0
 582.333 372.333 580 383.167 580 394.5 c 0
 580 406.5 582.333 417.667 587 428 c 0
 591.667 438.333 597.833 447.333 605.5 455 c 0
 613.167 462.667 622.167 468.833 632.5 473.5 c 0
 642.833 478.167 653.667 480.5 665 480.5 c 0
404.5 740 m 0
 416.5 740 427.667 737.667 438 733 c 0
 448.333 728.333 457.333 722.167 465 714.5 c 0
 472.667 706.833 478.833 697.833 483.5 687.5 c 0
 488.167 677.167 490.5 666 490.5 654 c 0
 490.5 642.667 488.167 631.833 483.5 621.5 c 0
 478.833 611.167 472.667 602.167 465 594.5 c 0
 457.333 586.833 448.333 580.667 438 576 c 0
 427.667 571.333 416.5 569 404.5 569 c 0
 393.167 569 382.333 571.333 372 576 c 0
 361.667 580.667 352.667 586.833 345 594.5 c 0
 337.333 602.167 331.167 611.167 326.5 621.5 c 0
 321.833 631.833 319.5 642.667 319.5 654 c 0
 319.5 666 321.833 677.167 326.5 687.5 c 0
 331.167 697.833 337.333 706.833 345 714.5 c 0
 352.667 722.167 361.667 728.333 372 733 c 0
 382.333 737.667 393.167 740 404.5 740 c 0
EndSplineSet
MinimumDistance: x4,-1 
EndChar
StartChar: uni2823
Encoding: 10275 10275
Width: 800
VWidth: 1024
Flags: W
HStem: 309.5 171<655 671> 569 171<399 415> 829.5 171<399 415>
VStem: 319.5 171<645 661 901.79 917> 580 171<389 405>
Fore
665 480.5 m 0
 677 480.5 688.167 478.167 698.5 473.5 c 0
 708.833 468.833 717.833 462.667 725.5 455 c 0
 733.167 447.333 739.333 438.333 744 428 c 0
 748.667 417.667 751 406.5 751 394.5 c 0
 751 383.167 748.667 372.333 744 362 c 0
 739.333 351.667 733.167 342.667 725.5 335 c 0
 717.833 327.333 708.833 321.167 698.5 316.5 c 0
 688.167 311.833 677 309.5 665 309.5 c 0
 653.667 309.5 642.833 311.833 632.5 316.5 c 0
 622.167 321.167 613.167 327.333 605.5 335 c 0
 597.833 342.667 591.667 351.667 587 362 c 0
 582.333 372.333 580 383.167 580 394.5 c 0
 580 406.5 582.333 417.667 587 428 c 0
 591.667 438.333 597.833 447.333 605.5 455 c 0
 613.167 462.667 622.167 468.833 632.5 473.5 c 0
 642.833 478.167 653.667 480.5 665 480.5 c 0
404.5 740 m 0
 416.5 740 427.667 737.667 438 733 c 0
 448.333 728.333 457.333 722.167 465 714.5 c 0
 472.667 706.833 478.833 697.833 483.5 687.5 c 0
 488.167 677.167 490.5 666 490.5 654 c 0
 490.5 642.667 488.167 631.833 483.5 621.5 c 0
 478.833 611.167 472.667 602.167 465 594.5 c 0
 457.333 586.833 448.333 580.667 438 576 c 0
 427.667 571.333 416.5 569 404.5 569 c 0
 393.167 569 382.333 571.333 372 576 c 0
 361.667 580.667 352.667 586.833 345 594.5 c 0
 337.333 602.167 331.167 611.167 326.5 621.5 c 0
 321.833 631.833 319.5 642.667 319.5 654 c 0
 319.5 666 321.833 677.167 326.5 687.5 c 0
 331.167 697.833 337.333 706.833 345 714.5 c 0
 352.667 722.167 361.667 728.333 372 733 c 0
 382.333 737.667 393.167 740 404.5 740 c 0
405 1000.5 m 0
 417 1000.5 428.167 998.167 438.5 993.5 c 0
 448.833 988.833 457.833 982.667 465.5 975 c 0
 473.167 967.333 479.333 958.333 484 948 c 0
 488.667 937.667 491 926.5 491 914.5 c 0
 491 903.167 488.667 892.333 484 882 c 0
 479.333 871.667 473.167 862.667 465.5 855 c 0
 457.833 847.333 448.833 841.167 438.5 836.5 c 0
 428.167 831.833 417 829.5 405 829.5 c 0
 393.667 829.5 382.833 831.833 372.5 836.5 c 0
 362.167 841.167 353.167 847.333 345.5 855 c 0
 337.833 862.667 331.667 871.667 327 882 c 0
 322.333 892.333 320 903.167 320 914.5 c 0
 320 926.5 322.333 937.667 327 948 c 0
 331.667 958.333 337.833 967.333 345.5 975 c 0
 353.167 982.667 362.167 988.833 372.5 993.5 c 0
 382.833 998.167 393.667 1000.5 405 1000.5 c 0
EndSplineSet
MinimumDistance: x4,-1 
EndChar
StartChar: uni2824
Encoding: 10276 10276
Width: 800
VWidth: 1024
Flags: W
HStem: 309.5 171<399 415 655 671>
VStem: 319 171<389 405> 580 171<389 405>
Fore
665 480.5 m 0
 677 480.5 688.167 478.167 698.5 473.5 c 0
 708.833 468.833 717.833 462.667 725.5 455 c 0
 733.167 447.333 739.333 438.333 744 428 c 0
 748.667 417.667 751 406.5 751 394.5 c 0
 751 383.167 748.667 372.333 744 362 c 0
 739.333 351.667 733.167 342.667 725.5 335 c 0
 717.833 327.333 708.833 321.167 698.5 316.5 c 0
 688.167 311.833 677 309.5 665 309.5 c 0
 653.667 309.5 642.833 311.833 632.5 316.5 c 0
 622.167 321.167 613.167 327.333 605.5 335 c 0
 597.833 342.667 591.667 351.667 587 362 c 0
 582.333 372.333 580 383.167 580 394.5 c 0
 580 406.5 582.333 417.667 587 428 c 0
 591.667 438.333 597.833 447.333 605.5 455 c 0
 613.167 462.667 622.167 468.833 632.5 473.5 c 0
 642.833 478.167 653.667 480.5 665 480.5 c 0
404 480.5 m 0
 416 480.5 427.167 478.167 437.5 473.5 c 0
 447.833 468.833 456.833 462.667 464.5 455 c 0
 472.167 447.333 478.333 438.333 483 428 c 0
 487.667 417.667 490 406.5 490 394.5 c 0
 490 383.167 487.667 372.333 483 362 c 0
 478.333 351.667 472.167 342.667 464.5 335 c 0
 456.833 327.333 447.833 321.167 437.5 316.5 c 0
 427.167 311.833 416 309.5 404 309.5 c 0
 392.667 309.5 381.833 311.833 371.5 316.5 c 0
 361.167 321.167 352.167 327.333 344.5 335 c 0
 336.833 342.667 330.667 351.667 326 362 c 0
 321.333 372.333 319 383.167 319 394.5 c 0
 319 406.5 321.333 417.667 326 428 c 0
 330.667 438.333 336.833 447.333 344.5 455 c 0
 352.167 462.667 361.167 468.833 371.5 473.5 c 0
 381.833 478.167 392.667 480.5 404 480.5 c 0
EndSplineSet
MinimumDistance: x4,-1 
EndChar
StartChar: uni2825
Encoding: 10277 10277
Width: 800
VWidth: 1024
Flags: W
HStem: 309.5 171<399 415 655 671> 829.5 171<399 415>
VStem: 319 171<389 405 901.79 917> 580 171<389 405>
Fore
665 480.5 m 0
 677 480.5 688.167 478.167 698.5 473.5 c 0
 708.833 468.833 717.833 462.667 725.5 455 c 0
 733.167 447.333 739.333 438.333 744 428 c 0
 748.667 417.667 751 406.5 751 394.5 c 0
 751 383.167 748.667 372.333 744 362 c 0
 739.333 351.667 733.167 342.667 725.5 335 c 0
 717.833 327.333 708.833 321.167 698.5 316.5 c 0
 688.167 311.833 677 309.5 665 309.5 c 0
 653.667 309.5 642.833 311.833 632.5 316.5 c 0
 622.167 321.167 613.167 327.333 605.5 335 c 0
 597.833 342.667 591.667 351.667 587 362 c 0
 582.333 372.333 580 383.167 580 394.5 c 0
 580 406.5 582.333 417.667 587 428 c 0
 591.667 438.333 597.833 447.333 605.5 455 c 0
 613.167 462.667 622.167 468.833 632.5 473.5 c 0
 642.833 478.167 653.667 480.5 665 480.5 c 0
404 480.5 m 0
 416 480.5 427.167 478.167 437.5 473.5 c 0
 447.833 468.833 456.833 462.667 464.5 455 c 0
 472.167 447.333 478.333 438.333 483 428 c 0
 487.667 417.667 490 406.5 490 394.5 c 0
 490 383.167 487.667 372.333 483 362 c 0
 478.333 351.667 472.167 342.667 464.5 335 c 0
 456.833 327.333 447.833 321.167 437.5 316.5 c 0
 427.167 311.833 416 309.5 404 309.5 c 0
 392.667 309.5 381.833 311.833 371.5 316.5 c 0
 361.167 321.167 352.167 327.333 344.5 335 c 0
 336.833 342.667 330.667 351.667 326 362 c 0
 321.333 372.333 319 383.167 319 394.5 c 0
 319 406.5 321.333 417.667 326 428 c 0
 330.667 438.333 336.833 447.333 344.5 455 c 0
 352.167 462.667 361.167 468.833 371.5 473.5 c 0
 381.833 478.167 392.667 480.5 404 480.5 c 0
405 1000.5 m 0
 417 1000.5 428.167 998.167 438.5 993.5 c 0
 448.833 988.833 457.833 982.667 465.5 975 c 0
 473.167 967.333 479.333 958.333 484 948 c 0
 488.667 937.667 491 926.5 491 914.5 c 0
 491 903.167 488.667 892.333 484 882 c 0
 479.333 871.667 473.167 862.667 465.5 855 c 0
 457.833 847.333 448.833 841.167 438.5 836.5 c 0
 428.167 831.833 417 829.5 405 829.5 c 0
 393.667 829.5 382.833 831.833 372.5 836.5 c 0
 362.167 841.167 353.167 847.333 345.5 855 c 0
 337.833 862.667 331.667 871.667 327 882 c 0
 322.333 892.333 320 903.167 320 914.5 c 0
 320 926.5 322.333 937.667 327 948 c 0
 331.667 958.333 337.833 967.333 345.5 975 c 0
 353.167 982.667 362.167 988.833 372.5 993.5 c 0
 382.833 998.167 393.667 1000.5 405 1000.5 c 0
EndSplineSet
MinimumDistance: x4,-1 
EndChar
StartChar: uni2826
Encoding: 10278 10278
Width: 800
VWidth: 1024
Flags: W
HStem: 309.5 171<399 415 655 671> 569 171<399 415>
VStem: 319 171<389 405 645 661> 580 171<389 405>
Fore
665 480.5 m 0
 677 480.5 688.167 478.167 698.5 473.5 c 0
 708.833 468.833 717.833 462.667 725.5 455 c 0
 733.167 447.333 739.333 438.333 744 428 c 0
 748.667 417.667 751 406.5 751 394.5 c 0
 751 383.167 748.667 372.333 744 362 c 0
 739.333 351.667 733.167 342.667 725.5 335 c 0
 717.833 327.333 708.833 321.167 698.5 316.5 c 0
 688.167 311.833 677 309.5 665 309.5 c 0
 653.667 309.5 642.833 311.833 632.5 316.5 c 0
 622.167 321.167 613.167 327.333 605.5 335 c 0
 597.833 342.667 591.667 351.667 587 362 c 0
 582.333 372.333 580 383.167 580 394.5 c 0
 580 406.5 582.333 417.667 587 428 c 0
 591.667 438.333 597.833 447.333 605.5 455 c 0
 613.167 462.667 622.167 468.833 632.5 473.5 c 0
 642.833 478.167 653.667 480.5 665 480.5 c 0
404 480.5 m 0
 416 480.5 427.167 478.167 437.5 473.5 c 0
 447.833 468.833 456.833 462.667 464.5 455 c 0
 472.167 447.333 478.333 438.333 483 428 c 0
 487.667 417.667 490 406.5 490 394.5 c 0
 490 383.167 487.667 372.333 483 362 c 0
 478.333 351.667 472.167 342.667 464.5 335 c 0
 456.833 327.333 447.833 321.167 437.5 316.5 c 0
 427.167 311.833 416 309.5 404 309.5 c 0
 392.667 309.5 381.833 311.833 371.5 316.5 c 0
 361.167 321.167 352.167 327.333 344.5 335 c 0
 336.833 342.667 330.667 351.667 326 362 c 0
 321.333 372.333 319 383.167 319 394.5 c 0
 319 406.5 321.333 417.667 326 428 c 0
 330.667 438.333 336.833 447.333 344.5 455 c 0
 352.167 462.667 361.167 468.833 371.5 473.5 c 0
 381.833 478.167 392.667 480.5 404 480.5 c 0
404.5 740 m 0
 416.5 740 427.667 737.667 438 733 c 0
 448.333 728.333 457.333 722.167 465 714.5 c 0
 472.667 706.833 478.833 697.833 483.5 687.5 c 0
 488.167 677.167 490.5 666 490.5 654 c 0
 490.5 642.667 488.167 631.833 483.5 621.5 c 0
 478.833 611.167 472.667 602.167 465 594.5 c 0
 457.333 586.833 448.333 580.667 438 576 c 0
 427.667 571.333 416.5 569 404.5 569 c 0
 393.167 569 382.333 571.333 372 576 c 0
 361.667 580.667 352.667 586.833 345 594.5 c 0
 337.333 602.167 331.167 611.167 326.5 621.5 c 0
 321.833 631.833 319.5 642.667 319.5 654 c 0
 319.5 666 321.833 677.167 326.5 687.5 c 0
 331.167 697.833 337.333 706.833 345 714.5 c 0
 352.667 722.167 361.667 728.333 372 733 c 0
 382.333 737.667 393.167 740 404.5 740 c 0
EndSplineSet
MinimumDistance: x4,-1 
EndChar
StartChar: uni2827
Encoding: 10279 10279
Width: 800
VWidth: 1024
Flags: W
HStem: 309.5 171<399 415 655 671> 569 171<399 415> 829.5 171<399 415>
VStem: 319 171<389 405 645 661 901.79 917> 580 171<389 405>
Fore
665 480.5 m 0
 677 480.5 688.167 478.167 698.5 473.5 c 0
 708.833 468.833 717.833 462.667 725.5 455 c 0
 733.167 447.333 739.333 438.333 744 428 c 0
 748.667 417.667 751 406.5 751 394.5 c 0
 751 383.167 748.667 372.333 744 362 c 0
 739.333 351.667 733.167 342.667 725.5 335 c 0
 717.833 327.333 708.833 321.167 698.5 316.5 c 0
 688.167 311.833 677 309.5 665 309.5 c 0
 653.667 309.5 642.833 311.833 632.5 316.5 c 0
 622.167 321.167 613.167 327.333 605.5 335 c 0
 597.833 342.667 591.667 351.667 587 362 c 0
 582.333 372.333 580 383.167 580 394.5 c 0
 580 406.5 582.333 417.667 587 428 c 0
 591.667 438.333 597.833 447.333 605.5 455 c 0
 613.167 462.667 622.167 468.833 632.5 473.5 c 0
 642.833 478.167 653.667 480.5 665 480.5 c 0
404 480.5 m 0
 416 480.5 427.167 478.167 437.5 473.5 c 0
 447.833 468.833 456.833 462.667 464.5 455 c 0
 472.167 447.333 478.333 438.333 483 428 c 0
 487.667 417.667 490 406.5 490 394.5 c 0
 490 383.167 487.667 372.333 483 362 c 0
 478.333 351.667 472.167 342.667 464.5 335 c 0
 456.833 327.333 447.833 321.167 437.5 316.5 c 0
 427.167 311.833 416 309.5 404 309.5 c 0
 392.667 309.5 381.833 311.833 371.5 316.5 c 0
 361.167 321.167 352.167 327.333 344.5 335 c 0
 336.833 342.667 330.667 351.667 326 362 c 0
 321.333 372.333 319 383.167 319 394.5 c 0
 319 406.5 321.333 417.667 326 428 c 0
 330.667 438.333 336.833 447.333 344.5 455 c 0
 352.167 462.667 361.167 468.833 371.5 473.5 c 0
 381.833 478.167 392.667 480.5 404 480.5 c 0
404.5 740 m 0
 416.5 740 427.667 737.667 438 733 c 0
 448.333 728.333 457.333 722.167 465 714.5 c 0
 472.667 706.833 478.833 697.833 483.5 687.5 c 0
 488.167 677.167 490.5 666 490.5 654 c 0
 490.5 642.667 488.167 631.833 483.5 621.5 c 0
 478.833 611.167 472.667 602.167 465 594.5 c 0
 457.333 586.833 448.333 580.667 438 576 c 0
 427.667 571.333 416.5 569 404.5 569 c 0
 393.167 569 382.333 571.333 372 576 c 0
 361.667 580.667 352.667 586.833 345 594.5 c 0
 337.333 602.167 331.167 611.167 326.5 621.5 c 0
 321.833 631.833 319.5 642.667 319.5 654 c 0
 319.5 666 321.833 677.167 326.5 687.5 c 0
 331.167 697.833 337.333 706.833 345 714.5 c 0
 352.667 722.167 361.667 728.333 372 733 c 0
 382.333 737.667 393.167 740 404.5 740 c 0
405 1000.5 m 0
 417 1000.5 428.167 998.167 438.5 993.5 c 0
 448.833 988.833 457.833 982.667 465.5 975 c 0
 473.167 967.333 479.333 958.333 484 948 c 0
 488.667 937.667 491 926.5 491 914.5 c 0
 491 903.167 488.667 892.333 484 882 c 0
 479.333 871.667 473.167 862.667 465.5 855 c 0
 457.833 847.333 448.833 841.167 438.5 836.5 c 0
 428.167 831.833 417 829.5 405 829.5 c 0
 393.667 829.5 382.833 831.833 372.5 836.5 c 0
 362.167 841.167 353.167 847.333 345.5 855 c 0
 337.833 862.667 331.667 871.667 327 882 c 0
 322.333 892.333 320 903.167 320 914.5 c 0
 320 926.5 322.333 937.667 327 948 c 0
 331.667 958.333 337.833 967.333 345.5 975 c 0
 353.167 982.667 362.167 988.833 372.5 993.5 c 0
 382.833 998.167 393.667 1000.5 405 1000.5 c 0
EndSplineSet
MinimumDistance: x4,-1 
EndChar
StartChar: uni2828
Encoding: 10280 10280
Width: 800
VWidth: 1024
Flags: W
HStem: 309.5 171<660 676> 829 171<660 676>
VStem: 580 171<389 405 901.338 917>
Fore
665 480.5 m 0
 677 480.5 688.167 478.167 698.5 473.5 c 0
 708.833 468.833 717.833 462.667 725.5 455 c 0
 733.167 447.333 739.333 438.333 744 428 c 0
 748.667 417.667 751 406.5 751 394.5 c 0
 751 383.167 748.667 372.333 744 362 c 0
 739.333 351.667 733.167 342.667 725.5 335 c 0
 717.833 327.333 708.833 321.167 698.5 316.5 c 0
 688.167 311.833 677 309.5 665 309.5 c 0
 653.667 309.5 642.833 311.833 632.5 316.5 c 0
 622.167 321.167 613.167 327.333 605.5 335 c 0
 597.833 342.667 591.667 351.667 587 362 c 0
 582.333 372.333 580 383.167 580 394.5 c 0
 580 406.5 582.333 417.667 587 428 c 0
 591.667 438.333 597.833 447.333 605.5 455 c 0
 613.167 462.667 622.167 468.833 632.5 473.5 c 0
 642.833 478.167 653.667 480.5 665 480.5 c 0
665 1000 m 0
 677 1000 688.167 997.667 698.5 993 c 0
 708.833 988.333 717.833 982.167 725.5 974.5 c 0
 733.167 966.833 739.333 957.833 744 947.5 c 0
 748.667 937.167 751 926 751 914 c 0
 751 902.667 748.667 891.833 744 881.5 c 0
 739.333 871.167 733.167 862.167 725.5 854.5 c 0
 717.833 846.833 708.833 840.667 698.5 836 c 0
 688.167 831.333 677 829 665 829 c 0
 653.667 829 642.833 831.333 632.5 836 c 0
 622.167 840.667 613.167 846.833 605.5 854.5 c 0
 597.833 862.167 591.667 871.167 587 881.5 c 0
 582.333 891.833 580 902.667 580 914 c 0
 580 926 582.333 937.167 587 947.5 c 0
 591.667 957.833 597.833 966.833 605.5 974.5 c 0
 613.167 982.167 622.167 988.333 632.5 993 c 0
 642.833 997.667 653.667 1000 665 1000 c 0
EndSplineSet
MinimumDistance: x4,-1 
EndChar
StartChar: uni2829
Encoding: 10281 10281
Width: 800
VWidth: 1024
Flags: W
HStem: 309.5 171<656 672> 829.5 171<400 416 656 672>
VStem: 320 171<901.79 917> 580 171<389 405 901.338 917>
Fore
665 480.5 m 0
 677 480.5 688.167 478.167 698.5 473.5 c 0
 708.833 468.833 717.833 462.667 725.5 455 c 0
 733.167 447.333 739.333 438.333 744 428 c 0
 748.667 417.667 751 406.5 751 394.5 c 0
 751 383.167 748.667 372.333 744 362 c 0
 739.333 351.667 733.167 342.667 725.5 335 c 0
 717.833 327.333 708.833 321.167 698.5 316.5 c 0
 688.167 311.833 677 309.5 665 309.5 c 0
 653.667 309.5 642.833 311.833 632.5 316.5 c 0
 622.167 321.167 613.167 327.333 605.5 335 c 0
 597.833 342.667 591.667 351.667 587 362 c 0
 582.333 372.333 580 383.167 580 394.5 c 0
 580 406.5 582.333 417.667 587 428 c 0
 591.667 438.333 597.833 447.333 605.5 455 c 0
 613.167 462.667 622.167 468.833 632.5 473.5 c 0
 642.833 478.167 653.667 480.5 665 480.5 c 0
665 1000 m 0
 677 1000 688.167 997.667 698.5 993 c 0
 708.833 988.333 717.833 982.167 725.5 974.5 c 0
 733.167 966.833 739.333 957.833 744 947.5 c 0
 748.667 937.167 751 926 751 914 c 0
 751 902.667 748.667 891.833 744 881.5 c 0
 739.333 871.167 733.167 862.167 725.5 854.5 c 0
 717.833 846.833 708.833 840.667 698.5 836 c 0
 688.167 831.333 677 829 665 829 c 0
 653.667 829 642.833 831.333 632.5 836 c 0
 622.167 840.667 613.167 846.833 605.5 854.5 c 0
 597.833 862.167 591.667 871.167 587 881.5 c 0
 582.333 891.833 580 902.667 580 914 c 0
 580 926 582.333 937.167 587 947.5 c 0
 591.667 957.833 597.833 966.833 605.5 974.5 c 0
 613.167 982.167 622.167 988.333 632.5 993 c 0
 642.833 997.667 653.667 1000 665 1000 c 0
405 1000.5 m 0
 417 1000.5 428.167 998.167 438.5 993.5 c 0
 448.833 988.833 457.833 982.667 465.5 975 c 0
 473.167 967.333 479.333 958.333 484 948 c 0
 488.667 937.667 491 926.5 491 914.5 c 0
 491 903.167 488.667 892.333 484 882 c 0
 479.333 871.667 473.167 862.667 465.5 855 c 0
 457.833 847.333 448.833 841.167 438.5 836.5 c 0
 428.167 831.833 417 829.5 405 829.5 c 0
 393.667 829.5 382.833 831.833 372.5 836.5 c 0
 362.167 841.167 353.167 847.333 345.5 855 c 0
 337.833 862.667 331.667 871.667 327 882 c 0
 322.333 892.333 320 903.167 320 914.5 c 0
 320 926.5 322.333 937.667 327 948 c 0
 331.667 958.333 337.833 967.333 345.5 975 c 0
 353.167 982.667 362.167 988.833 372.5 993.5 c 0
 382.833 998.167 393.667 1000.5 405 1000.5 c 0
EndSplineSet
MinimumDistance: x4,-1 
EndChar
StartChar: uni282A
Encoding: 10282 10282
Width: 800
VWidth: 1024
Flags: W
HStem: 309.5 171<655 671> 569 171<399 415> 829 171<655 671>
VStem: 319.5 171<645 661> 580 171<389 405 901.338 917>
Fore
665 480.5 m 0
 677 480.5 688.167 478.167 698.5 473.5 c 0
 708.833 468.833 717.833 462.667 725.5 455 c 0
 733.167 447.333 739.333 438.333 744 428 c 0
 748.667 417.667 751 406.5 751 394.5 c 0
 751 383.167 748.667 372.333 744 362 c 0
 739.333 351.667 733.167 342.667 725.5 335 c 0
 717.833 327.333 708.833 321.167 698.5 316.5 c 0
 688.167 311.833 677 309.5 665 309.5 c 0
 653.667 309.5 642.833 311.833 632.5 316.5 c 0
 622.167 321.167 613.167 327.333 605.5 335 c 0
 597.833 342.667 591.667 351.667 587 362 c 0
 582.333 372.333 580 383.167 580 394.5 c 0
 580 406.5 582.333 417.667 587 428 c 0
 591.667 438.333 597.833 447.333 605.5 455 c 0
 613.167 462.667 622.167 468.833 632.5 473.5 c 0
 642.833 478.167 653.667 480.5 665 480.5 c 0
404.5 740 m 0
 416.5 740 427.667 737.667 438 733 c 0
 448.333 728.333 457.333 722.167 465 714.5 c 0
 472.667 706.833 478.833 697.833 483.5 687.5 c 0
 488.167 677.167 490.5 666 490.5 654 c 0
 490.5 642.667 488.167 631.833 483.5 621.5 c 0
 478.833 611.167 472.667 602.167 465 594.5 c 0
 457.333 586.833 448.333 580.667 438 576 c 0
 427.667 571.333 416.5 569 404.5 569 c 0
 393.167 569 382.333 571.333 372 576 c 0
 361.667 580.667 352.667 586.833 345 594.5 c 0
 337.333 602.167 331.167 611.167 326.5 621.5 c 0
 321.833 631.833 319.5 642.667 319.5 654 c 0
 319.5 666 321.833 677.167 326.5 687.5 c 0
 331.167 697.833 337.333 706.833 345 714.5 c 0
 352.667 722.167 361.667 728.333 372 733 c 0
 382.333 737.667 393.167 740 404.5 740 c 0
665 1000 m 0
 677 1000 688.167 997.667 698.5 993 c 0
 708.833 988.333 717.833 982.167 725.5 974.5 c 0
 733.167 966.833 739.333 957.833 744 947.5 c 0
 748.667 937.167 751 926 751 914 c 0
 751 902.667 748.667 891.833 744 881.5 c 0
 739.333 871.167 733.167 862.167 725.5 854.5 c 0
 717.833 846.833 708.833 840.667 698.5 836 c 0
 688.167 831.333 677 829 665 829 c 0
 653.667 829 642.833 831.333 632.5 836 c 0
 622.167 840.667 613.167 846.833 605.5 854.5 c 0
 597.833 862.167 591.667 871.167 587 881.5 c 0
 582.333 891.833 580 902.667 580 914 c 0
 580 926 582.333 937.167 587 947.5 c 0
 591.667 957.833 597.833 966.833 605.5 974.5 c 0
 613.167 982.167 622.167 988.333 632.5 993 c 0
 642.833 997.667 653.667 1000 665 1000 c 0
EndSplineSet
MinimumDistance: x4,-1 
EndChar
StartChar: uni282B
Encoding: 10283 10283
Width: 800
VWidth: 1024
Flags: W
HStem: 309.5 171<655 671> 569 171<399 415> 829.5 171<399 415 655 671>
VStem: 319.5 171<645 661 901.79 917> 580 171<389 405 901.338 917>
Fore
665 480.5 m 0
 677 480.5 688.167 478.167 698.5 473.5 c 0
 708.833 468.833 717.833 462.667 725.5 455 c 0
 733.167 447.333 739.333 438.333 744 428 c 0
 748.667 417.667 751 406.5 751 394.5 c 0
 751 383.167 748.667 372.333 744 362 c 0
 739.333 351.667 733.167 342.667 725.5 335 c 0
 717.833 327.333 708.833 321.167 698.5 316.5 c 0
 688.167 311.833 677 309.5 665 309.5 c 0
 653.667 309.5 642.833 311.833 632.5 316.5 c 0
 622.167 321.167 613.167 327.333 605.5 335 c 0
 597.833 342.667 591.667 351.667 587 362 c 0
 582.333 372.333 580 383.167 580 394.5 c 0
 580 406.5 582.333 417.667 587 428 c 0
 591.667 438.333 597.833 447.333 605.5 455 c 0
 613.167 462.667 622.167 468.833 632.5 473.5 c 0
 642.833 478.167 653.667 480.5 665 480.5 c 0
404.5 740 m 0
 416.5 740 427.667 737.667 438 733 c 0
 448.333 728.333 457.333 722.167 465 714.5 c 0
 472.667 706.833 478.833 697.833 483.5 687.5 c 0
 488.167 677.167 490.5 666 490.5 654 c 0
 490.5 642.667 488.167 631.833 483.5 621.5 c 0
 478.833 611.167 472.667 602.167 465 594.5 c 0
 457.333 586.833 448.333 580.667 438 576 c 0
 427.667 571.333 416.5 569 404.5 569 c 0
 393.167 569 382.333 571.333 372 576 c 0
 361.667 580.667 352.667 586.833 345 594.5 c 0
 337.333 602.167 331.167 611.167 326.5 621.5 c 0
 321.833 631.833 319.5 642.667 319.5 654 c 0
 319.5 666 321.833 677.167 326.5 687.5 c 0
 331.167 697.833 337.333 706.833 345 714.5 c 0
 352.667 722.167 361.667 728.333 372 733 c 0
 382.333 737.667 393.167 740 404.5 740 c 0
665 1000 m 0
 677 1000 688.167 997.667 698.5 993 c 0
 708.833 988.333 717.833 982.167 725.5 974.5 c 0
 733.167 966.833 739.333 957.833 744 947.5 c 0
 748.667 937.167 751 926 751 914 c 0
 751 902.667 748.667 891.833 744 881.5 c 0
 739.333 871.167 733.167 862.167 725.5 854.5 c 0
 717.833 846.833 708.833 840.667 698.5 836 c 0
 688.167 831.333 677 829 665 829 c 0
 653.667 829 642.833 831.333 632.5 836 c 0
 622.167 840.667 613.167 846.833 605.5 854.5 c 0
 597.833 862.167 591.667 871.167 587 881.5 c 0
 582.333 891.833 580 902.667 580 914 c 0
 580 926 582.333 937.167 587 947.5 c 0
 591.667 957.833 597.833 966.833 605.5 974.5 c 0
 613.167 982.167 622.167 988.333 632.5 993 c 0
 642.833 997.667 653.667 1000 665 1000 c 0
405 1000.5 m 0
 417 1000.5 428.167 998.167 438.5 993.5 c 0
 448.833 988.833 457.833 982.667 465.5 975 c 0
 473.167 967.333 479.333 958.333 484 948 c 0
 488.667 937.667 491 926.5 491 914.5 c 0
 491 903.167 488.667 892.333 484 882 c 0
 479.333 871.667 473.167 862.667 465.5 855 c 0
 457.833 847.333 448.833 841.167 438.5 836.5 c 0
 428.167 831.833 417 829.5 405 829.5 c 0
 393.667 829.5 382.833 831.833 372.5 836.5 c 0
 362.167 841.167 353.167 847.333 345.5 855 c 0
 337.833 862.667 331.667 871.667 327 882 c 0
 322.333 892.333 320 903.167 320 914.5 c 0
 320 926.5 322.333 937.667 327 948 c 0
 331.667 958.333 337.833 967.333 345.5 975 c 0
 353.167 982.667 362.167 988.833 372.5 993.5 c 0
 382.833 998.167 393.667 1000.5 405 1000.5 c 0
EndSplineSet
MinimumDistance: x4,-1 
EndChar
StartChar: uni282C
Encoding: 10284 10284
Width: 800
VWidth: 1024
Flags: W
HStem: 309.5 171<399 415 655 671> 829 171<655 671>
VStem: 319 171<389 405> 580 171<389 405 901.338 917>
Fore
665 480.5 m 0
 677 480.5 688.167 478.167 698.5 473.5 c 0
 708.833 468.833 717.833 462.667 725.5 455 c 0
 733.167 447.333 739.333 438.333 744 428 c 0
 748.667 417.667 751 406.5 751 394.5 c 0
 751 383.167 748.667 372.333 744 362 c 0
 739.333 351.667 733.167 342.667 725.5 335 c 0
 717.833 327.333 708.833 321.167 698.5 316.5 c 0
 688.167 311.833 677 309.5 665 309.5 c 0
 653.667 309.5 642.833 311.833 632.5 316.5 c 0
 622.167 321.167 613.167 327.333 605.5 335 c 0
 597.833 342.667 591.667 351.667 587 362 c 0
 582.333 372.333 580 383.167 580 394.5 c 0
 580 406.5 582.333 417.667 587 428 c 0
 591.667 438.333 597.833 447.333 605.5 455 c 0
 613.167 462.667 622.167 468.833 632.5 473.5 c 0
 642.833 478.167 653.667 480.5 665 480.5 c 0
404 480.5 m 0
 416 480.5 427.167 478.167 437.5 473.5 c 0
 447.833 468.833 456.833 462.667 464.5 455 c 0
 472.167 447.333 478.333 438.333 483 428 c 0
 487.667 417.667 490 406.5 490 394.5 c 0
 490 383.167 487.667 372.333 483 362 c 0
 478.333 351.667 472.167 342.667 464.5 335 c 0
 456.833 327.333 447.833 321.167 437.5 316.5 c 0
 427.167 311.833 416 309.5 404 309.5 c 0
 392.667 309.5 381.833 311.833 371.5 316.5 c 0
 361.167 321.167 352.167 327.333 344.5 335 c 0
 336.833 342.667 330.667 351.667 326 362 c 0
 321.333 372.333 319 383.167 319 394.5 c 0
 319 406.5 321.333 417.667 326 428 c 0
 330.667 438.333 336.833 447.333 344.5 455 c 0
 352.167 462.667 361.167 468.833 371.5 473.5 c 0
 381.833 478.167 392.667 480.5 404 480.5 c 0
665 1000 m 0
 677 1000 688.167 997.667 698.5 993 c 0
 708.833 988.333 717.833 982.167 725.5 974.5 c 0
 733.167 966.833 739.333 957.833 744 947.5 c 0
 748.667 937.167 751 926 751 914 c 0
 751 902.667 748.667 891.833 744 881.5 c 0
 739.333 871.167 733.167 862.167 725.5 854.5 c 0
 717.833 846.833 708.833 840.667 698.5 836 c 0
 688.167 831.333 677 829 665 829 c 0
 653.667 829 642.833 831.333 632.5 836 c 0
 622.167 840.667 613.167 846.833 605.5 854.5 c 0
 597.833 862.167 591.667 871.167 587 881.5 c 0
 582.333 891.833 580 902.667 580 914 c 0
 580 926 582.333 937.167 587 947.5 c 0
 591.667 957.833 597.833 966.833 605.5 974.5 c 0
 613.167 982.167 622.167 988.333 632.5 993 c 0
 642.833 997.667 653.667 1000 665 1000 c 0
EndSplineSet
MinimumDistance: x4,-1 
EndChar
StartChar: uni282D
Encoding: 10285 10285
Width: 800
VWidth: 1024
Flags: W
HStem: 309.5 171<399 415 655 671> 829.5 171<399 415 655 671>
VStem: 319 171<389 405 901.79 917> 580 171<389 405 901.338 917>
Fore
665 480.5 m 0
 677 480.5 688.167 478.167 698.5 473.5 c 0
 708.833 468.833 717.833 462.667 725.5 455 c 0
 733.167 447.333 739.333 438.333 744 428 c 0
 748.667 417.667 751 406.5 751 394.5 c 0
 751 383.167 748.667 372.333 744 362 c 0
 739.333 351.667 733.167 342.667 725.5 335 c 0
 717.833 327.333 708.833 321.167 698.5 316.5 c 0
 688.167 311.833 677 309.5 665 309.5 c 0
 653.667 309.5 642.833 311.833 632.5 316.5 c 0
 622.167 321.167 613.167 327.333 605.5 335 c 0
 597.833 342.667 591.667 351.667 587 362 c 0
 582.333 372.333 580 383.167 580 394.5 c 0
 580 406.5 582.333 417.667 587 428 c 0
 591.667 438.333 597.833 447.333 605.5 455 c 0
 613.167 462.667 622.167 468.833 632.5 473.5 c 0
 642.833 478.167 653.667 480.5 665 480.5 c 0
404 480.5 m 0
 416 480.5 427.167 478.167 437.5 473.5 c 0
 447.833 468.833 456.833 462.667 464.5 455 c 0
 472.167 447.333 478.333 438.333 483 428 c 0
 487.667 417.667 490 406.5 490 394.5 c 0
 490 383.167 487.667 372.333 483 362 c 0
 478.333 351.667 472.167 342.667 464.5 335 c 0
 456.833 327.333 447.833 321.167 437.5 316.5 c 0
 427.167 311.833 416 309.5 404 309.5 c 0
 392.667 309.5 381.833 311.833 371.5 316.5 c 0
 361.167 321.167 352.167 327.333 344.5 335 c 0
 336.833 342.667 330.667 351.667 326 362 c 0
 321.333 372.333 319 383.167 319 394.5 c 0
 319 406.5 321.333 417.667 326 428 c 0
 330.667 438.333 336.833 447.333 344.5 455 c 0
 352.167 462.667 361.167 468.833 371.5 473.5 c 0
 381.833 478.167 392.667 480.5 404 480.5 c 0
665 1000 m 0
 677 1000 688.167 997.667 698.5 993 c 0
 708.833 988.333 717.833 982.167 725.5 974.5 c 0
 733.167 966.833 739.333 957.833 744 947.5 c 0
 748.667 937.167 751 926 751 914 c 0
 751 902.667 748.667 891.833 744 881.5 c 0
 739.333 871.167 733.167 862.167 725.5 854.5 c 0
 717.833 846.833 708.833 840.667 698.5 836 c 0
 688.167 831.333 677 829 665 829 c 0
 653.667 829 642.833 831.333 632.5 836 c 0
 622.167 840.667 613.167 846.833 605.5 854.5 c 0
 597.833 862.167 591.667 871.167 587 881.5 c 0
 582.333 891.833 580 902.667 580 914 c 0
 580 926 582.333 937.167 587 947.5 c 0
 591.667 957.833 597.833 966.833 605.5 974.5 c 0
 613.167 982.167 622.167 988.333 632.5 993 c 0
 642.833 997.667 653.667 1000 665 1000 c 0
405 1000.5 m 0
 417 1000.5 428.167 998.167 438.5 993.5 c 0
 448.833 988.833 457.833 982.667 465.5 975 c 0
 473.167 967.333 479.333 958.333 484 948 c 0
 488.667 937.667 491 926.5 491 914.5 c 0
 491 903.167 488.667 892.333 484 882 c 0
 479.333 871.667 473.167 862.667 465.5 855 c 0
 457.833 847.333 448.833 841.167 438.5 836.5 c 0
 428.167 831.833 417 829.5 405 829.5 c 0
 393.667 829.5 382.833 831.833 372.5 836.5 c 0
 362.167 841.167 353.167 847.333 345.5 855 c 0
 337.833 862.667 331.667 871.667 327 882 c 0
 322.333 892.333 320 903.167 320 914.5 c 0
 320 926.5 322.333 937.667 327 948 c 0
 331.667 958.333 337.833 967.333 345.5 975 c 0
 353.167 982.667 362.167 988.833 372.5 993.5 c 0
 382.833 998.167 393.667 1000.5 405 1000.5 c 0
EndSplineSet
MinimumDistance: x4,-1 
EndChar
StartChar: uni282E
Encoding: 10286 10286
Width: 800
VWidth: 1024
Flags: W
HStem: 309.5 171<399 415 655 671> 569 171<399 415> 829 171<655 671>
VStem: 319 171<389 405 645 661> 580 171<389 405 901.338 917>
Fore
665 480.5 m 0
 677 480.5 688.167 478.167 698.5 473.5 c 0
 708.833 468.833 717.833 462.667 725.5 455 c 0
 733.167 447.333 739.333 438.333 744 428 c 0
 748.667 417.667 751 406.5 751 394.5 c 0
 751 383.167 748.667 372.333 744 362 c 0
 739.333 351.667 733.167 342.667 725.5 335 c 0
 717.833 327.333 708.833 321.167 698.5 316.5 c 0
 688.167 311.833 677 309.5 665 309.5 c 0
 653.667 309.5 642.833 311.833 632.5 316.5 c 0
 622.167 321.167 613.167 327.333 605.5 335 c 0
 597.833 342.667 591.667 351.667 587 362 c 0
 582.333 372.333 580 383.167 580 394.5 c 0
 580 406.5 582.333 417.667 587 428 c 0
 591.667 438.333 597.833 447.333 605.5 455 c 0
 613.167 462.667 622.167 468.833 632.5 473.5 c 0
 642.833 478.167 653.667 480.5 665 480.5 c 0
404 480.5 m 0
 416 480.5 427.167 478.167 437.5 473.5 c 0
 447.833 468.833 456.833 462.667 464.5 455 c 0
 472.167 447.333 478.333 438.333 483 428 c 0
 487.667 417.667 490 406.5 490 394.5 c 0
 490 383.167 487.667 372.333 483 362 c 0
 478.333 351.667 472.167 342.667 464.5 335 c 0
 456.833 327.333 447.833 321.167 437.5 316.5 c 0
 427.167 311.833 416 309.5 404 309.5 c 0
 392.667 309.5 381.833 311.833 371.5 316.5 c 0
 361.167 321.167 352.167 327.333 344.5 335 c 0
 336.833 342.667 330.667 351.667 326 362 c 0
 321.333 372.333 319 383.167 319 394.5 c 0
 319 406.5 321.333 417.667 326 428 c 0
 330.667 438.333 336.833 447.333 344.5 455 c 0
 352.167 462.667 361.167 468.833 371.5 473.5 c 0
 381.833 478.167 392.667 480.5 404 480.5 c 0
404.5 740 m 0
 416.5 740 427.667 737.667 438 733 c 0
 448.333 728.333 457.333 722.167 465 714.5 c 0
 472.667 706.833 478.833 697.833 483.5 687.5 c 0
 488.167 677.167 490.5 666 490.5 654 c 0
 490.5 642.667 488.167 631.833 483.5 621.5 c 0
 478.833 611.167 472.667 602.167 465 594.5 c 0
 457.333 586.833 448.333 580.667 438 576 c 0
 427.667 571.333 416.5 569 404.5 569 c 0
 393.167 569 382.333 571.333 372 576 c 0
 361.667 580.667 352.667 586.833 345 594.5 c 0
 337.333 602.167 331.167 611.167 326.5 621.5 c 0
 321.833 631.833 319.5 642.667 319.5 654 c 0
 319.5 666 321.833 677.167 326.5 687.5 c 0
 331.167 697.833 337.333 706.833 345 714.5 c 0
 352.667 722.167 361.667 728.333 372 733 c 0
 382.333 737.667 393.167 740 404.5 740 c 0
665 1000 m 0
 677 1000 688.167 997.667 698.5 993 c 0
 708.833 988.333 717.833 982.167 725.5 974.5 c 0
 733.167 966.833 739.333 957.833 744 947.5 c 0
 748.667 937.167 751 926 751 914 c 0
 751 902.667 748.667 891.833 744 881.5 c 0
 739.333 871.167 733.167 862.167 725.5 854.5 c 0
 717.833 846.833 708.833 840.667 698.5 836 c 0
 688.167 831.333 677 829 665 829 c 0
 653.667 829 642.833 831.333 632.5 836 c 0
 622.167 840.667 613.167 846.833 605.5 854.5 c 0
 597.833 862.167 591.667 871.167 587 881.5 c 0
 582.333 891.833 580 902.667 580 914 c 0
 580 926 582.333 937.167 587 947.5 c 0
 591.667 957.833 597.833 966.833 605.5 974.5 c 0
 613.167 982.167 622.167 988.333 632.5 993 c 0
 642.833 997.667 653.667 1000 665 1000 c 0
EndSplineSet
MinimumDistance: x4,-1 
EndChar
StartChar: uni282F
Encoding: 10287 10287
Width: 800
VWidth: 1024
Flags: W
HStem: 309.5 171<399 415 655 671> 569 171<399 415> 829.5 171<399 415 655 671>
VStem: 319 171<389 405 645 661 901.79 917> 580 171<389 405 901.338 917>
Fore
665 480.5 m 0
 677 480.5 688.167 478.167 698.5 473.5 c 0
 708.833 468.833 717.833 462.667 725.5 455 c 0
 733.167 447.333 739.333 438.333 744 428 c 0
 748.667 417.667 751 406.5 751 394.5 c 0
 751 383.167 748.667 372.333 744 362 c 0
 739.333 351.667 733.167 342.667 725.5 335 c 0
 717.833 327.333 708.833 321.167 698.5 316.5 c 0
 688.167 311.833 677 309.5 665 309.5 c 0
 653.667 309.5 642.833 311.833 632.5 316.5 c 0
 622.167 321.167 613.167 327.333 605.5 335 c 0
 597.833 342.667 591.667 351.667 587 362 c 0
 582.333 372.333 580 383.167 580 394.5 c 0
 580 406.5 582.333 417.667 587 428 c 0
 591.667 438.333 597.833 447.333 605.5 455 c 0
 613.167 462.667 622.167 468.833 632.5 473.5 c 0
 642.833 478.167 653.667 480.5 665 480.5 c 0
404 480.5 m 0
 416 480.5 427.167 478.167 437.5 473.5 c 0
 447.833 468.833 456.833 462.667 464.5 455 c 0
 472.167 447.333 478.333 438.333 483 428 c 0
 487.667 417.667 490 406.5 490 394.5 c 0
 490 383.167 487.667 372.333 483 362 c 0
 478.333 351.667 472.167 342.667 464.5 335 c 0
 456.833 327.333 447.833 321.167 437.5 316.5 c 0
 427.167 311.833 416 309.5 404 309.5 c 0
 392.667 309.5 381.833 311.833 371.5 316.5 c 0
 361.167 321.167 352.167 327.333 344.5 335 c 0
 336.833 342.667 330.667 351.667 326 362 c 0
 321.333 372.333 319 383.167 319 394.5 c 0
 319 406.5 321.333 417.667 326 428 c 0
 330.667 438.333 336.833 447.333 344.5 455 c 0
 352.167 462.667 361.167 468.833 371.5 473.5 c 0
 381.833 478.167 392.667 480.5 404 480.5 c 0
404.5 740 m 0
 416.5 740 427.667 737.667 438 733 c 0
 448.333 728.333 457.333 722.167 465 714.5 c 0
 472.667 706.833 478.833 697.833 483.5 687.5 c 0
 488.167 677.167 490.5 666 490.5 654 c 0
 490.5 642.667 488.167 631.833 483.5 621.5 c 0
 478.833 611.167 472.667 602.167 465 594.5 c 0
 457.333 586.833 448.333 580.667 438 576 c 0
 427.667 571.333 416.5 569 404.5 569 c 0
 393.167 569 382.333 571.333 372 576 c 0
 361.667 580.667 352.667 586.833 345 594.5 c 0
 337.333 602.167 331.167 611.167 326.5 621.5 c 0
 321.833 631.833 319.5 642.667 319.5 654 c 0
 319.5 666 321.833 677.167 326.5 687.5 c 0
 331.167 697.833 337.333 706.833 345 714.5 c 0
 352.667 722.167 361.667 728.333 372 733 c 0
 382.333 737.667 393.167 740 404.5 740 c 0
665 1000 m 0
 677 1000 688.167 997.667 698.5 993 c 0
 708.833 988.333 717.833 982.167 725.5 974.5 c 0
 733.167 966.833 739.333 957.833 744 947.5 c 0
 748.667 937.167 751 926 751 914 c 0
 751 902.667 748.667 891.833 744 881.5 c 0
 739.333 871.167 733.167 862.167 725.5 854.5 c 0
 717.833 846.833 708.833 840.667 698.5 836 c 0
 688.167 831.333 677 829 665 829 c 0
 653.667 829 642.833 831.333 632.5 836 c 0
 622.167 840.667 613.167 846.833 605.5 854.5 c 0
 597.833 862.167 591.667 871.167 587 881.5 c 0
 582.333 891.833 580 902.667 580 914 c 0
 580 926 582.333 937.167 587 947.5 c 0
 591.667 957.833 597.833 966.833 605.5 974.5 c 0
 613.167 982.167 622.167 988.333 632.5 993 c 0
 642.833 997.667 653.667 1000 665 1000 c 0
405 1000.5 m 0
 417 1000.5 428.167 998.167 438.5 993.5 c 0
 448.833 988.833 457.833 982.667 465.5 975 c 0
 473.167 967.333 479.333 958.333 484 948 c 0
 488.667 937.667 491 926.5 491 914.5 c 0
 491 903.167 488.667 892.333 484 882 c 0
 479.333 871.667 473.167 862.667 465.5 855 c 0
 457.833 847.333 448.833 841.167 438.5 836.5 c 0
 428.167 831.833 417 829.5 405 829.5 c 0
 393.667 829.5 382.833 831.833 372.5 836.5 c 0
 362.167 841.167 353.167 847.333 345.5 855 c 0
 337.833 862.667 331.667 871.667 327 882 c 0
 322.333 892.333 320 903.167 320 914.5 c 0
 320 926.5 322.333 937.667 327 948 c 0
 331.667 958.333 337.833 967.333 345.5 975 c 0
 353.167 982.667 362.167 988.833 372.5 993.5 c 0
 382.833 998.167 393.667 1000.5 405 1000.5 c 0
EndSplineSet
MinimumDistance: x4,-1 
EndChar
StartChar: uni2830
Encoding: 10288 10288
Width: 800
VWidth: 1024
Flags: W
HStem: 309.5 171<660 676> 569.5 171<660 676>
VStem: 580 171<389 405 645 661>
Fore
665 480.5 m 0
 677 480.5 688.167 478.167 698.5 473.5 c 0
 708.833 468.833 717.833 462.667 725.5 455 c 0
 733.167 447.333 739.333 438.333 744 428 c 0
 748.667 417.667 751 406.5 751 394.5 c 0
 751 383.167 748.667 372.333 744 362 c 0
 739.333 351.667 733.167 342.667 725.5 335 c 0
 717.833 327.333 708.833 321.167 698.5 316.5 c 0
 688.167 311.833 677 309.5 665 309.5 c 0
 653.667 309.5 642.833 311.833 632.5 316.5 c 0
 622.167 321.167 613.167 327.333 605.5 335 c 0
 597.833 342.667 591.667 351.667 587 362 c 0
 582.333 372.333 580 383.167 580 394.5 c 0
 580 406.5 582.333 417.667 587 428 c 0
 591.667 438.333 597.833 447.333 605.5 455 c 0
 613.167 462.667 622.167 468.833 632.5 473.5 c 0
 642.833 478.167 653.667 480.5 665 480.5 c 0
665 740.5 m 0
 677 740.5 688.167 738.167 698.5 733.5 c 0
 708.833 728.833 717.833 722.667 725.5 715 c 0
 733.167 707.333 739.333 698.333 744 688 c 0
 748.667 677.667 751 666.5 751 654.5 c 0
 751 643.167 748.667 632.333 744 622 c 0
 739.333 611.667 733.167 602.667 725.5 595 c 0
 717.833 587.333 708.833 581.167 698.5 576.5 c 0
 688.167 571.833 677 569.5 665 569.5 c 0
 653.667 569.5 642.833 571.833 632.5 576.5 c 0
 622.167 581.167 613.167 587.333 605.5 595 c 0
 597.833 602.667 591.667 611.667 587 622 c 0
 582.333 632.333 580 643.167 580 654.5 c 0
 580 666.5 582.333 677.667 587 688 c 0
 591.667 698.333 597.833 707.333 605.5 715 c 0
 613.167 722.667 622.167 728.833 632.5 733.5 c 0
 642.833 738.167 653.667 740.5 665 740.5 c 0
EndSplineSet
MinimumDistance: x4,-1 
EndChar
StartChar: uni2831
Encoding: 10289 10289
Width: 800
VWidth: 1024
Flags: W
HStem: 309.5 171<656 672> 569.5 171<656 672> 829.5 171<400 416>
VStem: 320 171<901.79 917> 580 171<389 405 645 661>
Fore
665 480.5 m 0
 677 480.5 688.167 478.167 698.5 473.5 c 0
 708.833 468.833 717.833 462.667 725.5 455 c 0
 733.167 447.333 739.333 438.333 744 428 c 0
 748.667 417.667 751 406.5 751 394.5 c 0
 751 383.167 748.667 372.333 744 362 c 0
 739.333 351.667 733.167 342.667 725.5 335 c 0
 717.833 327.333 708.833 321.167 698.5 316.5 c 0
 688.167 311.833 677 309.5 665 309.5 c 0
 653.667 309.5 642.833 311.833 632.5 316.5 c 0
 622.167 321.167 613.167 327.333 605.5 335 c 0
 597.833 342.667 591.667 351.667 587 362 c 0
 582.333 372.333 580 383.167 580 394.5 c 0
 580 406.5 582.333 417.667 587 428 c 0
 591.667 438.333 597.833 447.333 605.5 455 c 0
 613.167 462.667 622.167 468.833 632.5 473.5 c 0
 642.833 478.167 653.667 480.5 665 480.5 c 0
665 740.5 m 0
 677 740.5 688.167 738.167 698.5 733.5 c 0
 708.833 728.833 717.833 722.667 725.5 715 c 0
 733.167 707.333 739.333 698.333 744 688 c 0
 748.667 677.667 751 666.5 751 654.5 c 0
 751 643.167 748.667 632.333 744 622 c 0
 739.333 611.667 733.167 602.667 725.5 595 c 0
 717.833 587.333 708.833 581.167 698.5 576.5 c 0
 688.167 571.833 677 569.5 665 569.5 c 0
 653.667 569.5 642.833 571.833 632.5 576.5 c 0
 622.167 581.167 613.167 587.333 605.5 595 c 0
 597.833 602.667 591.667 611.667 587 622 c 0
 582.333 632.333 580 643.167 580 654.5 c 0
 580 666.5 582.333 677.667 587 688 c 0
 591.667 698.333 597.833 707.333 605.5 715 c 0
 613.167 722.667 622.167 728.833 632.5 733.5 c 0
 642.833 738.167 653.667 740.5 665 740.5 c 0
405 1000.5 m 0
 417 1000.5 428.167 998.167 438.5 993.5 c 0
 448.833 988.833 457.833 982.667 465.5 975 c 0
 473.167 967.333 479.333 958.333 484 948 c 0
 488.667 937.667 491 926.5 491 914.5 c 0
 491 903.167 488.667 892.333 484 882 c 0
 479.333 871.667 473.167 862.667 465.5 855 c 0
 457.833 847.333 448.833 841.167 438.5 836.5 c 0
 428.167 831.833 417 829.5 405 829.5 c 0
 393.667 829.5 382.833 831.833 372.5 836.5 c 0
 362.167 841.167 353.167 847.333 345.5 855 c 0
 337.833 862.667 331.667 871.667 327 882 c 0
 322.333 892.333 320 903.167 320 914.5 c 0
 320 926.5 322.333 937.667 327 948 c 0
 331.667 958.333 337.833 967.333 345.5 975 c 0
 353.167 982.667 362.167 988.833 372.5 993.5 c 0
 382.833 998.167 393.667 1000.5 405 1000.5 c 0
EndSplineSet
MinimumDistance: x4,-1 
EndChar
StartChar: uni2832
Encoding: 10290 10290
Width: 800
VWidth: 1024
Flags: W
HStem: 309.5 171<655 671> 569 171<399 415 655 671>
VStem: 319.5 171<645 661> 580 171<389 405 645 661>
Fore
665 480.5 m 0
 677 480.5 688.167 478.167 698.5 473.5 c 0
 708.833 468.833 717.833 462.667 725.5 455 c 0
 733.167 447.333 739.333 438.333 744 428 c 0
 748.667 417.667 751 406.5 751 394.5 c 0
 751 383.167 748.667 372.333 744 362 c 0
 739.333 351.667 733.167 342.667 725.5 335 c 0
 717.833 327.333 708.833 321.167 698.5 316.5 c 0
 688.167 311.833 677 309.5 665 309.5 c 0
 653.667 309.5 642.833 311.833 632.5 316.5 c 0
 622.167 321.167 613.167 327.333 605.5 335 c 0
 597.833 342.667 591.667 351.667 587 362 c 0
 582.333 372.333 580 383.167 580 394.5 c 0
 580 406.5 582.333 417.667 587 428 c 0
 591.667 438.333 597.833 447.333 605.5 455 c 0
 613.167 462.667 622.167 468.833 632.5 473.5 c 0
 642.833 478.167 653.667 480.5 665 480.5 c 0
665 740.5 m 0
 677 740.5 688.167 738.167 698.5 733.5 c 0
 708.833 728.833 717.833 722.667 725.5 715 c 0
 733.167 707.333 739.333 698.333 744 688 c 0
 748.667 677.667 751 666.5 751 654.5 c 0
 751 643.167 748.667 632.333 744 622 c 0
 739.333 611.667 733.167 602.667 725.5 595 c 0
 717.833 587.333 708.833 581.167 698.5 576.5 c 0
 688.167 571.833 677 569.5 665 569.5 c 0
 653.667 569.5 642.833 571.833 632.5 576.5 c 0
 622.167 581.167 613.167 587.333 605.5 595 c 0
 597.833 602.667 591.667 611.667 587 622 c 0
 582.333 632.333 580 643.167 580 654.5 c 0
 580 666.5 582.333 677.667 587 688 c 0
 591.667 698.333 597.833 707.333 605.5 715 c 0
 613.167 722.667 622.167 728.833 632.5 733.5 c 0
 642.833 738.167 653.667 740.5 665 740.5 c 0
404.5 740 m 0
 416.5 740 427.667 737.667 438 733 c 0
 448.333 728.333 457.333 722.167 465 714.5 c 0
 472.667 706.833 478.833 697.833 483.5 687.5 c 0
 488.167 677.167 490.5 666 490.5 654 c 0
 490.5 642.667 488.167 631.833 483.5 621.5 c 0
 478.833 611.167 472.667 602.167 465 594.5 c 0
 457.333 586.833 448.333 580.667 438 576 c 0
 427.667 571.333 416.5 569 404.5 569 c 0
 393.167 569 382.333 571.333 372 576 c 0
 361.667 580.667 352.667 586.833 345 594.5 c 0
 337.333 602.167 331.167 611.167 326.5 621.5 c 0
 321.833 631.833 319.5 642.667 319.5 654 c 0
 319.5 666 321.833 677.167 326.5 687.5 c 0
 331.167 697.833 337.333 706.833 345 714.5 c 0
 352.667 722.167 361.667 728.333 372 733 c 0
 382.333 737.667 393.167 740 404.5 740 c 0
EndSplineSet
MinimumDistance: x4,-1 
EndChar
StartChar: uni2833
Encoding: 10291 10291
Width: 800
VWidth: 1024
Flags: W
HStem: 309.5 171<655 671> 569 171<399 415 655 671> 829.5 171<399 415>
VStem: 319.5 171<645 661 901.79 917> 580 171<389 405 645 661>
Fore
665 480.5 m 0
 677 480.5 688.167 478.167 698.5 473.5 c 0
 708.833 468.833 717.833 462.667 725.5 455 c 0
 733.167 447.333 739.333 438.333 744 428 c 0
 748.667 417.667 751 406.5 751 394.5 c 0
 751 383.167 748.667 372.333 744 362 c 0
 739.333 351.667 733.167 342.667 725.5 335 c 0
 717.833 327.333 708.833 321.167 698.5 316.5 c 0
 688.167 311.833 677 309.5 665 309.5 c 0
 653.667 309.5 642.833 311.833 632.5 316.5 c 0
 622.167 321.167 613.167 327.333 605.5 335 c 0
 597.833 342.667 591.667 351.667 587 362 c 0
 582.333 372.333 580 383.167 580 394.5 c 0
 580 406.5 582.333 417.667 587 428 c 0
 591.667 438.333 597.833 447.333 605.5 455 c 0
 613.167 462.667 622.167 468.833 632.5 473.5 c 0
 642.833 478.167 653.667 480.5 665 480.5 c 0
665 740.5 m 0
 677 740.5 688.167 738.167 698.5 733.5 c 0
 708.833 728.833 717.833 722.667 725.5 715 c 0
 733.167 707.333 739.333 698.333 744 688 c 0
 748.667 677.667 751 666.5 751 654.5 c 0
 751 643.167 748.667 632.333 744 622 c 0
 739.333 611.667 733.167 602.667 725.5 595 c 0
 717.833 587.333 708.833 581.167 698.5 576.5 c 0
 688.167 571.833 677 569.5 665 569.5 c 0
 653.667 569.5 642.833 571.833 632.5 576.5 c 0
 622.167 581.167 613.167 587.333 605.5 595 c 0
 597.833 602.667 591.667 611.667 587 622 c 0
 582.333 632.333 580 643.167 580 654.5 c 0
 580 666.5 582.333 677.667 587 688 c 0
 591.667 698.333 597.833 707.333 605.5 715 c 0
 613.167 722.667 622.167 728.833 632.5 733.5 c 0
 642.833 738.167 653.667 740.5 665 740.5 c 0
404.5 740 m 0
 416.5 740 427.667 737.667 438 733 c 0
 448.333 728.333 457.333 722.167 465 714.5 c 0
 472.667 706.833 478.833 697.833 483.5 687.5 c 0
 488.167 677.167 490.5 666 490.5 654 c 0
 490.5 642.667 488.167 631.833 483.5 621.5 c 0
 478.833 611.167 472.667 602.167 465 594.5 c 0
 457.333 586.833 448.333 580.667 438 576 c 0
 427.667 571.333 416.5 569 404.5 569 c 0
 393.167 569 382.333 571.333 372 576 c 0
 361.667 580.667 352.667 586.833 345 594.5 c 0
 337.333 602.167 331.167 611.167 326.5 621.5 c 0
 321.833 631.833 319.5 642.667 319.5 654 c 0
 319.5 666 321.833 677.167 326.5 687.5 c 0
 331.167 697.833 337.333 706.833 345 714.5 c 0
 352.667 722.167 361.667 728.333 372 733 c 0
 382.333 737.667 393.167 740 404.5 740 c 0
405 1000.5 m 0
 417 1000.5 428.167 998.167 438.5 993.5 c 0
 448.833 988.833 457.833 982.667 465.5 975 c 0
 473.167 967.333 479.333 958.333 484 948 c 0
 488.667 937.667 491 926.5 491 914.5 c 0
 491 903.167 488.667 892.333 484 882 c 0
 479.333 871.667 473.167 862.667 465.5 855 c 0
 457.833 847.333 448.833 841.167 438.5 836.5 c 0
 428.167 831.833 417 829.5 405 829.5 c 0
 393.667 829.5 382.833 831.833 372.5 836.5 c 0
 362.167 841.167 353.167 847.333 345.5 855 c 0
 337.833 862.667 331.667 871.667 327 882 c 0
 322.333 892.333 320 903.167 320 914.5 c 0
 320 926.5 322.333 937.667 327 948 c 0
 331.667 958.333 337.833 967.333 345.5 975 c 0
 353.167 982.667 362.167 988.833 372.5 993.5 c 0
 382.833 998.167 393.667 1000.5 405 1000.5 c 0
EndSplineSet
MinimumDistance: x4,-1 
EndChar
StartChar: uni2834
Encoding: 10292 10292
Width: 800
VWidth: 1024
Flags: W
HStem: 309.5 171<399 415 655 671> 569.5 171<655 671>
VStem: 319 171<389 405> 580 171<389 405 645 661>
Fore
665 480.5 m 0
 677 480.5 688.167 478.167 698.5 473.5 c 0
 708.833 468.833 717.833 462.667 725.5 455 c 0
 733.167 447.333 739.333 438.333 744 428 c 0
 748.667 417.667 751 406.5 751 394.5 c 0
 751 383.167 748.667 372.333 744 362 c 0
 739.333 351.667 733.167 342.667 725.5 335 c 0
 717.833 327.333 708.833 321.167 698.5 316.5 c 0
 688.167 311.833 677 309.5 665 309.5 c 0
 653.667 309.5 642.833 311.833 632.5 316.5 c 0
 622.167 321.167 613.167 327.333 605.5 335 c 0
 597.833 342.667 591.667 351.667 587 362 c 0
 582.333 372.333 580 383.167 580 394.5 c 0
 580 406.5 582.333 417.667 587 428 c 0
 591.667 438.333 597.833 447.333 605.5 455 c 0
 613.167 462.667 622.167 468.833 632.5 473.5 c 0
 642.833 478.167 653.667 480.5 665 480.5 c 0
404 480.5 m 0
 416 480.5 427.167 478.167 437.5 473.5 c 0
 447.833 468.833 456.833 462.667 464.5 455 c 0
 472.167 447.333 478.333 438.333 483 428 c 0
 487.667 417.667 490 406.5 490 394.5 c 0
 490 383.167 487.667 372.333 483 362 c 0
 478.333 351.667 472.167 342.667 464.5 335 c 0
 456.833 327.333 447.833 321.167 437.5 316.5 c 0
 427.167 311.833 416 309.5 404 309.5 c 0
 392.667 309.5 381.833 311.833 371.5 316.5 c 0
 361.167 321.167 352.167 327.333 344.5 335 c 0
 336.833 342.667 330.667 351.667 326 362 c 0
 321.333 372.333 319 383.167 319 394.5 c 0
 319 406.5 321.333 417.667 326 428 c 0
 330.667 438.333 336.833 447.333 344.5 455 c 0
 352.167 462.667 361.167 468.833 371.5 473.5 c 0
 381.833 478.167 392.667 480.5 404 480.5 c 0
665 740.5 m 0
 677 740.5 688.167 738.167 698.5 733.5 c 0
 708.833 728.833 717.833 722.667 725.5 715 c 0
 733.167 707.333 739.333 698.333 744 688 c 0
 748.667 677.667 751 666.5 751 654.5 c 0
 751 643.167 748.667 632.333 744 622 c 0
 739.333 611.667 733.167 602.667 725.5 595 c 0
 717.833 587.333 708.833 581.167 698.5 576.5 c 0
 688.167 571.833 677 569.5 665 569.5 c 0
 653.667 569.5 642.833 571.833 632.5 576.5 c 0
 622.167 581.167 613.167 587.333 605.5 595 c 0
 597.833 602.667 591.667 611.667 587 622 c 0
 582.333 632.333 580 643.167 580 654.5 c 0
 580 666.5 582.333 677.667 587 688 c 0
 591.667 698.333 597.833 707.333 605.5 715 c 0
 613.167 722.667 622.167 728.833 632.5 733.5 c 0
 642.833 738.167 653.667 740.5 665 740.5 c 0
EndSplineSet
MinimumDistance: x4,-1 
EndChar
StartChar: uni2835
Encoding: 10293 10293
Width: 800
VWidth: 1024
Flags: W
HStem: 309.5 171<399 415 655 671> 569.5 171<655 671> 829.5 171<399 415>
VStem: 319 171<389 405 901.79 917> 580 171<389 405 645 661>
Fore
665 480.5 m 0
 677 480.5 688.167 478.167 698.5 473.5 c 0
 708.833 468.833 717.833 462.667 725.5 455 c 0
 733.167 447.333 739.333 438.333 744 428 c 0
 748.667 417.667 751 406.5 751 394.5 c 0
 751 383.167 748.667 372.333 744 362 c 0
 739.333 351.667 733.167 342.667 725.5 335 c 0
 717.833 327.333 708.833 321.167 698.5 316.5 c 0
 688.167 311.833 677 309.5 665 309.5 c 0
 653.667 309.5 642.833 311.833 632.5 316.5 c 0
 622.167 321.167 613.167 327.333 605.5 335 c 0
 597.833 342.667 591.667 351.667 587 362 c 0
 582.333 372.333 580 383.167 580 394.5 c 0
 580 406.5 582.333 417.667 587 428 c 0
 591.667 438.333 597.833 447.333 605.5 455 c 0
 613.167 462.667 622.167 468.833 632.5 473.5 c 0
 642.833 478.167 653.667 480.5 665 480.5 c 0
404 480.5 m 0
 416 480.5 427.167 478.167 437.5 473.5 c 0
 447.833 468.833 456.833 462.667 464.5 455 c 0
 472.167 447.333 478.333 438.333 483 428 c 0
 487.667 417.667 490 406.5 490 394.5 c 0
 490 383.167 487.667 372.333 483 362 c 0
 478.333 351.667 472.167 342.667 464.5 335 c 0
 456.833 327.333 447.833 321.167 437.5 316.5 c 0
 427.167 311.833 416 309.5 404 309.5 c 0
 392.667 309.5 381.833 311.833 371.5 316.5 c 0
 361.167 321.167 352.167 327.333 344.5 335 c 0
 336.833 342.667 330.667 351.667 326 362 c 0
 321.333 372.333 319 383.167 319 394.5 c 0
 319 406.5 321.333 417.667 326 428 c 0
 330.667 438.333 336.833 447.333 344.5 455 c 0
 352.167 462.667 361.167 468.833 371.5 473.5 c 0
 381.833 478.167 392.667 480.5 404 480.5 c 0
665 740.5 m 0
 677 740.5 688.167 738.167 698.5 733.5 c 0
 708.833 728.833 717.833 722.667 725.5 715 c 0
 733.167 707.333 739.333 698.333 744 688 c 0
 748.667 677.667 751 666.5 751 654.5 c 0
 751 643.167 748.667 632.333 744 622 c 0
 739.333 611.667 733.167 602.667 725.5 595 c 0
 717.833 587.333 708.833 581.167 698.5 576.5 c 0
 688.167 571.833 677 569.5 665 569.5 c 0
 653.667 569.5 642.833 571.833 632.5 576.5 c 0
 622.167 581.167 613.167 587.333 605.5 595 c 0
 597.833 602.667 591.667 611.667 587 622 c 0
 582.333 632.333 580 643.167 580 654.5 c 0
 580 666.5 582.333 677.667 587 688 c 0
 591.667 698.333 597.833 707.333 605.5 715 c 0
 613.167 722.667 622.167 728.833 632.5 733.5 c 0
 642.833 738.167 653.667 740.5 665 740.5 c 0
405 1000.5 m 0
 417 1000.5 428.167 998.167 438.5 993.5 c 0
 448.833 988.833 457.833 982.667 465.5 975 c 0
 473.167 967.333 479.333 958.333 484 948 c 0
 488.667 937.667 491 926.5 491 914.5 c 0
 491 903.167 488.667 892.333 484 882 c 0
 479.333 871.667 473.167 862.667 465.5 855 c 0
 457.833 847.333 448.833 841.167 438.5 836.5 c 0
 428.167 831.833 417 829.5 405 829.5 c 0
 393.667 829.5 382.833 831.833 372.5 836.5 c 0
 362.167 841.167 353.167 847.333 345.5 855 c 0
 337.833 862.667 331.667 871.667 327 882 c 0
 322.333 892.333 320 903.167 320 914.5 c 0
 320 926.5 322.333 937.667 327 948 c 0
 331.667 958.333 337.833 967.333 345.5 975 c 0
 353.167 982.667 362.167 988.833 372.5 993.5 c 0
 382.833 998.167 393.667 1000.5 405 1000.5 c 0
EndSplineSet
MinimumDistance: x4,-1 
EndChar
StartChar: uni2836
Encoding: 10294 10294
Width: 800
VWidth: 1024
Flags: W
HStem: 309.5 171<399 415 655 671> 569 171<399 415 655 671>
VStem: 319 171<389 405 645 661> 580 171<389 405 645 661>
Fore
665 480.5 m 0
 677 480.5 688.167 478.167 698.5 473.5 c 0
 708.833 468.833 717.833 462.667 725.5 455 c 0
 733.167 447.333 739.333 438.333 744 428 c 0
 748.667 417.667 751 406.5 751 394.5 c 0
 751 383.167 748.667 372.333 744 362 c 0
 739.333 351.667 733.167 342.667 725.5 335 c 0
 717.833 327.333 708.833 321.167 698.5 316.5 c 0
 688.167 311.833 677 309.5 665 309.5 c 0
 653.667 309.5 642.833 311.833 632.5 316.5 c 0
 622.167 321.167 613.167 327.333 605.5 335 c 0
 597.833 342.667 591.667 351.667 587 362 c 0
 582.333 372.333 580 383.167 580 394.5 c 0
 580 406.5 582.333 417.667 587 428 c 0
 591.667 438.333 597.833 447.333 605.5 455 c 0
 613.167 462.667 622.167 468.833 632.5 473.5 c 0
 642.833 478.167 653.667 480.5 665 480.5 c 0
404 480.5 m 0
 416 480.5 427.167 478.167 437.5 473.5 c 0
 447.833 468.833 456.833 462.667 464.5 455 c 0
 472.167 447.333 478.333 438.333 483 428 c 0
 487.667 417.667 490 406.5 490 394.5 c 0
 490 383.167 487.667 372.333 483 362 c 0
 478.333 351.667 472.167 342.667 464.5 335 c 0
 456.833 327.333 447.833 321.167 437.5 316.5 c 0
 427.167 311.833 416 309.5 404 309.5 c 0
 392.667 309.5 381.833 311.833 371.5 316.5 c 0
 361.167 321.167 352.167 327.333 344.5 335 c 0
 336.833 342.667 330.667 351.667 326 362 c 0
 321.333 372.333 319 383.167 319 394.5 c 0
 319 406.5 321.333 417.667 326 428 c 0
 330.667 438.333 336.833 447.333 344.5 455 c 0
 352.167 462.667 361.167 468.833 371.5 473.5 c 0
 381.833 478.167 392.667 480.5 404 480.5 c 0
665 740.5 m 0
 677 740.5 688.167 738.167 698.5 733.5 c 0
 708.833 728.833 717.833 722.667 725.5 715 c 0
 733.167 707.333 739.333 698.333 744 688 c 0
 748.667 677.667 751 666.5 751 654.5 c 0
 751 643.167 748.667 632.333 744 622 c 0
 739.333 611.667 733.167 602.667 725.5 595 c 0
 717.833 587.333 708.833 581.167 698.5 576.5 c 0
 688.167 571.833 677 569.5 665 569.5 c 0
 653.667 569.5 642.833 571.833 632.5 576.5 c 0
 622.167 581.167 613.167 587.333 605.5 595 c 0
 597.833 602.667 591.667 611.667 587 622 c 0
 582.333 632.333 580 643.167 580 654.5 c 0
 580 666.5 582.333 677.667 587 688 c 0
 591.667 698.333 597.833 707.333 605.5 715 c 0
 613.167 722.667 622.167 728.833 632.5 733.5 c 0
 642.833 738.167 653.667 740.5 665 740.5 c 0
404.5 740 m 0
 416.5 740 427.667 737.667 438 733 c 0
 448.333 728.333 457.333 722.167 465 714.5 c 0
 472.667 706.833 478.833 697.833 483.5 687.5 c 0
 488.167 677.167 490.5 666 490.5 654 c 0
 490.5 642.667 488.167 631.833 483.5 621.5 c 0
 478.833 611.167 472.667 602.167 465 594.5 c 0
 457.333 586.833 448.333 580.667 438 576 c 0
 427.667 571.333 416.5 569 404.5 569 c 0
 393.167 569 382.333 571.333 372 576 c 0
 361.667 580.667 352.667 586.833 345 594.5 c 0
 337.333 602.167 331.167 611.167 326.5 621.5 c 0
 321.833 631.833 319.5 642.667 319.5 654 c 0
 319.5 666 321.833 677.167 326.5 687.5 c 0
 331.167 697.833 337.333 706.833 345 714.5 c 0
 352.667 722.167 361.667 728.333 372 733 c 0
 382.333 737.667 393.167 740 404.5 740 c 0
EndSplineSet
MinimumDistance: x4,-1 
EndChar
StartChar: uni2837
Encoding: 10295 10295
Width: 800
VWidth: 1024
Flags: W
HStem: 309.5 171<399 415 655 671> 569 171<399 415 655 671> 829.5 171<399 415>
VStem: 319 171<389 405 645 661 901.79 917> 580 171<389 405 645 661>
Fore
665 480.5 m 0
 677 480.5 688.167 478.167 698.5 473.5 c 0
 708.833 468.833 717.833 462.667 725.5 455 c 0
 733.167 447.333 739.333 438.333 744 428 c 0
 748.667 417.667 751 406.5 751 394.5 c 0
 751 383.167 748.667 372.333 744 362 c 0
 739.333 351.667 733.167 342.667 725.5 335 c 0
 717.833 327.333 708.833 321.167 698.5 316.5 c 0
 688.167 311.833 677 309.5 665 309.5 c 0
 653.667 309.5 642.833 311.833 632.5 316.5 c 0
 622.167 321.167 613.167 327.333 605.5 335 c 0
 597.833 342.667 591.667 351.667 587 362 c 0
 582.333 372.333 580 383.167 580 394.5 c 0
 580 406.5 582.333 417.667 587 428 c 0
 591.667 438.333 597.833 447.333 605.5 455 c 0
 613.167 462.667 622.167 468.833 632.5 473.5 c 0
 642.833 478.167 653.667 480.5 665 480.5 c 0
404 480.5 m 0
 416 480.5 427.167 478.167 437.5 473.5 c 0
 447.833 468.833 456.833 462.667 464.5 455 c 0
 472.167 447.333 478.333 438.333 483 428 c 0
 487.667 417.667 490 406.5 490 394.5 c 0
 490 383.167 487.667 372.333 483 362 c 0
 478.333 351.667 472.167 342.667 464.5 335 c 0
 456.833 327.333 447.833 321.167 437.5 316.5 c 0
 427.167 311.833 416 309.5 404 309.5 c 0
 392.667 309.5 381.833 311.833 371.5 316.5 c 0
 361.167 321.167 352.167 327.333 344.5 335 c 0
 336.833 342.667 330.667 351.667 326 362 c 0
 321.333 372.333 319 383.167 319 394.5 c 0
 319 406.5 321.333 417.667 326 428 c 0
 330.667 438.333 336.833 447.333 344.5 455 c 0
 352.167 462.667 361.167 468.833 371.5 473.5 c 0
 381.833 478.167 392.667 480.5 404 480.5 c 0
665 740.5 m 0
 677 740.5 688.167 738.167 698.5 733.5 c 0
 708.833 728.833 717.833 722.667 725.5 715 c 0
 733.167 707.333 739.333 698.333 744 688 c 0
 748.667 677.667 751 666.5 751 654.5 c 0
 751 643.167 748.667 632.333 744 622 c 0
 739.333 611.667 733.167 602.667 725.5 595 c 0
 717.833 587.333 708.833 581.167 698.5 576.5 c 0
 688.167 571.833 677 569.5 665 569.5 c 0
 653.667 569.5 642.833 571.833 632.5 576.5 c 0
 622.167 581.167 613.167 587.333 605.5 595 c 0
 597.833 602.667 591.667 611.667 587 622 c 0
 582.333 632.333 580 643.167 580 654.5 c 0
 580 666.5 582.333 677.667 587 688 c 0
 591.667 698.333 597.833 707.333 605.5 715 c 0
 613.167 722.667 622.167 728.833 632.5 733.5 c 0
 642.833 738.167 653.667 740.5 665 740.5 c 0
404.5 740 m 0
 416.5 740 427.667 737.667 438 733 c 0
 448.333 728.333 457.333 722.167 465 714.5 c 0
 472.667 706.833 478.833 697.833 483.5 687.5 c 0
 488.167 677.167 490.5 666 490.5 654 c 0
 490.5 642.667 488.167 631.833 483.5 621.5 c 0
 478.833 611.167 472.667 602.167 465 594.5 c 0
 457.333 586.833 448.333 580.667 438 576 c 0
 427.667 571.333 416.5 569 404.5 569 c 0
 393.167 569 382.333 571.333 372 576 c 0
 361.667 580.667 352.667 586.833 345 594.5 c 0
 337.333 602.167 331.167 611.167 326.5 621.5 c 0
 321.833 631.833 319.5 642.667 319.5 654 c 0
 319.5 666 321.833 677.167 326.5 687.5 c 0
 331.167 697.833 337.333 706.833 345 714.5 c 0
 352.667 722.167 361.667 728.333 372 733 c 0
 382.333 737.667 393.167 740 404.5 740 c 0
405 1000.5 m 0
 417 1000.5 428.167 998.167 438.5 993.5 c 0
 448.833 988.833 457.833 982.667 465.5 975 c 0
 473.167 967.333 479.333 958.333 484 948 c 0
 488.667 937.667 491 926.5 491 914.5 c 0
 491 903.167 488.667 892.333 484 882 c 0
 479.333 871.667 473.167 862.667 465.5 855 c 0
 457.833 847.333 448.833 841.167 438.5 836.5 c 0
 428.167 831.833 417 829.5 405 829.5 c 0
 393.667 829.5 382.833 831.833 372.5 836.5 c 0
 362.167 841.167 353.167 847.333 345.5 855 c 0
 337.833 862.667 331.667 871.667 327 882 c 0
 322.333 892.333 320 903.167 320 914.5 c 0
 320 926.5 322.333 937.667 327 948 c 0
 331.667 958.333 337.833 967.333 345.5 975 c 0
 353.167 982.667 362.167 988.833 372.5 993.5 c 0
 382.833 998.167 393.667 1000.5 405 1000.5 c 0
EndSplineSet
MinimumDistance: x4,-1 
EndChar
StartChar: uni2838
Encoding: 10296 10296
Width: 800
VWidth: 1024
Flags: W
HStem: 309.5 171<660 676> 569.5 171<660 676> 829 171<660 676>
VStem: 580 171<389 405 645 661 901.338 917>
Fore
665 480.5 m 0
 677 480.5 688.167 478.167 698.5 473.5 c 0
 708.833 468.833 717.833 462.667 725.5 455 c 0
 733.167 447.333 739.333 438.333 744 428 c 0
 748.667 417.667 751 406.5 751 394.5 c 0
 751 383.167 748.667 372.333 744 362 c 0
 739.333 351.667 733.167 342.667 725.5 335 c 0
 717.833 327.333 708.833 321.167 698.5 316.5 c 0
 688.167 311.833 677 309.5 665 309.5 c 0
 653.667 309.5 642.833 311.833 632.5 316.5 c 0
 622.167 321.167 613.167 327.333 605.5 335 c 0
 597.833 342.667 591.667 351.667 587 362 c 0
 582.333 372.333 580 383.167 580 394.5 c 0
 580 406.5 582.333 417.667 587 428 c 0
 591.667 438.333 597.833 447.333 605.5 455 c 0
 613.167 462.667 622.167 468.833 632.5 473.5 c 0
 642.833 478.167 653.667 480.5 665 480.5 c 0
665 740.5 m 0
 677 740.5 688.167 738.167 698.5 733.5 c 0
 708.833 728.833 717.833 722.667 725.5 715 c 0
 733.167 707.333 739.333 698.333 744 688 c 0
 748.667 677.667 751 666.5 751 654.5 c 0
 751 643.167 748.667 632.333 744 622 c 0
 739.333 611.667 733.167 602.667 725.5 595 c 0
 717.833 587.333 708.833 581.167 698.5 576.5 c 0
 688.167 571.833 677 569.5 665 569.5 c 0
 653.667 569.5 642.833 571.833 632.5 576.5 c 0
 622.167 581.167 613.167 587.333 605.5 595 c 0
 597.833 602.667 591.667 611.667 587 622 c 0
 582.333 632.333 580 643.167 580 654.5 c 0
 580 666.5 582.333 677.667 587 688 c 0
 591.667 698.333 597.833 707.333 605.5 715 c 0
 613.167 722.667 622.167 728.833 632.5 733.5 c 0
 642.833 738.167 653.667 740.5 665 740.5 c 0
665 1000 m 0
 677 1000 688.167 997.667 698.5 993 c 0
 708.833 988.333 717.833 982.167 725.5 974.5 c 0
 733.167 966.833 739.333 957.833 744 947.5 c 0
 748.667 937.167 751 926 751 914 c 0
 751 902.667 748.667 891.833 744 881.5 c 0
 739.333 871.167 733.167 862.167 725.5 854.5 c 0
 717.833 846.833 708.833 840.667 698.5 836 c 0
 688.167 831.333 677 829 665 829 c 0
 653.667 829 642.833 831.333 632.5 836 c 0
 622.167 840.667 613.167 846.833 605.5 854.5 c 0
 597.833 862.167 591.667 871.167 587 881.5 c 0
 582.333 891.833 580 902.667 580 914 c 0
 580 926 582.333 937.167 587 947.5 c 0
 591.667 957.833 597.833 966.833 605.5 974.5 c 0
 613.167 982.167 622.167 988.333 632.5 993 c 0
 642.833 997.667 653.667 1000 665 1000 c 0
EndSplineSet
MinimumDistance: x4,-1 
EndChar
StartChar: uni2839
Encoding: 10297 10297
Width: 800
VWidth: 1024
Flags: W
HStem: 309.5 171<656 672> 569.5 171<656 672> 829.5 171<400 416 656 672>
VStem: 320 171<901.79 917> 580 171<389 405 645 661 901.338 917>
Fore
665 480.5 m 0
 677 480.5 688.167 478.167 698.5 473.5 c 0
 708.833 468.833 717.833 462.667 725.5 455 c 0
 733.167 447.333 739.333 438.333 744 428 c 0
 748.667 417.667 751 406.5 751 394.5 c 0
 751 383.167 748.667 372.333 744 362 c 0
 739.333 351.667 733.167 342.667 725.5 335 c 0
 717.833 327.333 708.833 321.167 698.5 316.5 c 0
 688.167 311.833 677 309.5 665 309.5 c 0
 653.667 309.5 642.833 311.833 632.5 316.5 c 0
 622.167 321.167 613.167 327.333 605.5 335 c 0
 597.833 342.667 591.667 351.667 587 362 c 0
 582.333 372.333 580 383.167 580 394.5 c 0
 580 406.5 582.333 417.667 587 428 c 0
 591.667 438.333 597.833 447.333 605.5 455 c 0
 613.167 462.667 622.167 468.833 632.5 473.5 c 0
 642.833 478.167 653.667 480.5 665 480.5 c 0
665 740.5 m 0
 677 740.5 688.167 738.167 698.5 733.5 c 0
 708.833 728.833 717.833 722.667 725.5 715 c 0
 733.167 707.333 739.333 698.333 744 688 c 0
 748.667 677.667 751 666.5 751 654.5 c 0
 751 643.167 748.667 632.333 744 622 c 0
 739.333 611.667 733.167 602.667 725.5 595 c 0
 717.833 587.333 708.833 581.167 698.5 576.5 c 0
 688.167 571.833 677 569.5 665 569.5 c 0
 653.667 569.5 642.833 571.833 632.5 576.5 c 0
 622.167 581.167 613.167 587.333 605.5 595 c 0
 597.833 602.667 591.667 611.667 587 622 c 0
 582.333 632.333 580 643.167 580 654.5 c 0
 580 666.5 582.333 677.667 587 688 c 0
 591.667 698.333 597.833 707.333 605.5 715 c 0
 613.167 722.667 622.167 728.833 632.5 733.5 c 0
 642.833 738.167 653.667 740.5 665 740.5 c 0
665 1000 m 0
 677 1000 688.167 997.667 698.5 993 c 0
 708.833 988.333 717.833 982.167 725.5 974.5 c 0
 733.167 966.833 739.333 957.833 744 947.5 c 0
 748.667 937.167 751 926 751 914 c 0
 751 902.667 748.667 891.833 744 881.5 c 0
 739.333 871.167 733.167 862.167 725.5 854.5 c 0
 717.833 846.833 708.833 840.667 698.5 836 c 0
 688.167 831.333 677 829 665 829 c 0
 653.667 829 642.833 831.333 632.5 836 c 0
 622.167 840.667 613.167 846.833 605.5 854.5 c 0
 597.833 862.167 591.667 871.167 587 881.5 c 0
 582.333 891.833 580 902.667 580 914 c 0
 580 926 582.333 937.167 587 947.5 c 0
 591.667 957.833 597.833 966.833 605.5 974.5 c 0
 613.167 982.167 622.167 988.333 632.5 993 c 0
 642.833 997.667 653.667 1000 665 1000 c 0
405 1000.5 m 0
 417 1000.5 428.167 998.167 438.5 993.5 c 0
 448.833 988.833 457.833 982.667 465.5 975 c 0
 473.167 967.333 479.333 958.333 484 948 c 0
 488.667 937.667 491 926.5 491 914.5 c 0
 491 903.167 488.667 892.333 484 882 c 0
 479.333 871.667 473.167 862.667 465.5 855 c 0
 457.833 847.333 448.833 841.167 438.5 836.5 c 0
 428.167 831.833 417 829.5 405 829.5 c 0
 393.667 829.5 382.833 831.833 372.5 836.5 c 0
 362.167 841.167 353.167 847.333 345.5 855 c 0
 337.833 862.667 331.667 871.667 327 882 c 0
 322.333 892.333 320 903.167 320 914.5 c 0
 320 926.5 322.333 937.667 327 948 c 0
 331.667 958.333 337.833 967.333 345.5 975 c 0
 353.167 982.667 362.167 988.833 372.5 993.5 c 0
 382.833 998.167 393.667 1000.5 405 1000.5 c 0
EndSplineSet
MinimumDistance: x4,-1 
EndChar
StartChar: uni283A
Encoding: 10298 10298
Width: 800
VWidth: 1024
Flags: W
HStem: 309.5 171<655 671> 569 171<399 415 655 671> 829 171<655 671>
VStem: 319.5 171<645 661> 580 171<389 405 645 661 901.338 917>
Fore
665 480.5 m 0
 677 480.5 688.167 478.167 698.5 473.5 c 0
 708.833 468.833 717.833 462.667 725.5 455 c 0
 733.167 447.333 739.333 438.333 744 428 c 0
 748.667 417.667 751 406.5 751 394.5 c 0
 751 383.167 748.667 372.333 744 362 c 0
 739.333 351.667 733.167 342.667 725.5 335 c 0
 717.833 327.333 708.833 321.167 698.5 316.5 c 0
 688.167 311.833 677 309.5 665 309.5 c 0
 653.667 309.5 642.833 311.833 632.5 316.5 c 0
 622.167 321.167 613.167 327.333 605.5 335 c 0
 597.833 342.667 591.667 351.667 587 362 c 0
 582.333 372.333 580 383.167 580 394.5 c 0
 580 406.5 582.333 417.667 587 428 c 0
 591.667 438.333 597.833 447.333 605.5 455 c 0
 613.167 462.667 622.167 468.833 632.5 473.5 c 0
 642.833 478.167 653.667 480.5 665 480.5 c 0
665 740.5 m 0
 677 740.5 688.167 738.167 698.5 733.5 c 0
 708.833 728.833 717.833 722.667 725.5 715 c 0
 733.167 707.333 739.333 698.333 744 688 c 0
 748.667 677.667 751 666.5 751 654.5 c 0
 751 643.167 748.667 632.333 744 622 c 0
 739.333 611.667 733.167 602.667 725.5 595 c 0
 717.833 587.333 708.833 581.167 698.5 576.5 c 0
 688.167 571.833 677 569.5 665 569.5 c 0
 653.667 569.5 642.833 571.833 632.5 576.5 c 0
 622.167 581.167 613.167 587.333 605.5 595 c 0
 597.833 602.667 591.667 611.667 587 622 c 0
 582.333 632.333 580 643.167 580 654.5 c 0
 580 666.5 582.333 677.667 587 688 c 0
 591.667 698.333 597.833 707.333 605.5 715 c 0
 613.167 722.667 622.167 728.833 632.5 733.5 c 0
 642.833 738.167 653.667 740.5 665 740.5 c 0
404.5 740 m 0
 416.5 740 427.667 737.667 438 733 c 0
 448.333 728.333 457.333 722.167 465 714.5 c 0
 472.667 706.833 478.833 697.833 483.5 687.5 c 0
 488.167 677.167 490.5 666 490.5 654 c 0
 490.5 642.667 488.167 631.833 483.5 621.5 c 0
 478.833 611.167 472.667 602.167 465 594.5 c 0
 457.333 586.833 448.333 580.667 438 576 c 0
 427.667 571.333 416.5 569 404.5 569 c 0
 393.167 569 382.333 571.333 372 576 c 0
 361.667 580.667 352.667 586.833 345 594.5 c 0
 337.333 602.167 331.167 611.167 326.5 621.5 c 0
 321.833 631.833 319.5 642.667 319.5 654 c 0
 319.5 666 321.833 677.167 326.5 687.5 c 0
 331.167 697.833 337.333 706.833 345 714.5 c 0
 352.667 722.167 361.667 728.333 372 733 c 0
 382.333 737.667 393.167 740 404.5 740 c 0
665 1000 m 0
 677 1000 688.167 997.667 698.5 993 c 0
 708.833 988.333 717.833 982.167 725.5 974.5 c 0
 733.167 966.833 739.333 957.833 744 947.5 c 0
 748.667 937.167 751 926 751 914 c 0
 751 902.667 748.667 891.833 744 881.5 c 0
 739.333 871.167 733.167 862.167 725.5 854.5 c 0
 717.833 846.833 708.833 840.667 698.5 836 c 0
 688.167 831.333 677 829 665 829 c 0
 653.667 829 642.833 831.333 632.5 836 c 0
 622.167 840.667 613.167 846.833 605.5 854.5 c 0
 597.833 862.167 591.667 871.167 587 881.5 c 0
 582.333 891.833 580 902.667 580 914 c 0
 580 926 582.333 937.167 587 947.5 c 0
 591.667 957.833 597.833 966.833 605.5 974.5 c 0
 613.167 982.167 622.167 988.333 632.5 993 c 0
 642.833 997.667 653.667 1000 665 1000 c 0
EndSplineSet
MinimumDistance: x4,-1 
EndChar
StartChar: uni283B
Encoding: 10299 10299
Width: 800
VWidth: 1024
Flags: W
HStem: 309.5 171<655 671> 569 171<399 415 655 671> 829.5 171<399 415 655 671>
VStem: 319.5 171<645 661 901.79 917> 580 171<389 405 645 661 901.338 917>
Fore
665 480.5 m 0
 677 480.5 688.167 478.167 698.5 473.5 c 0
 708.833 468.833 717.833 462.667 725.5 455 c 0
 733.167 447.333 739.333 438.333 744 428 c 0
 748.667 417.667 751 406.5 751 394.5 c 0
 751 383.167 748.667 372.333 744 362 c 0
 739.333 351.667 733.167 342.667 725.5 335 c 0
 717.833 327.333 708.833 321.167 698.5 316.5 c 0
 688.167 311.833 677 309.5 665 309.5 c 0
 653.667 309.5 642.833 311.833 632.5 316.5 c 0
 622.167 321.167 613.167 327.333 605.5 335 c 0
 597.833 342.667 591.667 351.667 587 362 c 0
 582.333 372.333 580 383.167 580 394.5 c 0
 580 406.5 582.333 417.667 587 428 c 0
 591.667 438.333 597.833 447.333 605.5 455 c 0
 613.167 462.667 622.167 468.833 632.5 473.5 c 0
 642.833 478.167 653.667 480.5 665 480.5 c 0
665 740.5 m 0
 677 740.5 688.167 738.167 698.5 733.5 c 0
 708.833 728.833 717.833 722.667 725.5 715 c 0
 733.167 707.333 739.333 698.333 744 688 c 0
 748.667 677.667 751 666.5 751 654.5 c 0
 751 643.167 748.667 632.333 744 622 c 0
 739.333 611.667 733.167 602.667 725.5 595 c 0
 717.833 587.333 708.833 581.167 698.5 576.5 c 0
 688.167 571.833 677 569.5 665 569.5 c 0
 653.667 569.5 642.833 571.833 632.5 576.5 c 0
 622.167 581.167 613.167 587.333 605.5 595 c 0
 597.833 602.667 591.667 611.667 587 622 c 0
 582.333 632.333 580 643.167 580 654.5 c 0
 580 666.5 582.333 677.667 587 688 c 0
 591.667 698.333 597.833 707.333 605.5 715 c 0
 613.167 722.667 622.167 728.833 632.5 733.5 c 0
 642.833 738.167 653.667 740.5 665 740.5 c 0
404.5 740 m 0
 416.5 740 427.667 737.667 438 733 c 0
 448.333 728.333 457.333 722.167 465 714.5 c 0
 472.667 706.833 478.833 697.833 483.5 687.5 c 0
 488.167 677.167 490.5 666 490.5 654 c 0
 490.5 642.667 488.167 631.833 483.5 621.5 c 0
 478.833 611.167 472.667 602.167 465 594.5 c 0
 457.333 586.833 448.333 580.667 438 576 c 0
 427.667 571.333 416.5 569 404.5 569 c 0
 393.167 569 382.333 571.333 372 576 c 0
 361.667 580.667 352.667 586.833 345 594.5 c 0
 337.333 602.167 331.167 611.167 326.5 621.5 c 0
 321.833 631.833 319.5 642.667 319.5 654 c 0
 319.5 666 321.833 677.167 326.5 687.5 c 0
 331.167 697.833 337.333 706.833 345 714.5 c 0
 352.667 722.167 361.667 728.333 372 733 c 0
 382.333 737.667 393.167 740 404.5 740 c 0
665 1000 m 0
 677 1000 688.167 997.667 698.5 993 c 0
 708.833 988.333 717.833 982.167 725.5 974.5 c 0
 733.167 966.833 739.333 957.833 744 947.5 c 0
 748.667 937.167 751 926 751 914 c 0
 751 902.667 748.667 891.833 744 881.5 c 0
 739.333 871.167 733.167 862.167 725.5 854.5 c 0
 717.833 846.833 708.833 840.667 698.5 836 c 0
 688.167 831.333 677 829 665 829 c 0
 653.667 829 642.833 831.333 632.5 836 c 0
 622.167 840.667 613.167 846.833 605.5 854.5 c 0
 597.833 862.167 591.667 871.167 587 881.5 c 0
 582.333 891.833 580 902.667 580 914 c 0
 580 926 582.333 937.167 587 947.5 c 0
 591.667 957.833 597.833 966.833 605.5 974.5 c 0
 613.167 982.167 622.167 988.333 632.5 993 c 0
 642.833 997.667 653.667 1000 665 1000 c 0
405 1000.5 m 0
 417 1000.5 428.167 998.167 438.5 993.5 c 0
 448.833 988.833 457.833 982.667 465.5 975 c 0
 473.167 967.333 479.333 958.333 484 948 c 0
 488.667 937.667 491 926.5 491 914.5 c 0
 491 903.167 488.667 892.333 484 882 c 0
 479.333 871.667 473.167 862.667 465.5 855 c 0
 457.833 847.333 448.833 841.167 438.5 836.5 c 0
 428.167 831.833 417 829.5 405 829.5 c 0
 393.667 829.5 382.833 831.833 372.5 836.5 c 0
 362.167 841.167 353.167 847.333 345.5 855 c 0
 337.833 862.667 331.667 871.667 327 882 c 0
 322.333 892.333 320 903.167 320 914.5 c 0
 320 926.5 322.333 937.667 327 948 c 0
 331.667 958.333 337.833 967.333 345.5 975 c 0
 353.167 982.667 362.167 988.833 372.5 993.5 c 0
 382.833 998.167 393.667 1000.5 405 1000.5 c 0
EndSplineSet
MinimumDistance: x4,-1 
EndChar
StartChar: uni283C
Encoding: 10300 10300
Width: 800
VWidth: 1024
Flags: W
HStem: 309.5 171<399 415 655 671> 569.5 171<655 671> 829 171<655 671>
VStem: 319 171<389 405> 580 171<389 405 645 661 901.338 917>
Fore
665 480.5 m 0
 677 480.5 688.167 478.167 698.5 473.5 c 0
 708.833 468.833 717.833 462.667 725.5 455 c 0
 733.167 447.333 739.333 438.333 744 428 c 0
 748.667 417.667 751 406.5 751 394.5 c 0
 751 383.167 748.667 372.333 744 362 c 0
 739.333 351.667 733.167 342.667 725.5 335 c 0
 717.833 327.333 708.833 321.167 698.5 316.5 c 0
 688.167 311.833 677 309.5 665 309.5 c 0
 653.667 309.5 642.833 311.833 632.5 316.5 c 0
 622.167 321.167 613.167 327.333 605.5 335 c 0
 597.833 342.667 591.667 351.667 587 362 c 0
 582.333 372.333 580 383.167 580 394.5 c 0
 580 406.5 582.333 417.667 587 428 c 0
 591.667 438.333 597.833 447.333 605.5 455 c 0
 613.167 462.667 622.167 468.833 632.5 473.5 c 0
 642.833 478.167 653.667 480.5 665 480.5 c 0
404 480.5 m 0
 416 480.5 427.167 478.167 437.5 473.5 c 0
 447.833 468.833 456.833 462.667 464.5 455 c 0
 472.167 447.333 478.333 438.333 483 428 c 0
 487.667 417.667 490 406.5 490 394.5 c 0
 490 383.167 487.667 372.333 483 362 c 0
 478.333 351.667 472.167 342.667 464.5 335 c 0
 456.833 327.333 447.833 321.167 437.5 316.5 c 0
 427.167 311.833 416 309.5 404 309.5 c 0
 392.667 309.5 381.833 311.833 371.5 316.5 c 0
 361.167 321.167 352.167 327.333 344.5 335 c 0
 336.833 342.667 330.667 351.667 326 362 c 0
 321.333 372.333 319 383.167 319 394.5 c 0
 319 406.5 321.333 417.667 326 428 c 0
 330.667 438.333 336.833 447.333 344.5 455 c 0
 352.167 462.667 361.167 468.833 371.5 473.5 c 0
 381.833 478.167 392.667 480.5 404 480.5 c 0
665 740.5 m 0
 677 740.5 688.167 738.167 698.5 733.5 c 0
 708.833 728.833 717.833 722.667 725.5 715 c 0
 733.167 707.333 739.333 698.333 744 688 c 0
 748.667 677.667 751 666.5 751 654.5 c 0
 751 643.167 748.667 632.333 744 622 c 0
 739.333 611.667 733.167 602.667 725.5 595 c 0
 717.833 587.333 708.833 581.167 698.5 576.5 c 0
 688.167 571.833 677 569.5 665 569.5 c 0
 653.667 569.5 642.833 571.833 632.5 576.5 c 0
 622.167 581.167 613.167 587.333 605.5 595 c 0
 597.833 602.667 591.667 611.667 587 622 c 0
 582.333 632.333 580 643.167 580 654.5 c 0
 580 666.5 582.333 677.667 587 688 c 0
 591.667 698.333 597.833 707.333 605.5 715 c 0
 613.167 722.667 622.167 728.833 632.5 733.5 c 0
 642.833 738.167 653.667 740.5 665 740.5 c 0
665 1000 m 0
 677 1000 688.167 997.667 698.5 993 c 0
 708.833 988.333 717.833 982.167 725.5 974.5 c 0
 733.167 966.833 739.333 957.833 744 947.5 c 0
 748.667 937.167 751 926 751 914 c 0
 751 902.667 748.667 891.833 744 881.5 c 0
 739.333 871.167 733.167 862.167 725.5 854.5 c 0
 717.833 846.833 708.833 840.667 698.5 836 c 0
 688.167 831.333 677 829 665 829 c 0
 653.667 829 642.833 831.333 632.5 836 c 0
 622.167 840.667 613.167 846.833 605.5 854.5 c 0
 597.833 862.167 591.667 871.167 587 881.5 c 0
 582.333 891.833 580 902.667 580 914 c 0
 580 926 582.333 937.167 587 947.5 c 0
 591.667 957.833 597.833 966.833 605.5 974.5 c 0
 613.167 982.167 622.167 988.333 632.5 993 c 0
 642.833 997.667 653.667 1000 665 1000 c 0
EndSplineSet
MinimumDistance: x4,-1 
EndChar
StartChar: uni283D
Encoding: 10301 10301
Width: 800
VWidth: 1024
Flags: W
HStem: 309.5 171<399 415 655 671> 569.5 171<655 671> 829.5 171<399 415 655 671>
VStem: 319 171<389 405 901.79 917> 580 171<389 405 645 661 901.338 917>
Fore
665 480.5 m 0
 677 480.5 688.167 478.167 698.5 473.5 c 0
 708.833 468.833 717.833 462.667 725.5 455 c 0
 733.167 447.333 739.333 438.333 744 428 c 0
 748.667 417.667 751 406.5 751 394.5 c 0
 751 383.167 748.667 372.333 744 362 c 0
 739.333 351.667 733.167 342.667 725.5 335 c 0
 717.833 327.333 708.833 321.167 698.5 316.5 c 0
 688.167 311.833 677 309.5 665 309.5 c 0
 653.667 309.5 642.833 311.833 632.5 316.5 c 0
 622.167 321.167 613.167 327.333 605.5 335 c 0
 597.833 342.667 591.667 351.667 587 362 c 0
 582.333 372.333 580 383.167 580 394.5 c 0
 580 406.5 582.333 417.667 587 428 c 0
 591.667 438.333 597.833 447.333 605.5 455 c 0
 613.167 462.667 622.167 468.833 632.5 473.5 c 0
 642.833 478.167 653.667 480.5 665 480.5 c 0
404 480.5 m 0
 416 480.5 427.167 478.167 437.5 473.5 c 0
 447.833 468.833 456.833 462.667 464.5 455 c 0
 472.167 447.333 478.333 438.333 483 428 c 0
 487.667 417.667 490 406.5 490 394.5 c 0
 490 383.167 487.667 372.333 483 362 c 0
 478.333 351.667 472.167 342.667 464.5 335 c 0
 456.833 327.333 447.833 321.167 437.5 316.5 c 0
 427.167 311.833 416 309.5 404 309.5 c 0
 392.667 309.5 381.833 311.833 371.5 316.5 c 0
 361.167 321.167 352.167 327.333 344.5 335 c 0
 336.833 342.667 330.667 351.667 326 362 c 0
 321.333 372.333 319 383.167 319 394.5 c 0
 319 406.5 321.333 417.667 326 428 c 0
 330.667 438.333 336.833 447.333 344.5 455 c 0
 352.167 462.667 361.167 468.833 371.5 473.5 c 0
 381.833 478.167 392.667 480.5 404 480.5 c 0
665 740.5 m 0
 677 740.5 688.167 738.167 698.5 733.5 c 0
 708.833 728.833 717.833 722.667 725.5 715 c 0
 733.167 707.333 739.333 698.333 744 688 c 0
 748.667 677.667 751 666.5 751 654.5 c 0
 751 643.167 748.667 632.333 744 622 c 0
 739.333 611.667 733.167 602.667 725.5 595 c 0
 717.833 587.333 708.833 581.167 698.5 576.5 c 0
 688.167 571.833 677 569.5 665 569.5 c 0
 653.667 569.5 642.833 571.833 632.5 576.5 c 0
 622.167 581.167 613.167 587.333 605.5 595 c 0
 597.833 602.667 591.667 611.667 587 622 c 0
 582.333 632.333 580 643.167 580 654.5 c 0
 580 666.5 582.333 677.667 587 688 c 0
 591.667 698.333 597.833 707.333 605.5 715 c 0
 613.167 722.667 622.167 728.833 632.5 733.5 c 0
 642.833 738.167 653.667 740.5 665 740.5 c 0
665 1000 m 0
 677 1000 688.167 997.667 698.5 993 c 0
 708.833 988.333 717.833 982.167 725.5 974.5 c 0
 733.167 966.833 739.333 957.833 744 947.5 c 0
 748.667 937.167 751 926 751 914 c 0
 751 902.667 748.667 891.833 744 881.5 c 0
 739.333 871.167 733.167 862.167 725.5 854.5 c 0
 717.833 846.833 708.833 840.667 698.5 836 c 0
 688.167 831.333 677 829 665 829 c 0
 653.667 829 642.833 831.333 632.5 836 c 0
 622.167 840.667 613.167 846.833 605.5 854.5 c 0
 597.833 862.167 591.667 871.167 587 881.5 c 0
 582.333 891.833 580 902.667 580 914 c 0
 580 926 582.333 937.167 587 947.5 c 0
 591.667 957.833 597.833 966.833 605.5 974.5 c 0
 613.167 982.167 622.167 988.333 632.5 993 c 0
 642.833 997.667 653.667 1000 665 1000 c 0
405 1000.5 m 0
 417 1000.5 428.167 998.167 438.5 993.5 c 0
 448.833 988.833 457.833 982.667 465.5 975 c 0
 473.167 967.333 479.333 958.333 484 948 c 0
 488.667 937.667 491 926.5 491 914.5 c 0
 491 903.167 488.667 892.333 484 882 c 0
 479.333 871.667 473.167 862.667 465.5 855 c 0
 457.833 847.333 448.833 841.167 438.5 836.5 c 0
 428.167 831.833 417 829.5 405 829.5 c 0
 393.667 829.5 382.833 831.833 372.5 836.5 c 0
 362.167 841.167 353.167 847.333 345.5 855 c 0
 337.833 862.667 331.667 871.667 327 882 c 0
 322.333 892.333 320 903.167 320 914.5 c 0
 320 926.5 322.333 937.667 327 948 c 0
 331.667 958.333 337.833 967.333 345.5 975 c 0
 353.167 982.667 362.167 988.833 372.5 993.5 c 0
 382.833 998.167 393.667 1000.5 405 1000.5 c 0
EndSplineSet
MinimumDistance: x4,-1 
EndChar
StartChar: uni283E
Encoding: 10302 10302
Width: 800
VWidth: 1024
Flags: W
HStem: 309.5 171<399 415 655 671> 569 171<399 415 655 671> 829 171<655 671>
VStem: 319 171<389 405 645 661> 580 171<389 405 645 661 901.338 917>
Fore
665 480.5 m 0
 677 480.5 688.167 478.167 698.5 473.5 c 0
 708.833 468.833 717.833 462.667 725.5 455 c 0
 733.167 447.333 739.333 438.333 744 428 c 0
 748.667 417.667 751 406.5 751 394.5 c 0
 751 383.167 748.667 372.333 744 362 c 0
 739.333 351.667 733.167 342.667 725.5 335 c 0
 717.833 327.333 708.833 321.167 698.5 316.5 c 0
 688.167 311.833 677 309.5 665 309.5 c 0
 653.667 309.5 642.833 311.833 632.5 316.5 c 0
 622.167 321.167 613.167 327.333 605.5 335 c 0
 597.833 342.667 591.667 351.667 587 362 c 0
 582.333 372.333 580 383.167 580 394.5 c 0
 580 406.5 582.333 417.667 587 428 c 0
 591.667 438.333 597.833 447.333 605.5 455 c 0
 613.167 462.667 622.167 468.833 632.5 473.5 c 0
 642.833 478.167 653.667 480.5 665 480.5 c 0
404 480.5 m 0
 416 480.5 427.167 478.167 437.5 473.5 c 0
 447.833 468.833 456.833 462.667 464.5 455 c 0
 472.167 447.333 478.333 438.333 483 428 c 0
 487.667 417.667 490 406.5 490 394.5 c 0
 490 383.167 487.667 372.333 483 362 c 0
 478.333 351.667 472.167 342.667 464.5 335 c 0
 456.833 327.333 447.833 321.167 437.5 316.5 c 0
 427.167 311.833 416 309.5 404 309.5 c 0
 392.667 309.5 381.833 311.833 371.5 316.5 c 0
 361.167 321.167 352.167 327.333 344.5 335 c 0
 336.833 342.667 330.667 351.667 326 362 c 0
 321.333 372.333 319 383.167 319 394.5 c 0
 319 406.5 321.333 417.667 326 428 c 0
 330.667 438.333 336.833 447.333 344.5 455 c 0
 352.167 462.667 361.167 468.833 371.5 473.5 c 0
 381.833 478.167 392.667 480.5 404 480.5 c 0
665 740.5 m 0
 677 740.5 688.167 738.167 698.5 733.5 c 0
 708.833 728.833 717.833 722.667 725.5 715 c 0
 733.167 707.333 739.333 698.333 744 688 c 0
 748.667 677.667 751 666.5 751 654.5 c 0
 751 643.167 748.667 632.333 744 622 c 0
 739.333 611.667 733.167 602.667 725.5 595 c 0
 717.833 587.333 708.833 581.167 698.5 576.5 c 0
 688.167 571.833 677 569.5 665 569.5 c 0
 653.667 569.5 642.833 571.833 632.5 576.5 c 0
 622.167 581.167 613.167 587.333 605.5 595 c 0
 597.833 602.667 591.667 611.667 587 622 c 0
 582.333 632.333 580 643.167 580 654.5 c 0
 580 666.5 582.333 677.667 587 688 c 0
 591.667 698.333 597.833 707.333 605.5 715 c 0
 613.167 722.667 622.167 728.833 632.5 733.5 c 0
 642.833 738.167 653.667 740.5 665 740.5 c 0
404.5 740 m 0
 416.5 740 427.667 737.667 438 733 c 0
 448.333 728.333 457.333 722.167 465 714.5 c 0
 472.667 706.833 478.833 697.833 483.5 687.5 c 0
 488.167 677.167 490.5 666 490.5 654 c 0
 490.5 642.667 488.167 631.833 483.5 621.5 c 0
 478.833 611.167 472.667 602.167 465 594.5 c 0
 457.333 586.833 448.333 580.667 438 576 c 0
 427.667 571.333 416.5 569 404.5 569 c 0
 393.167 569 382.333 571.333 372 576 c 0
 361.667 580.667 352.667 586.833 345 594.5 c 0
 337.333 602.167 331.167 611.167 326.5 621.5 c 0
 321.833 631.833 319.5 642.667 319.5 654 c 0
 319.5 666 321.833 677.167 326.5 687.5 c 0
 331.167 697.833 337.333 706.833 345 714.5 c 0
 352.667 722.167 361.667 728.333 372 733 c 0
 382.333 737.667 393.167 740 404.5 740 c 0
665 1000 m 0
 677 1000 688.167 997.667 698.5 993 c 0
 708.833 988.333 717.833 982.167 725.5 974.5 c 0
 733.167 966.833 739.333 957.833 744 947.5 c 0
 748.667 937.167 751 926 751 914 c 0
 751 902.667 748.667 891.833 744 881.5 c 0
 739.333 871.167 733.167 862.167 725.5 854.5 c 0
 717.833 846.833 708.833 840.667 698.5 836 c 0
 688.167 831.333 677 829 665 829 c 0
 653.667 829 642.833 831.333 632.5 836 c 0
 622.167 840.667 613.167 846.833 605.5 854.5 c 0
 597.833 862.167 591.667 871.167 587 881.5 c 0
 582.333 891.833 580 902.667 580 914 c 0
 580 926 582.333 937.167 587 947.5 c 0
 591.667 957.833 597.833 966.833 605.5 974.5 c 0
 613.167 982.167 622.167 988.333 632.5 993 c 0
 642.833 997.667 653.667 1000 665 1000 c 0
EndSplineSet
MinimumDistance: x4,-1 
EndChar
StartChar: uni283F
Encoding: 10303 10303
Width: 800
VWidth: 1024
Flags: W
HStem: 309.5 171<399 415 655 671> 569 171<399 415 655 671> 829.5 171<399 415 655 671>
VStem: 319 171<389 405 645 661 901.79 917> 580 171<389 405 645 661 901.338 917>
Fore
665 480.5 m 0
 677 480.5 688.167 478.167 698.5 473.5 c 0
 708.833 468.833 717.833 462.667 725.5 455 c 0
 733.167 447.333 739.333 438.333 744 428 c 0
 748.667 417.667 751 406.5 751 394.5 c 0
 751 383.167 748.667 372.333 744 362 c 0
 739.333 351.667 733.167 342.667 725.5 335 c 0
 717.833 327.333 708.833 321.167 698.5 316.5 c 0
 688.167 311.833 677 309.5 665 309.5 c 0
 653.667 309.5 642.833 311.833 632.5 316.5 c 0
 622.167 321.167 613.167 327.333 605.5 335 c 0
 597.833 342.667 591.667 351.667 587 362 c 0
 582.333 372.333 580 383.167 580 394.5 c 0
 580 406.5 582.333 417.667 587 428 c 0
 591.667 438.333 597.833 447.333 605.5 455 c 0
 613.167 462.667 622.167 468.833 632.5 473.5 c 0
 642.833 478.167 653.667 480.5 665 480.5 c 0
404 480.5 m 0
 416 480.5 427.167 478.167 437.5 473.5 c 0
 447.833 468.833 456.833 462.667 464.5 455 c 0
 472.167 447.333 478.333 438.333 483 428 c 0
 487.667 417.667 490 406.5 490 394.5 c 0
 490 383.167 487.667 372.333 483 362 c 0
 478.333 351.667 472.167 342.667 464.5 335 c 0
 456.833 327.333 447.833 321.167 437.5 316.5 c 0
 427.167 311.833 416 309.5 404 309.5 c 0
 392.667 309.5 381.833 311.833 371.5 316.5 c 0
 361.167 321.167 352.167 327.333 344.5 335 c 0
 336.833 342.667 330.667 351.667 326 362 c 0
 321.333 372.333 319 383.167 319 394.5 c 0
 319 406.5 321.333 417.667 326 428 c 0
 330.667 438.333 336.833 447.333 344.5 455 c 0
 352.167 462.667 361.167 468.833 371.5 473.5 c 0
 381.833 478.167 392.667 480.5 404 480.5 c 0
665 740.5 m 0
 677 740.5 688.167 738.167 698.5 733.5 c 0
 708.833 728.833 717.833 722.667 725.5 715 c 0
 733.167 707.333 739.333 698.333 744 688 c 0
 748.667 677.667 751 666.5 751 654.5 c 0
 751 643.167 748.667 632.333 744 622 c 0
 739.333 611.667 733.167 602.667 725.5 595 c 0
 717.833 587.333 708.833 581.167 698.5 576.5 c 0
 688.167 571.833 677 569.5 665 569.5 c 0
 653.667 569.5 642.833 571.833 632.5 576.5 c 0
 622.167 581.167 613.167 587.333 605.5 595 c 0
 597.833 602.667 591.667 611.667 587 622 c 0
 582.333 632.333 580 643.167 580 654.5 c 0
 580 666.5 582.333 677.667 587 688 c 0
 591.667 698.333 597.833 707.333 605.5 715 c 0
 613.167 722.667 622.167 728.833 632.5 733.5 c 0
 642.833 738.167 653.667 740.5 665 740.5 c 0
404.5 740 m 0
 416.5 740 427.667 737.667 438 733 c 0
 448.333 728.333 457.333 722.167 465 714.5 c 0
 472.667 706.833 478.833 697.833 483.5 687.5 c 0
 488.167 677.167 490.5 666 490.5 654 c 0
 490.5 642.667 488.167 631.833 483.5 621.5 c 0
 478.833 611.167 472.667 602.167 465 594.5 c 0
 457.333 586.833 448.333 580.667 438 576 c 0
 427.667 571.333 416.5 569 404.5 569 c 0
 393.167 569 382.333 571.333 372 576 c 0
 361.667 580.667 352.667 586.833 345 594.5 c 0
 337.333 602.167 331.167 611.167 326.5 621.5 c 0
 321.833 631.833 319.5 642.667 319.5 654 c 0
 319.5 666 321.833 677.167 326.5 687.5 c 0
 331.167 697.833 337.333 706.833 345 714.5 c 0
 352.667 722.167 361.667 728.333 372 733 c 0
 382.333 737.667 393.167 740 404.5 740 c 0
665 1000 m 0
 677 1000 688.167 997.667 698.5 993 c 0
 708.833 988.333 717.833 982.167 725.5 974.5 c 0
 733.167 966.833 739.333 957.833 744 947.5 c 0
 748.667 937.167 751 926 751 914 c 0
 751 902.667 748.667 891.833 744 881.5 c 0
 739.333 871.167 733.167 862.167 725.5 854.5 c 0
 717.833 846.833 708.833 840.667 698.5 836 c 0
 688.167 831.333 677 829 665 829 c 0
 653.667 829 642.833 831.333 632.5 836 c 0
 622.167 840.667 613.167 846.833 605.5 854.5 c 0
 597.833 862.167 591.667 871.167 587 881.5 c 0
 582.333 891.833 580 902.667 580 914 c 0
 580 926 582.333 937.167 587 947.5 c 0
 591.667 957.833 597.833 966.833 605.5 974.5 c 0
 613.167 982.167 622.167 988.333 632.5 993 c 0
 642.833 997.667 653.667 1000 665 1000 c 0
405 1000.5 m 0
 417 1000.5 428.167 998.167 438.5 993.5 c 0
 448.833 988.833 457.833 982.667 465.5 975 c 0
 473.167 967.333 479.333 958.333 484 948 c 0
 488.667 937.667 491 926.5 491 914.5 c 0
 491 903.167 488.667 892.333 484 882 c 0
 479.333 871.667 473.167 862.667 465.5 855 c 0
 457.833 847.333 448.833 841.167 438.5 836.5 c 0
 428.167 831.833 417 829.5 405 829.5 c 0
 393.667 829.5 382.833 831.833 372.5 836.5 c 0
 362.167 841.167 353.167 847.333 345.5 855 c 0
 337.833 862.667 331.667 871.667 327 882 c 0
 322.333 892.333 320 903.167 320 914.5 c 0
 320 926.5 322.333 937.667 327 948 c 0
 331.667 958.333 337.833 967.333 345.5 975 c 0
 353.167 982.667 362.167 988.833 372.5 993.5 c 0
 382.833 998.167 393.667 1000.5 405 1000.5 c 0
EndSplineSet
MinimumDistance: x4,-1 
EndChar
StartChar: uni2840
Encoding: 10304 10304
Width: 800
VWidth: 1024
Flags: W
HStem: 49 171<399 415>
VStem: 319.5 171<129 145>
Fore
404.5 220 m 0
 416.5 220 427.667 217.667 438 213 c 0
 448.333 208.333 457.333 202.167 465 194.5 c 0
 472.667 186.833 478.833 177.833 483.5 167.5 c 0
 488.167 157.167 490.5 146 490.5 134 c 0
 490.5 122.667 488.167 111.833 483.5 101.5 c 0
 478.833 91.167 472.667 82.167 465 74.5 c 0
 457.333 66.833 448.333 60.667 438 56 c 0
 427.667 51.333 416.5 49 404.5 49 c 0
 393.167 49 382.333 51.333 372 56 c 0
 361.667 60.667 352.667 66.833 345 74.5 c 0
 337.333 82.167 331.167 91.167 326.5 101.5 c 0
 321.833 111.833 319.5 122.667 319.5 134 c 0
 319.5 146 321.833 157.167 326.5 167.5 c 0
 331.167 177.833 337.333 186.833 345 194.5 c 0
 352.667 202.167 361.667 208.333 372 213 c 0
 382.333 217.667 393.167 220 404.5 220 c 0
EndSplineSet
MinimumDistance: x4,-1 
EndChar
StartChar: uni2841
Encoding: 10305 10305
Width: 800
VWidth: 1024
Flags: W
HStem: 49 171<399 415> 829.5 171<399 415>
VStem: 319.5 171<129 145 901.79 916>
Fore
404.5 220 m 0
 416.5 220 427.667 217.667 438 213 c 0
 448.333 208.333 457.333 202.167 465 194.5 c 0
 472.667 186.833 478.833 177.833 483.5 167.5 c 0
 488.167 157.167 490.5 146 490.5 134 c 0
 490.5 122.667 488.167 111.833 483.5 101.5 c 0
 478.833 91.167 472.667 82.167 465 74.5 c 0
 457.333 66.833 448.333 60.667 438 56 c 0
 427.667 51.333 416.5 49 404.5 49 c 0
 393.167 49 382.333 51.333 372 56 c 0
 361.667 60.667 352.667 66.833 345 74.5 c 0
 337.333 82.167 331.167 91.167 326.5 101.5 c 0
 321.833 111.833 319.5 122.667 319.5 134 c 0
 319.5 146 321.833 157.167 326.5 167.5 c 0
 331.167 177.833 337.333 186.833 345 194.5 c 0
 352.667 202.167 361.667 208.333 372 213 c 0
 382.333 217.667 393.167 220 404.5 220 c 0
405 1000.5 m 0
 417 1000.5 428.167 998.167 438.5 993.5 c 0
 448.833 988.833 457.833 982.667 465.5 975 c 0
 473.167 967.333 479.333 958.333 484 948 c 0
 488.667 937.667 491 926.5 491 914.5 c 0
 491 903.167 488.667 892.333 484 882 c 0
 479.333 871.667 473.167 862.667 465.5 855 c 0
 457.833 847.333 448.833 841.167 438.5 836.5 c 0
 428.167 831.833 417 829.5 405 829.5 c 0
 393.667 829.5 382.833 831.833 372.5 836.5 c 0
 362.167 841.167 353.167 847.333 345.5 855 c 0
 337.833 862.667 331.667 871.667 327 882 c 0
 322.333 892.333 320 903.167 320 914.5 c 0
 320 926.5 322.333 937.667 327 948 c 0
 331.667 958.333 337.833 967.333 345.5 975 c 0
 353.167 982.667 362.167 988.833 372.5 993.5 c 0
 382.833 998.167 393.667 1000.5 405 1000.5 c 0
EndSplineSet
MinimumDistance: x4,-1 
EndChar
StartChar: uni2842
Encoding: 10306 10306
Width: 800
VWidth: 1024
Flags: W
HStem: 49 171<399 415> 569 171<399 415>
VStem: 319.5 171<129 145 641.338 657>
Fore
404.5 220 m 0
 416.5 220 427.667 217.667 438 213 c 0
 448.333 208.333 457.333 202.167 465 194.5 c 0
 472.667 186.833 478.833 177.833 483.5 167.5 c 0
 488.167 157.167 490.5 146 490.5 134 c 0
 490.5 122.667 488.167 111.833 483.5 101.5 c 0
 478.833 91.167 472.667 82.167 465 74.5 c 0
 457.333 66.833 448.333 60.667 438 56 c 0
 427.667 51.333 416.5 49 404.5 49 c 0
 393.167 49 382.333 51.333 372 56 c 0
 361.667 60.667 352.667 66.833 345 74.5 c 0
 337.333 82.167 331.167 91.167 326.5 101.5 c 0
 321.833 111.833 319.5 122.667 319.5 134 c 0
 319.5 146 321.833 157.167 326.5 167.5 c 0
 331.167 177.833 337.333 186.833 345 194.5 c 0
 352.667 202.167 361.667 208.333 372 213 c 0
 382.333 217.667 393.167 220 404.5 220 c 0
404.5 740 m 0
 416.5 740 427.667 737.667 438 733 c 0
 448.333 728.333 457.333 722.167 465 714.5 c 0
 472.667 706.833 478.833 697.833 483.5 687.5 c 0
 488.167 677.167 490.5 666 490.5 654 c 0
 490.5 642.667 488.167 631.833 483.5 621.5 c 0
 478.833 611.167 472.667 602.167 465 594.5 c 0
 457.333 586.833 448.333 580.667 438 576 c 0
 427.667 571.333 416.5 569 404.5 569 c 0
 393.167 569 382.333 571.333 372 576 c 0
 361.667 580.667 352.667 586.833 345 594.5 c 0
 337.333 602.167 331.167 611.167 326.5 621.5 c 0
 321.833 631.833 319.5 642.667 319.5 654 c 0
 319.5 666 321.833 677.167 326.5 687.5 c 0
 331.167 697.833 337.333 706.833 345 714.5 c 0
 352.667 722.167 361.667 728.333 372 733 c 0
 382.333 737.667 393.167 740 404.5 740 c 0
EndSplineSet
MinimumDistance: x4,-1 
EndChar
StartChar: uni2843
Encoding: 10307 10307
Width: 800
VWidth: 1024
Flags: W
HStem: 49 171<399 415> 569 171<399 415> 829.5 171<399 415>
VStem: 319.5 171<129 145 641.338 657 901.79 916>
Fore
404.5 220 m 0
 416.5 220 427.667 217.667 438 213 c 0
 448.333 208.333 457.333 202.167 465 194.5 c 0
 472.667 186.833 478.833 177.833 483.5 167.5 c 0
 488.167 157.167 490.5 146 490.5 134 c 0
 490.5 122.667 488.167 111.833 483.5 101.5 c 0
 478.833 91.167 472.667 82.167 465 74.5 c 0
 457.333 66.833 448.333 60.667 438 56 c 0
 427.667 51.333 416.5 49 404.5 49 c 0
 393.167 49 382.333 51.333 372 56 c 0
 361.667 60.667 352.667 66.833 345 74.5 c 0
 337.333 82.167 331.167 91.167 326.5 101.5 c 0
 321.833 111.833 319.5 122.667 319.5 134 c 0
 319.5 146 321.833 157.167 326.5 167.5 c 0
 331.167 177.833 337.333 186.833 345 194.5 c 0
 352.667 202.167 361.667 208.333 372 213 c 0
 382.333 217.667 393.167 220 404.5 220 c 0
404.5 740 m 0
 416.5 740 427.667 737.667 438 733 c 0
 448.333 728.333 457.333 722.167 465 714.5 c 0
 472.667 706.833 478.833 697.833 483.5 687.5 c 0
 488.167 677.167 490.5 666 490.5 654 c 0
 490.5 642.667 488.167 631.833 483.5 621.5 c 0
 478.833 611.167 472.667 602.167 465 594.5 c 0
 457.333 586.833 448.333 580.667 438 576 c 0
 427.667 571.333 416.5 569 404.5 569 c 0
 393.167 569 382.333 571.333 372 576 c 0
 361.667 580.667 352.667 586.833 345 594.5 c 0
 337.333 602.167 331.167 611.167 326.5 621.5 c 0
 321.833 631.833 319.5 642.667 319.5 654 c 0
 319.5 666 321.833 677.167 326.5 687.5 c 0
 331.167 697.833 337.333 706.833 345 714.5 c 0
 352.667 722.167 361.667 728.333 372 733 c 0
 382.333 737.667 393.167 740 404.5 740 c 0
405 1000.5 m 0
 417 1000.5 428.167 998.167 438.5 993.5 c 0
 448.833 988.833 457.833 982.667 465.5 975 c 0
 473.167 967.333 479.333 958.333 484 948 c 0
 488.667 937.667 491 926.5 491 914.5 c 0
 491 903.167 488.667 892.333 484 882 c 0
 479.333 871.667 473.167 862.667 465.5 855 c 0
 457.833 847.333 448.833 841.167 438.5 836.5 c 0
 428.167 831.833 417 829.5 405 829.5 c 0
 393.667 829.5 382.833 831.833 372.5 836.5 c 0
 362.167 841.167 353.167 847.333 345.5 855 c 0
 337.833 862.667 331.667 871.667 327 882 c 0
 322.333 892.333 320 903.167 320 914.5 c 0
 320 926.5 322.333 937.667 327 948 c 0
 331.667 958.333 337.833 967.333 345.5 975 c 0
 353.167 982.667 362.167 988.833 372.5 993.5 c 0
 382.833 998.167 393.667 1000.5 405 1000.5 c 0
EndSplineSet
MinimumDistance: x4,-1 
EndChar
StartChar: uni2844
Encoding: 10308 10308
Width: 800
VWidth: 1024
Flags: W
HStem: 49 171<399 415> 309.5 171<399 415>
VStem: 319.5 171<129 145 385 401>
Fore
404.5 220 m 0
 416.5 220 427.667 217.667 438 213 c 0
 448.333 208.333 457.333 202.167 465 194.5 c 0
 472.667 186.833 478.833 177.833 483.5 167.5 c 0
 488.167 157.167 490.5 146 490.5 134 c 0
 490.5 122.667 488.167 111.833 483.5 101.5 c 0
 478.833 91.167 472.667 82.167 465 74.5 c 0
 457.333 66.833 448.333 60.667 438 56 c 0
 427.667 51.333 416.5 49 404.5 49 c 0
 393.167 49 382.333 51.333 372 56 c 0
 361.667 60.667 352.667 66.833 345 74.5 c 0
 337.333 82.167 331.167 91.167 326.5 101.5 c 0
 321.833 111.833 319.5 122.667 319.5 134 c 0
 319.5 146 321.833 157.167 326.5 167.5 c 0
 331.167 177.833 337.333 186.833 345 194.5 c 0
 352.667 202.167 361.667 208.333 372 213 c 0
 382.333 217.667 393.167 220 404.5 220 c 0
404 480.5 m 0
 416 480.5 427.167 478.167 437.5 473.5 c 0
 447.833 468.833 456.833 462.667 464.5 455 c 0
 472.167 447.333 478.333 438.333 483 428 c 0
 487.667 417.667 490 406.5 490 394.5 c 0
 490 383.167 487.667 372.333 483 362 c 0
 478.333 351.667 472.167 342.667 464.5 335 c 0
 456.833 327.333 447.833 321.167 437.5 316.5 c 0
 427.167 311.833 416 309.5 404 309.5 c 0
 392.667 309.5 381.833 311.833 371.5 316.5 c 0
 361.167 321.167 352.167 327.333 344.5 335 c 0
 336.833 342.667 330.667 351.667 326 362 c 0
 321.333 372.333 319 383.167 319 394.5 c 0
 319 406.5 321.333 417.667 326 428 c 0
 330.667 438.333 336.833 447.333 344.5 455 c 0
 352.167 462.667 361.167 468.833 371.5 473.5 c 0
 381.833 478.167 392.667 480.5 404 480.5 c 0
EndSplineSet
MinimumDistance: x4,-1 
EndChar
StartChar: uni2845
Encoding: 10309 10309
Width: 800
VWidth: 1024
Flags: W
HStem: 49 171<399 415> 309.5 171<399 415> 829.5 171<399 415>
VStem: 319.5 171<129 145 385 401 901.79 916>
Fore
404.5 220 m 0
 416.5 220 427.667 217.667 438 213 c 0
 448.333 208.333 457.333 202.167 465 194.5 c 0
 472.667 186.833 478.833 177.833 483.5 167.5 c 0
 488.167 157.167 490.5 146 490.5 134 c 0
 490.5 122.667 488.167 111.833 483.5 101.5 c 0
 478.833 91.167 472.667 82.167 465 74.5 c 0
 457.333 66.833 448.333 60.667 438 56 c 0
 427.667 51.333 416.5 49 404.5 49 c 0
 393.167 49 382.333 51.333 372 56 c 0
 361.667 60.667 352.667 66.833 345 74.5 c 0
 337.333 82.167 331.167 91.167 326.5 101.5 c 0
 321.833 111.833 319.5 122.667 319.5 134 c 0
 319.5 146 321.833 157.167 326.5 167.5 c 0
 331.167 177.833 337.333 186.833 345 194.5 c 0
 352.667 202.167 361.667 208.333 372 213 c 0
 382.333 217.667 393.167 220 404.5 220 c 0
404 480.5 m 0
 416 480.5 427.167 478.167 437.5 473.5 c 0
 447.833 468.833 456.833 462.667 464.5 455 c 0
 472.167 447.333 478.333 438.333 483 428 c 0
 487.667 417.667 490 406.5 490 394.5 c 0
 490 383.167 487.667 372.333 483 362 c 0
 478.333 351.667 472.167 342.667 464.5 335 c 0
 456.833 327.333 447.833 321.167 437.5 316.5 c 0
 427.167 311.833 416 309.5 404 309.5 c 0
 392.667 309.5 381.833 311.833 371.5 316.5 c 0
 361.167 321.167 352.167 327.333 344.5 335 c 0
 336.833 342.667 330.667 351.667 326 362 c 0
 321.333 372.333 319 383.167 319 394.5 c 0
 319 406.5 321.333 417.667 326 428 c 0
 330.667 438.333 336.833 447.333 344.5 455 c 0
 352.167 462.667 361.167 468.833 371.5 473.5 c 0
 381.833 478.167 392.667 480.5 404 480.5 c 0
405 1000.5 m 0
 417 1000.5 428.167 998.167 438.5 993.5 c 0
 448.833 988.833 457.833 982.667 465.5 975 c 0
 473.167 967.333 479.333 958.333 484 948 c 0
 488.667 937.667 491 926.5 491 914.5 c 0
 491 903.167 488.667 892.333 484 882 c 0
 479.333 871.667 473.167 862.667 465.5 855 c 0
 457.833 847.333 448.833 841.167 438.5 836.5 c 0
 428.167 831.833 417 829.5 405 829.5 c 0
 393.667 829.5 382.833 831.833 372.5 836.5 c 0
 362.167 841.167 353.167 847.333 345.5 855 c 0
 337.833 862.667 331.667 871.667 327 882 c 0
 322.333 892.333 320 903.167 320 914.5 c 0
 320 926.5 322.333 937.667 327 948 c 0
 331.667 958.333 337.833 967.333 345.5 975 c 0
 353.167 982.667 362.167 988.833 372.5 993.5 c 0
 382.833 998.167 393.667 1000.5 405 1000.5 c 0
EndSplineSet
MinimumDistance: x4,-1 
EndChar
StartChar: uni2846
Encoding: 10310 10310
Width: 800
VWidth: 1024
Flags: W
HStem: 49 171<399 415> 309.5 171<399 415> 569 171<399 415>
VStem: 319.5 171<129 145 385 401 641.338 657>
Fore
404.5 220 m 0
 416.5 220 427.667 217.667 438 213 c 0
 448.333 208.333 457.333 202.167 465 194.5 c 0
 472.667 186.833 478.833 177.833 483.5 167.5 c 0
 488.167 157.167 490.5 146 490.5 134 c 0
 490.5 122.667 488.167 111.833 483.5 101.5 c 0
 478.833 91.167 472.667 82.167 465 74.5 c 0
 457.333 66.833 448.333 60.667 438 56 c 0
 427.667 51.333 416.5 49 404.5 49 c 0
 393.167 49 382.333 51.333 372 56 c 0
 361.667 60.667 352.667 66.833 345 74.5 c 0
 337.333 82.167 331.167 91.167 326.5 101.5 c 0
 321.833 111.833 319.5 122.667 319.5 134 c 0
 319.5 146 321.833 157.167 326.5 167.5 c 0
 331.167 177.833 337.333 186.833 345 194.5 c 0
 352.667 202.167 361.667 208.333 372 213 c 0
 382.333 217.667 393.167 220 404.5 220 c 0
404 480.5 m 0
 416 480.5 427.167 478.167 437.5 473.5 c 0
 447.833 468.833 456.833 462.667 464.5 455 c 0
 472.167 447.333 478.333 438.333 483 428 c 0
 487.667 417.667 490 406.5 490 394.5 c 0
 490 383.167 487.667 372.333 483 362 c 0
 478.333 351.667 472.167 342.667 464.5 335 c 0
 456.833 327.333 447.833 321.167 437.5 316.5 c 0
 427.167 311.833 416 309.5 404 309.5 c 0
 392.667 309.5 381.833 311.833 371.5 316.5 c 0
 361.167 321.167 352.167 327.333 344.5 335 c 0
 336.833 342.667 330.667 351.667 326 362 c 0
 321.333 372.333 319 383.167 319 394.5 c 0
 319 406.5 321.333 417.667 326 428 c 0
 330.667 438.333 336.833 447.333 344.5 455 c 0
 352.167 462.667 361.167 468.833 371.5 473.5 c 0
 381.833 478.167 392.667 480.5 404 480.5 c 0
404.5 740 m 0
 416.5 740 427.667 737.667 438 733 c 0
 448.333 728.333 457.333 722.167 465 714.5 c 0
 472.667 706.833 478.833 697.833 483.5 687.5 c 0
 488.167 677.167 490.5 666 490.5 654 c 0
 490.5 642.667 488.167 631.833 483.5 621.5 c 0
 478.833 611.167 472.667 602.167 465 594.5 c 0
 457.333 586.833 448.333 580.667 438 576 c 0
 427.667 571.333 416.5 569 404.5 569 c 0
 393.167 569 382.333 571.333 372 576 c 0
 361.667 580.667 352.667 586.833 345 594.5 c 0
 337.333 602.167 331.167 611.167 326.5 621.5 c 0
 321.833 631.833 319.5 642.667 319.5 654 c 0
 319.5 666 321.833 677.167 326.5 687.5 c 0
 331.167 697.833 337.333 706.833 345 714.5 c 0
 352.667 722.167 361.667 728.333 372 733 c 0
 382.333 737.667 393.167 740 404.5 740 c 0
EndSplineSet
MinimumDistance: x4,-1 
EndChar
StartChar: uni2847
Encoding: 10311 10311
Width: 800
VWidth: 1024
Flags: W
HStem: 49 171<399 415> 309.5 171<399 415> 569 171<399 415> 829.5 171<399 415>
VStem: 319.5 171<129 145 385 401 641.338 657 901.79 916>
Fore
404.5 220 m 0
 416.5 220 427.667 217.667 438 213 c 0
 448.333 208.333 457.333 202.167 465 194.5 c 0
 472.667 186.833 478.833 177.833 483.5 167.5 c 0
 488.167 157.167 490.5 146 490.5 134 c 0
 490.5 122.667 488.167 111.833 483.5 101.5 c 0
 478.833 91.167 472.667 82.167 465 74.5 c 0
 457.333 66.833 448.333 60.667 438 56 c 0
 427.667 51.333 416.5 49 404.5 49 c 0
 393.167 49 382.333 51.333 372 56 c 0
 361.667 60.667 352.667 66.833 345 74.5 c 0
 337.333 82.167 331.167 91.167 326.5 101.5 c 0
 321.833 111.833 319.5 122.667 319.5 134 c 0
 319.5 146 321.833 157.167 326.5 167.5 c 0
 331.167 177.833 337.333 186.833 345 194.5 c 0
 352.667 202.167 361.667 208.333 372 213 c 0
 382.333 217.667 393.167 220 404.5 220 c 0
404 480.5 m 0
 416 480.5 427.167 478.167 437.5 473.5 c 0
 447.833 468.833 456.833 462.667 464.5 455 c 0
 472.167 447.333 478.333 438.333 483 428 c 0
 487.667 417.667 490 406.5 490 394.5 c 0
 490 383.167 487.667 372.333 483 362 c 0
 478.333 351.667 472.167 342.667 464.5 335 c 0
 456.833 327.333 447.833 321.167 437.5 316.5 c 0
 427.167 311.833 416 309.5 404 309.5 c 0
 392.667 309.5 381.833 311.833 371.5 316.5 c 0
 361.167 321.167 352.167 327.333 344.5 335 c 0
 336.833 342.667 330.667 351.667 326 362 c 0
 321.333 372.333 319 383.167 319 394.5 c 0
 319 406.5 321.333 417.667 326 428 c 0
 330.667 438.333 336.833 447.333 344.5 455 c 0
 352.167 462.667 361.167 468.833 371.5 473.5 c 0
 381.833 478.167 392.667 480.5 404 480.5 c 0
404.5 740 m 0
 416.5 740 427.667 737.667 438 733 c 0
 448.333 728.333 457.333 722.167 465 714.5 c 0
 472.667 706.833 478.833 697.833 483.5 687.5 c 0
 488.167 677.167 490.5 666 490.5 654 c 0
 490.5 642.667 488.167 631.833 483.5 621.5 c 0
 478.833 611.167 472.667 602.167 465 594.5 c 0
 457.333 586.833 448.333 580.667 438 576 c 0
 427.667 571.333 416.5 569 404.5 569 c 0
 393.167 569 382.333 571.333 372 576 c 0
 361.667 580.667 352.667 586.833 345 594.5 c 0
 337.333 602.167 331.167 611.167 326.5 621.5 c 0
 321.833 631.833 319.5 642.667 319.5 654 c 0
 319.5 666 321.833 677.167 326.5 687.5 c 0
 331.167 697.833 337.333 706.833 345 714.5 c 0
 352.667 722.167 361.667 728.333 372 733 c 0
 382.333 737.667 393.167 740 404.5 740 c 0
405 1000.5 m 0
 417 1000.5 428.167 998.167 438.5 993.5 c 0
 448.833 988.833 457.833 982.667 465.5 975 c 0
 473.167 967.333 479.333 958.333 484 948 c 0
 488.667 937.667 491 926.5 491 914.5 c 0
 491 903.167 488.667 892.333 484 882 c 0
 479.333 871.667 473.167 862.667 465.5 855 c 0
 457.833 847.333 448.833 841.167 438.5 836.5 c 0
 428.167 831.833 417 829.5 405 829.5 c 0
 393.667 829.5 382.833 831.833 372.5 836.5 c 0
 362.167 841.167 353.167 847.333 345.5 855 c 0
 337.833 862.667 331.667 871.667 327 882 c 0
 322.333 892.333 320 903.167 320 914.5 c 0
 320 926.5 322.333 937.667 327 948 c 0
 331.667 958.333 337.833 967.333 345.5 975 c 0
 353.167 982.667 362.167 988.833 372.5 993.5 c 0
 382.833 998.167 393.667 1000.5 405 1000.5 c 0
EndSplineSet
MinimumDistance: x4,-1 
EndChar
StartChar: uni2848
Encoding: 10312 10312
Width: 800
VWidth: 1024
Flags: W
HStem: 49 171<399 415> 829 171<655 671>
VStem: 319.5 171<129 145> 580 171<901.338 916>
Fore
404.5 220 m 0
 416.5 220 427.667 217.667 438 213 c 0
 448.333 208.333 457.333 202.167 465 194.5 c 0
 472.667 186.833 478.833 177.833 483.5 167.5 c 0
 488.167 157.167 490.5 146 490.5 134 c 0
 490.5 122.667 488.167 111.833 483.5 101.5 c 0
 478.833 91.167 472.667 82.167 465 74.5 c 0
 457.333 66.833 448.333 60.667 438 56 c 0
 427.667 51.333 416.5 49 404.5 49 c 0
 393.167 49 382.333 51.333 372 56 c 0
 361.667 60.667 352.667 66.833 345 74.5 c 0
 337.333 82.167 331.167 91.167 326.5 101.5 c 0
 321.833 111.833 319.5 122.667 319.5 134 c 0
 319.5 146 321.833 157.167 326.5 167.5 c 0
 331.167 177.833 337.333 186.833 345 194.5 c 0
 352.667 202.167 361.667 208.333 372 213 c 0
 382.333 217.667 393.167 220 404.5 220 c 0
665 1000 m 0
 677 1000 688.167 997.667 698.5 993 c 0
 708.833 988.333 717.833 982.167 725.5 974.5 c 0
 733.167 966.833 739.333 957.833 744 947.5 c 0
 748.667 937.167 751 926 751 914 c 0
 751 902.667 748.667 891.833 744 881.5 c 0
 739.333 871.167 733.167 862.167 725.5 854.5 c 0
 717.833 846.833 708.833 840.667 698.5 836 c 0
 688.167 831.333 677 829 665 829 c 0
 653.667 829 642.833 831.333 632.5 836 c 0
 622.167 840.667 613.167 846.833 605.5 854.5 c 0
 597.833 862.167 591.667 871.167 587 881.5 c 0
 582.333 891.833 580 902.667 580 914 c 0
 580 926 582.333 937.167 587 947.5 c 0
 591.667 957.833 597.833 966.833 605.5 974.5 c 0
 613.167 982.167 622.167 988.333 632.5 993 c 0
 642.833 997.667 653.667 1000 665 1000 c 0
EndSplineSet
MinimumDistance: x20,-1 
EndChar
StartChar: uni2849
Encoding: 10313 10313
Width: 800
VWidth: 1024
Flags: W
HStem: 49 171<399 415> 829.5 171<399 415 655 671>
VStem: 319.5 171<129 145 901.79 916> 580 171<901.338 916>
Fore
404.5 220 m 0
 416.5 220 427.667 217.667 438 213 c 0
 448.333 208.333 457.333 202.167 465 194.5 c 0
 472.667 186.833 478.833 177.833 483.5 167.5 c 0
 488.167 157.167 490.5 146 490.5 134 c 0
 490.5 122.667 488.167 111.833 483.5 101.5 c 0
 478.833 91.167 472.667 82.167 465 74.5 c 0
 457.333 66.833 448.333 60.667 438 56 c 0
 427.667 51.333 416.5 49 404.5 49 c 0
 393.167 49 382.333 51.333 372 56 c 0
 361.667 60.667 352.667 66.833 345 74.5 c 0
 337.333 82.167 331.167 91.167 326.5 101.5 c 0
 321.833 111.833 319.5 122.667 319.5 134 c 0
 319.5 146 321.833 157.167 326.5 167.5 c 0
 331.167 177.833 337.333 186.833 345 194.5 c 0
 352.667 202.167 361.667 208.333 372 213 c 0
 382.333 217.667 393.167 220 404.5 220 c 0
665 1000 m 0
 677 1000 688.167 997.667 698.5 993 c 0
 708.833 988.333 717.833 982.167 725.5 974.5 c 0
 733.167 966.833 739.333 957.833 744 947.5 c 0
 748.667 937.167 751 926 751 914 c 0
 751 902.667 748.667 891.833 744 881.5 c 0
 739.333 871.167 733.167 862.167 725.5 854.5 c 0
 717.833 846.833 708.833 840.667 698.5 836 c 0
 688.167 831.333 677 829 665 829 c 0
 653.667 829 642.833 831.333 632.5 836 c 0
 622.167 840.667 613.167 846.833 605.5 854.5 c 0
 597.833 862.167 591.667 871.167 587 881.5 c 0
 582.333 891.833 580 902.667 580 914 c 0
 580 926 582.333 937.167 587 947.5 c 0
 591.667 957.833 597.833 966.833 605.5 974.5 c 0
 613.167 982.167 622.167 988.333 632.5 993 c 0
 642.833 997.667 653.667 1000 665 1000 c 0
405 1000.5 m 0
 417 1000.5 428.167 998.167 438.5 993.5 c 0
 448.833 988.833 457.833 982.667 465.5 975 c 0
 473.167 967.333 479.333 958.333 484 948 c 0
 488.667 937.667 491 926.5 491 914.5 c 0
 491 903.167 488.667 892.333 484 882 c 0
 479.333 871.667 473.167 862.667 465.5 855 c 0
 457.833 847.333 448.833 841.167 438.5 836.5 c 0
 428.167 831.833 417 829.5 405 829.5 c 0
 393.667 829.5 382.833 831.833 372.5 836.5 c 0
 362.167 841.167 353.167 847.333 345.5 855 c 0
 337.833 862.667 331.667 871.667 327 882 c 0
 322.333 892.333 320 903.167 320 914.5 c 0
 320 926.5 322.333 937.667 327 948 c 0
 331.667 958.333 337.833 967.333 345.5 975 c 0
 353.167 982.667 362.167 988.833 372.5 993.5 c 0
 382.833 998.167 393.667 1000.5 405 1000.5 c 0
EndSplineSet
MinimumDistance: x20,-1 
EndChar
StartChar: uni284A
Encoding: 10314 10314
Width: 800
VWidth: 1024
Flags: W
HStem: 49 171<399 415> 569 171<399 415> 829 171<655 671>
VStem: 319.5 171<129 145 641.338 657> 580 171<901.338 916>
Fore
404.5 220 m 0
 416.5 220 427.667 217.667 438 213 c 0
 448.333 208.333 457.333 202.167 465 194.5 c 0
 472.667 186.833 478.833 177.833 483.5 167.5 c 0
 488.167 157.167 490.5 146 490.5 134 c 0
 490.5 122.667 488.167 111.833 483.5 101.5 c 0
 478.833 91.167 472.667 82.167 465 74.5 c 0
 457.333 66.833 448.333 60.667 438 56 c 0
 427.667 51.333 416.5 49 404.5 49 c 0
 393.167 49 382.333 51.333 372 56 c 0
 361.667 60.667 352.667 66.833 345 74.5 c 0
 337.333 82.167 331.167 91.167 326.5 101.5 c 0
 321.833 111.833 319.5 122.667 319.5 134 c 0
 319.5 146 321.833 157.167 326.5 167.5 c 0
 331.167 177.833 337.333 186.833 345 194.5 c 0
 352.667 202.167 361.667 208.333 372 213 c 0
 382.333 217.667 393.167 220 404.5 220 c 0
404.5 740 m 0
 416.5 740 427.667 737.667 438 733 c 0
 448.333 728.333 457.333 722.167 465 714.5 c 0
 472.667 706.833 478.833 697.833 483.5 687.5 c 0
 488.167 677.167 490.5 666 490.5 654 c 0
 490.5 642.667 488.167 631.833 483.5 621.5 c 0
 478.833 611.167 472.667 602.167 465 594.5 c 0
 457.333 586.833 448.333 580.667 438 576 c 0
 427.667 571.333 416.5 569 404.5 569 c 0
 393.167 569 382.333 571.333 372 576 c 0
 361.667 580.667 352.667 586.833 345 594.5 c 0
 337.333 602.167 331.167 611.167 326.5 621.5 c 0
 321.833 631.833 319.5 642.667 319.5 654 c 0
 319.5 666 321.833 677.167 326.5 687.5 c 0
 331.167 697.833 337.333 706.833 345 714.5 c 0
 352.667 722.167 361.667 728.333 372 733 c 0
 382.333 737.667 393.167 740 404.5 740 c 0
665 1000 m 0
 677 1000 688.167 997.667 698.5 993 c 0
 708.833 988.333 717.833 982.167 725.5 974.5 c 0
 733.167 966.833 739.333 957.833 744 947.5 c 0
 748.667 937.167 751 926 751 914 c 0
 751 902.667 748.667 891.833 744 881.5 c 0
 739.333 871.167 733.167 862.167 725.5 854.5 c 0
 717.833 846.833 708.833 840.667 698.5 836 c 0
 688.167 831.333 677 829 665 829 c 0
 653.667 829 642.833 831.333 632.5 836 c 0
 622.167 840.667 613.167 846.833 605.5 854.5 c 0
 597.833 862.167 591.667 871.167 587 881.5 c 0
 582.333 891.833 580 902.667 580 914 c 0
 580 926 582.333 937.167 587 947.5 c 0
 591.667 957.833 597.833 966.833 605.5 974.5 c 0
 613.167 982.167 622.167 988.333 632.5 993 c 0
 642.833 997.667 653.667 1000 665 1000 c 0
EndSplineSet
MinimumDistance: x36,-1 
EndChar
StartChar: uni284B
Encoding: 10315 10315
Width: 800
VWidth: 1024
Flags: W
HStem: 49 171<399 415> 569 171<399 415> 829.5 171<399 415 655 671>
VStem: 319.5 171<129 145 641.338 657 901.79 916> 580 171<901.338 916>
Fore
404.5 220 m 0
 416.5 220 427.667 217.667 438 213 c 0
 448.333 208.333 457.333 202.167 465 194.5 c 0
 472.667 186.833 478.833 177.833 483.5 167.5 c 0
 488.167 157.167 490.5 146 490.5 134 c 0
 490.5 122.667 488.167 111.833 483.5 101.5 c 0
 478.833 91.167 472.667 82.167 465 74.5 c 0
 457.333 66.833 448.333 60.667 438 56 c 0
 427.667 51.333 416.5 49 404.5 49 c 0
 393.167 49 382.333 51.333 372 56 c 0
 361.667 60.667 352.667 66.833 345 74.5 c 0
 337.333 82.167 331.167 91.167 326.5 101.5 c 0
 321.833 111.833 319.5 122.667 319.5 134 c 0
 319.5 146 321.833 157.167 326.5 167.5 c 0
 331.167 177.833 337.333 186.833 345 194.5 c 0
 352.667 202.167 361.667 208.333 372 213 c 0
 382.333 217.667 393.167 220 404.5 220 c 0
404.5 740 m 0
 416.5 740 427.667 737.667 438 733 c 0
 448.333 728.333 457.333 722.167 465 714.5 c 0
 472.667 706.833 478.833 697.833 483.5 687.5 c 0
 488.167 677.167 490.5 666 490.5 654 c 0
 490.5 642.667 488.167 631.833 483.5 621.5 c 0
 478.833 611.167 472.667 602.167 465 594.5 c 0
 457.333 586.833 448.333 580.667 438 576 c 0
 427.667 571.333 416.5 569 404.5 569 c 0
 393.167 569 382.333 571.333 372 576 c 0
 361.667 580.667 352.667 586.833 345 594.5 c 0
 337.333 602.167 331.167 611.167 326.5 621.5 c 0
 321.833 631.833 319.5 642.667 319.5 654 c 0
 319.5 666 321.833 677.167 326.5 687.5 c 0
 331.167 697.833 337.333 706.833 345 714.5 c 0
 352.667 722.167 361.667 728.333 372 733 c 0
 382.333 737.667 393.167 740 404.5 740 c 0
665 1000 m 0
 677 1000 688.167 997.667 698.5 993 c 0
 708.833 988.333 717.833 982.167 725.5 974.5 c 0
 733.167 966.833 739.333 957.833 744 947.5 c 0
 748.667 937.167 751 926 751 914 c 0
 751 902.667 748.667 891.833 744 881.5 c 0
 739.333 871.167 733.167 862.167 725.5 854.5 c 0
 717.833 846.833 708.833 840.667 698.5 836 c 0
 688.167 831.333 677 829 665 829 c 0
 653.667 829 642.833 831.333 632.5 836 c 0
 622.167 840.667 613.167 846.833 605.5 854.5 c 0
 597.833 862.167 591.667 871.167 587 881.5 c 0
 582.333 891.833 580 902.667 580 914 c 0
 580 926 582.333 937.167 587 947.5 c 0
 591.667 957.833 597.833 966.833 605.5 974.5 c 0
 613.167 982.167 622.167 988.333 632.5 993 c 0
 642.833 997.667 653.667 1000 665 1000 c 0
405 1000.5 m 0
 417 1000.5 428.167 998.167 438.5 993.5 c 0
 448.833 988.833 457.833 982.667 465.5 975 c 0
 473.167 967.333 479.333 958.333 484 948 c 0
 488.667 937.667 491 926.5 491 914.5 c 0
 491 903.167 488.667 892.333 484 882 c 0
 479.333 871.667 473.167 862.667 465.5 855 c 0
 457.833 847.333 448.833 841.167 438.5 836.5 c 0
 428.167 831.833 417 829.5 405 829.5 c 0
 393.667 829.5 382.833 831.833 372.5 836.5 c 0
 362.167 841.167 353.167 847.333 345.5 855 c 0
 337.833 862.667 331.667 871.667 327 882 c 0
 322.333 892.333 320 903.167 320 914.5 c 0
 320 926.5 322.333 937.667 327 948 c 0
 331.667 958.333 337.833 967.333 345.5 975 c 0
 353.167 982.667 362.167 988.833 372.5 993.5 c 0
 382.833 998.167 393.667 1000.5 405 1000.5 c 0
EndSplineSet
MinimumDistance: x36,-1 
EndChar
StartChar: uni284C
Encoding: 10316 10316
Width: 800
VWidth: 1024
Flags: W
HStem: 49 171<399 415> 309.5 171<399 415> 829 171<655 671>
VStem: 319.5 171<129 145 385 401> 580 171<901.338 916>
Fore
404.5 220 m 0
 416.5 220 427.667 217.667 438 213 c 0
 448.333 208.333 457.333 202.167 465 194.5 c 0
 472.667 186.833 478.833 177.833 483.5 167.5 c 0
 488.167 157.167 490.5 146 490.5 134 c 0
 490.5 122.667 488.167 111.833 483.5 101.5 c 0
 478.833 91.167 472.667 82.167 465 74.5 c 0
 457.333 66.833 448.333 60.667 438 56 c 0
 427.667 51.333 416.5 49 404.5 49 c 0
 393.167 49 382.333 51.333 372 56 c 0
 361.667 60.667 352.667 66.833 345 74.5 c 0
 337.333 82.167 331.167 91.167 326.5 101.5 c 0
 321.833 111.833 319.5 122.667 319.5 134 c 0
 319.5 146 321.833 157.167 326.5 167.5 c 0
 331.167 177.833 337.333 186.833 345 194.5 c 0
 352.667 202.167 361.667 208.333 372 213 c 0
 382.333 217.667 393.167 220 404.5 220 c 0
404 480.5 m 0
 416 480.5 427.167 478.167 437.5 473.5 c 0
 447.833 468.833 456.833 462.667 464.5 455 c 0
 472.167 447.333 478.333 438.333 483 428 c 0
 487.667 417.667 490 406.5 490 394.5 c 0
 490 383.167 487.667 372.333 483 362 c 0
 478.333 351.667 472.167 342.667 464.5 335 c 0
 456.833 327.333 447.833 321.167 437.5 316.5 c 0
 427.167 311.833 416 309.5 404 309.5 c 0
 392.667 309.5 381.833 311.833 371.5 316.5 c 0
 361.167 321.167 352.167 327.333 344.5 335 c 0
 336.833 342.667 330.667 351.667 326 362 c 0
 321.333 372.333 319 383.167 319 394.5 c 0
 319 406.5 321.333 417.667 326 428 c 0
 330.667 438.333 336.833 447.333 344.5 455 c 0
 352.167 462.667 361.167 468.833 371.5 473.5 c 0
 381.833 478.167 392.667 480.5 404 480.5 c 0
665 1000 m 0
 677 1000 688.167 997.667 698.5 993 c 0
 708.833 988.333 717.833 982.167 725.5 974.5 c 0
 733.167 966.833 739.333 957.833 744 947.5 c 0
 748.667 937.167 751 926 751 914 c 0
 751 902.667 748.667 891.833 744 881.5 c 0
 739.333 871.167 733.167 862.167 725.5 854.5 c 0
 717.833 846.833 708.833 840.667 698.5 836 c 0
 688.167 831.333 677 829 665 829 c 0
 653.667 829 642.833 831.333 632.5 836 c 0
 622.167 840.667 613.167 846.833 605.5 854.5 c 0
 597.833 862.167 591.667 871.167 587 881.5 c 0
 582.333 891.833 580 902.667 580 914 c 0
 580 926 582.333 937.167 587 947.5 c 0
 591.667 957.833 597.833 966.833 605.5 974.5 c 0
 613.167 982.167 622.167 988.333 632.5 993 c 0
 642.833 997.667 653.667 1000 665 1000 c 0
EndSplineSet
MinimumDistance: x36,-1 
EndChar
StartChar: uni284D
Encoding: 10317 10317
Width: 800
VWidth: 1024
Flags: W
HStem: 49 171<399 415> 309.5 171<399 415> 829.5 171<399 415 655 671>
VStem: 319.5 171<129 145 385 401 901.79 916> 580 171<901.338 916>
Fore
404.5 220 m 0
 416.5 220 427.667 217.667 438 213 c 0
 448.333 208.333 457.333 202.167 465 194.5 c 0
 472.667 186.833 478.833 177.833 483.5 167.5 c 0
 488.167 157.167 490.5 146 490.5 134 c 0
 490.5 122.667 488.167 111.833 483.5 101.5 c 0
 478.833 91.167 472.667 82.167 465 74.5 c 0
 457.333 66.833 448.333 60.667 438 56 c 0
 427.667 51.333 416.5 49 404.5 49 c 0
 393.167 49 382.333 51.333 372 56 c 0
 361.667 60.667 352.667 66.833 345 74.5 c 0
 337.333 82.167 331.167 91.167 326.5 101.5 c 0
 321.833 111.833 319.5 122.667 319.5 134 c 0
 319.5 146 321.833 157.167 326.5 167.5 c 0
 331.167 177.833 337.333 186.833 345 194.5 c 0
 352.667 202.167 361.667 208.333 372 213 c 0
 382.333 217.667 393.167 220 404.5 220 c 0
404 480.5 m 0
 416 480.5 427.167 478.167 437.5 473.5 c 0
 447.833 468.833 456.833 462.667 464.5 455 c 0
 472.167 447.333 478.333 438.333 483 428 c 0
 487.667 417.667 490 406.5 490 394.5 c 0
 490 383.167 487.667 372.333 483 362 c 0
 478.333 351.667 472.167 342.667 464.5 335 c 0
 456.833 327.333 447.833 321.167 437.5 316.5 c 0
 427.167 311.833 416 309.5 404 309.5 c 0
 392.667 309.5 381.833 311.833 371.5 316.5 c 0
 361.167 321.167 352.167 327.333 344.5 335 c 0
 336.833 342.667 330.667 351.667 326 362 c 0
 321.333 372.333 319 383.167 319 394.5 c 0
 319 406.5 321.333 417.667 326 428 c 0
 330.667 438.333 336.833 447.333 344.5 455 c 0
 352.167 462.667 361.167 468.833 371.5 473.5 c 0
 381.833 478.167 392.667 480.5 404 480.5 c 0
665 1000 m 0
 677 1000 688.167 997.667 698.5 993 c 0
 708.833 988.333 717.833 982.167 725.5 974.5 c 0
 733.167 966.833 739.333 957.833 744 947.5 c 0
 748.667 937.167 751 926 751 914 c 0
 751 902.667 748.667 891.833 744 881.5 c 0
 739.333 871.167 733.167 862.167 725.5 854.5 c 0
 717.833 846.833 708.833 840.667 698.5 836 c 0
 688.167 831.333 677 829 665 829 c 0
 653.667 829 642.833 831.333 632.5 836 c 0
 622.167 840.667 613.167 846.833 605.5 854.5 c 0
 597.833 862.167 591.667 871.167 587 881.5 c 0
 582.333 891.833 580 902.667 580 914 c 0
 580 926 582.333 937.167 587 947.5 c 0
 591.667 957.833 597.833 966.833 605.5 974.5 c 0
 613.167 982.167 622.167 988.333 632.5 993 c 0
 642.833 997.667 653.667 1000 665 1000 c 0
405 1000.5 m 0
 417 1000.5 428.167 998.167 438.5 993.5 c 0
 448.833 988.833 457.833 982.667 465.5 975 c 0
 473.167 967.333 479.333 958.333 484 948 c 0
 488.667 937.667 491 926.5 491 914.5 c 0
 491 903.167 488.667 892.333 484 882 c 0
 479.333 871.667 473.167 862.667 465.5 855 c 0
 457.833 847.333 448.833 841.167 438.5 836.5 c 0
 428.167 831.833 417 829.5 405 829.5 c 0
 393.667 829.5 382.833 831.833 372.5 836.5 c 0
 362.167 841.167 353.167 847.333 345.5 855 c 0
 337.833 862.667 331.667 871.667 327 882 c 0
 322.333 892.333 320 903.167 320 914.5 c 0
 320 926.5 322.333 937.667 327 948 c 0
 331.667 958.333 337.833 967.333 345.5 975 c 0
 353.167 982.667 362.167 988.833 372.5 993.5 c 0
 382.833 998.167 393.667 1000.5 405 1000.5 c 0
EndSplineSet
MinimumDistance: x36,-1 
EndChar
StartChar: uni284E
Encoding: 10318 10318
Width: 800
VWidth: 1024
Flags: W
HStem: 49 171<399 415> 309.5 171<399 415> 569 171<399 415> 829 171<655 671>
VStem: 319.5 171<129 145 385 401 641.338 657> 580 171<901.338 916>
Fore
404.5 220 m 0
 416.5 220 427.667 217.667 438 213 c 0
 448.333 208.333 457.333 202.167 465 194.5 c 0
 472.667 186.833 478.833 177.833 483.5 167.5 c 0
 488.167 157.167 490.5 146 490.5 134 c 0
 490.5 122.667 488.167 111.833 483.5 101.5 c 0
 478.833 91.167 472.667 82.167 465 74.5 c 0
 457.333 66.833 448.333 60.667 438 56 c 0
 427.667 51.333 416.5 49 404.5 49 c 0
 393.167 49 382.333 51.333 372 56 c 0
 361.667 60.667 352.667 66.833 345 74.5 c 0
 337.333 82.167 331.167 91.167 326.5 101.5 c 0
 321.833 111.833 319.5 122.667 319.5 134 c 0
 319.5 146 321.833 157.167 326.5 167.5 c 0
 331.167 177.833 337.333 186.833 345 194.5 c 0
 352.667 202.167 361.667 208.333 372 213 c 0
 382.333 217.667 393.167 220 404.5 220 c 0
404 480.5 m 0
 416 480.5 427.167 478.167 437.5 473.5 c 0
 447.833 468.833 456.833 462.667 464.5 455 c 0
 472.167 447.333 478.333 438.333 483 428 c 0
 487.667 417.667 490 406.5 490 394.5 c 0
 490 383.167 487.667 372.333 483 362 c 0
 478.333 351.667 472.167 342.667 464.5 335 c 0
 456.833 327.333 447.833 321.167 437.5 316.5 c 0
 427.167 311.833 416 309.5 404 309.5 c 0
 392.667 309.5 381.833 311.833 371.5 316.5 c 0
 361.167 321.167 352.167 327.333 344.5 335 c 0
 336.833 342.667 330.667 351.667 326 362 c 0
 321.333 372.333 319 383.167 319 394.5 c 0
 319 406.5 321.333 417.667 326 428 c 0
 330.667 438.333 336.833 447.333 344.5 455 c 0
 352.167 462.667 361.167 468.833 371.5 473.5 c 0
 381.833 478.167 392.667 480.5 404 480.5 c 0
404.5 740 m 0
 416.5 740 427.667 737.667 438 733 c 0
 448.333 728.333 457.333 722.167 465 714.5 c 0
 472.667 706.833 478.833 697.833 483.5 687.5 c 0
 488.167 677.167 490.5 666 490.5 654 c 0
 490.5 642.667 488.167 631.833 483.5 621.5 c 0
 478.833 611.167 472.667 602.167 465 594.5 c 0
 457.333 586.833 448.333 580.667 438 576 c 0
 427.667 571.333 416.5 569 404.5 569 c 0
 393.167 569 382.333 571.333 372 576 c 0
 361.667 580.667 352.667 586.833 345 594.5 c 0
 337.333 602.167 331.167 611.167 326.5 621.5 c 0
 321.833 631.833 319.5 642.667 319.5 654 c 0
 319.5 666 321.833 677.167 326.5 687.5 c 0
 331.167 697.833 337.333 706.833 345 714.5 c 0
 352.667 722.167 361.667 728.333 372 733 c 0
 382.333 737.667 393.167 740 404.5 740 c 0
665 1000 m 0
 677 1000 688.167 997.667 698.5 993 c 0
 708.833 988.333 717.833 982.167 725.5 974.5 c 0
 733.167 966.833 739.333 957.833 744 947.5 c 0
 748.667 937.167 751 926 751 914 c 0
 751 902.667 748.667 891.833 744 881.5 c 0
 739.333 871.167 733.167 862.167 725.5 854.5 c 0
 717.833 846.833 708.833 840.667 698.5 836 c 0
 688.167 831.333 677 829 665 829 c 0
 653.667 829 642.833 831.333 632.5 836 c 0
 622.167 840.667 613.167 846.833 605.5 854.5 c 0
 597.833 862.167 591.667 871.167 587 881.5 c 0
 582.333 891.833 580 902.667 580 914 c 0
 580 926 582.333 937.167 587 947.5 c 0
 591.667 957.833 597.833 966.833 605.5 974.5 c 0
 613.167 982.167 622.167 988.333 632.5 993 c 0
 642.833 997.667 653.667 1000 665 1000 c 0
EndSplineSet
MinimumDistance: x52,-1 
EndChar
StartChar: uni284F
Encoding: 10319 10319
Width: 800
VWidth: 1024
Flags: W
HStem: 49 171<399 415> 309.5 171<399 415> 569 171<399 415> 829.5 171<399 415 655 671>
VStem: 319.5 171<129 145 385 401 641.338 657 901.79 916> 580 171<901.338 916>
Fore
404.5 220 m 0
 416.5 220 427.667 217.667 438 213 c 0
 448.333 208.333 457.333 202.167 465 194.5 c 0
 472.667 186.833 478.833 177.833 483.5 167.5 c 0
 488.167 157.167 490.5 146 490.5 134 c 0
 490.5 122.667 488.167 111.833 483.5 101.5 c 0
 478.833 91.167 472.667 82.167 465 74.5 c 0
 457.333 66.833 448.333 60.667 438 56 c 0
 427.667 51.333 416.5 49 404.5 49 c 0
 393.167 49 382.333 51.333 372 56 c 0
 361.667 60.667 352.667 66.833 345 74.5 c 0
 337.333 82.167 331.167 91.167 326.5 101.5 c 0
 321.833 111.833 319.5 122.667 319.5 134 c 0
 319.5 146 321.833 157.167 326.5 167.5 c 0
 331.167 177.833 337.333 186.833 345 194.5 c 0
 352.667 202.167 361.667 208.333 372 213 c 0
 382.333 217.667 393.167 220 404.5 220 c 0
404 480.5 m 0
 416 480.5 427.167 478.167 437.5 473.5 c 0
 447.833 468.833 456.833 462.667 464.5 455 c 0
 472.167 447.333 478.333 438.333 483 428 c 0
 487.667 417.667 490 406.5 490 394.5 c 0
 490 383.167 487.667 372.333 483 362 c 0
 478.333 351.667 472.167 342.667 464.5 335 c 0
 456.833 327.333 447.833 321.167 437.5 316.5 c 0
 427.167 311.833 416 309.5 404 309.5 c 0
 392.667 309.5 381.833 311.833 371.5 316.5 c 0
 361.167 321.167 352.167 327.333 344.5 335 c 0
 336.833 342.667 330.667 351.667 326 362 c 0
 321.333 372.333 319 383.167 319 394.5 c 0
 319 406.5 321.333 417.667 326 428 c 0
 330.667 438.333 336.833 447.333 344.5 455 c 0
 352.167 462.667 361.167 468.833 371.5 473.5 c 0
 381.833 478.167 392.667 480.5 404 480.5 c 0
404.5 740 m 0
 416.5 740 427.667 737.667 438 733 c 0
 448.333 728.333 457.333 722.167 465 714.5 c 0
 472.667 706.833 478.833 697.833 483.5 687.5 c 0
 488.167 677.167 490.5 666 490.5 654 c 0
 490.5 642.667 488.167 631.833 483.5 621.5 c 0
 478.833 611.167 472.667 602.167 465 594.5 c 0
 457.333 586.833 448.333 580.667 438 576 c 0
 427.667 571.333 416.5 569 404.5 569 c 0
 393.167 569 382.333 571.333 372 576 c 0
 361.667 580.667 352.667 586.833 345 594.5 c 0
 337.333 602.167 331.167 611.167 326.5 621.5 c 0
 321.833 631.833 319.5 642.667 319.5 654 c 0
 319.5 666 321.833 677.167 326.5 687.5 c 0
 331.167 697.833 337.333 706.833 345 714.5 c 0
 352.667 722.167 361.667 728.333 372 733 c 0
 382.333 737.667 393.167 740 404.5 740 c 0
665 1000 m 0
 677 1000 688.167 997.667 698.5 993 c 0
 708.833 988.333 717.833 982.167 725.5 974.5 c 0
 733.167 966.833 739.333 957.833 744 947.5 c 0
 748.667 937.167 751 926 751 914 c 0
 751 902.667 748.667 891.833 744 881.5 c 0
 739.333 871.167 733.167 862.167 725.5 854.5 c 0
 717.833 846.833 708.833 840.667 698.5 836 c 0
 688.167 831.333 677 829 665 829 c 0
 653.667 829 642.833 831.333 632.5 836 c 0
 622.167 840.667 613.167 846.833 605.5 854.5 c 0
 597.833 862.167 591.667 871.167 587 881.5 c 0
 582.333 891.833 580 902.667 580 914 c 0
 580 926 582.333 937.167 587 947.5 c 0
 591.667 957.833 597.833 966.833 605.5 974.5 c 0
 613.167 982.167 622.167 988.333 632.5 993 c 0
 642.833 997.667 653.667 1000 665 1000 c 0
405 1000.5 m 0
 417 1000.5 428.167 998.167 438.5 993.5 c 0
 448.833 988.833 457.833 982.667 465.5 975 c 0
 473.167 967.333 479.333 958.333 484 948 c 0
 488.667 937.667 491 926.5 491 914.5 c 0
 491 903.167 488.667 892.333 484 882 c 0
 479.333 871.667 473.167 862.667 465.5 855 c 0
 457.833 847.333 448.833 841.167 438.5 836.5 c 0
 428.167 831.833 417 829.5 405 829.5 c 0
 393.667 829.5 382.833 831.833 372.5 836.5 c 0
 362.167 841.167 353.167 847.333 345.5 855 c 0
 337.833 862.667 331.667 871.667 327 882 c 0
 322.333 892.333 320 903.167 320 914.5 c 0
 320 926.5 322.333 937.667 327 948 c 0
 331.667 958.333 337.833 967.333 345.5 975 c 0
 353.167 982.667 362.167 988.833 372.5 993.5 c 0
 382.833 998.167 393.667 1000.5 405 1000.5 c 0
EndSplineSet
MinimumDistance: x52,-1 
EndChar
StartChar: uni2850
Encoding: 10320 10320
Width: 800
VWidth: 1024
Flags: W
HStem: 49 171<399 415> 569.5 171<655 671>
VStem: 319.5 171<129 145> 580 171<641.79 657>
Fore
404.5 220 m 0
 416.5 220 427.667 217.667 438 213 c 0
 448.333 208.333 457.333 202.167 465 194.5 c 0
 472.667 186.833 478.833 177.833 483.5 167.5 c 0
 488.167 157.167 490.5 146 490.5 134 c 0
 490.5 122.667 488.167 111.833 483.5 101.5 c 0
 478.833 91.167 472.667 82.167 465 74.5 c 0
 457.333 66.833 448.333 60.667 438 56 c 0
 427.667 51.333 416.5 49 404.5 49 c 0
 393.167 49 382.333 51.333 372 56 c 0
 361.667 60.667 352.667 66.833 345 74.5 c 0
 337.333 82.167 331.167 91.167 326.5 101.5 c 0
 321.833 111.833 319.5 122.667 319.5 134 c 0
 319.5 146 321.833 157.167 326.5 167.5 c 0
 331.167 177.833 337.333 186.833 345 194.5 c 0
 352.667 202.167 361.667 208.333 372 213 c 0
 382.333 217.667 393.167 220 404.5 220 c 0
665 740.5 m 0
 677 740.5 688.167 738.167 698.5 733.5 c 0
 708.833 728.833 717.833 722.667 725.5 715 c 0
 733.167 707.333 739.333 698.333 744 688 c 0
 748.667 677.667 751 666.5 751 654.5 c 0
 751 643.167 748.667 632.333 744 622 c 0
 739.333 611.667 733.167 602.667 725.5 595 c 0
 717.833 587.333 708.833 581.167 698.5 576.5 c 0
 688.167 571.833 677 569.5 665 569.5 c 0
 653.667 569.5 642.833 571.833 632.5 576.5 c 0
 622.167 581.167 613.167 587.333 605.5 595 c 0
 597.833 602.667 591.667 611.667 587 622 c 0
 582.333 632.333 580 643.167 580 654.5 c 0
 580 666.5 582.333 677.667 587 688 c 0
 591.667 698.333 597.833 707.333 605.5 715 c 0
 613.167 722.667 622.167 728.833 632.5 733.5 c 0
 642.833 738.167 653.667 740.5 665 740.5 c 0
EndSplineSet
MinimumDistance: x20,-1 
EndChar
StartChar: uni2851
Encoding: 10321 10321
Width: 800
VWidth: 1024
Flags: W
HStem: 49 171<399 415> 569.5 171<655 671> 829.5 171<399 415>
VStem: 319.5 171<129 145 901.79 916> 580 171<641.79 657>
Fore
404.5 220 m 0
 416.5 220 427.667 217.667 438 213 c 0
 448.333 208.333 457.333 202.167 465 194.5 c 0
 472.667 186.833 478.833 177.833 483.5 167.5 c 0
 488.167 157.167 490.5 146 490.5 134 c 0
 490.5 122.667 488.167 111.833 483.5 101.5 c 0
 478.833 91.167 472.667 82.167 465 74.5 c 0
 457.333 66.833 448.333 60.667 438 56 c 0
 427.667 51.333 416.5 49 404.5 49 c 0
 393.167 49 382.333 51.333 372 56 c 0
 361.667 60.667 352.667 66.833 345 74.5 c 0
 337.333 82.167 331.167 91.167 326.5 101.5 c 0
 321.833 111.833 319.5 122.667 319.5 134 c 0
 319.5 146 321.833 157.167 326.5 167.5 c 0
 331.167 177.833 337.333 186.833 345 194.5 c 0
 352.667 202.167 361.667 208.333 372 213 c 0
 382.333 217.667 393.167 220 404.5 220 c 0
665 740.5 m 0
 677 740.5 688.167 738.167 698.5 733.5 c 0
 708.833 728.833 717.833 722.667 725.5 715 c 0
 733.167 707.333 739.333 698.333 744 688 c 0
 748.667 677.667 751 666.5 751 654.5 c 0
 751 643.167 748.667 632.333 744 622 c 0
 739.333 611.667 733.167 602.667 725.5 595 c 0
 717.833 587.333 708.833 581.167 698.5 576.5 c 0
 688.167 571.833 677 569.5 665 569.5 c 0
 653.667 569.5 642.833 571.833 632.5 576.5 c 0
 622.167 581.167 613.167 587.333 605.5 595 c 0
 597.833 602.667 591.667 611.667 587 622 c 0
 582.333 632.333 580 643.167 580 654.5 c 0
 580 666.5 582.333 677.667 587 688 c 0
 591.667 698.333 597.833 707.333 605.5 715 c 0
 613.167 722.667 622.167 728.833 632.5 733.5 c 0
 642.833 738.167 653.667 740.5 665 740.5 c 0
405 1000.5 m 0
 417 1000.5 428.167 998.167 438.5 993.5 c 0
 448.833 988.833 457.833 982.667 465.5 975 c 0
 473.167 967.333 479.333 958.333 484 948 c 0
 488.667 937.667 491 926.5 491 914.5 c 0
 491 903.167 488.667 892.333 484 882 c 0
 479.333 871.667 473.167 862.667 465.5 855 c 0
 457.833 847.333 448.833 841.167 438.5 836.5 c 0
 428.167 831.833 417 829.5 405 829.5 c 0
 393.667 829.5 382.833 831.833 372.5 836.5 c 0
 362.167 841.167 353.167 847.333 345.5 855 c 0
 337.833 862.667 331.667 871.667 327 882 c 0
 322.333 892.333 320 903.167 320 914.5 c 0
 320 926.5 322.333 937.667 327 948 c 0
 331.667 958.333 337.833 967.333 345.5 975 c 0
 353.167 982.667 362.167 988.833 372.5 993.5 c 0
 382.833 998.167 393.667 1000.5 405 1000.5 c 0
EndSplineSet
MinimumDistance: x20,-1 
EndChar
StartChar: uni2852
Encoding: 10322 10322
Width: 800
VWidth: 1024
Flags: W
HStem: 49 171<399 415> 569 171<399 415 655 671>
VStem: 319.5 171<129 145 641.338 657> 580 171<641.79 657>
Fore
404.5 220 m 0
 416.5 220 427.667 217.667 438 213 c 0
 448.333 208.333 457.333 202.167 465 194.5 c 0
 472.667 186.833 478.833 177.833 483.5 167.5 c 0
 488.167 157.167 490.5 146 490.5 134 c 0
 490.5 122.667 488.167 111.833 483.5 101.5 c 0
 478.833 91.167 472.667 82.167 465 74.5 c 0
 457.333 66.833 448.333 60.667 438 56 c 0
 427.667 51.333 416.5 49 404.5 49 c 0
 393.167 49 382.333 51.333 372 56 c 0
 361.667 60.667 352.667 66.833 345 74.5 c 0
 337.333 82.167 331.167 91.167 326.5 101.5 c 0
 321.833 111.833 319.5 122.667 319.5 134 c 0
 319.5 146 321.833 157.167 326.5 167.5 c 0
 331.167 177.833 337.333 186.833 345 194.5 c 0
 352.667 202.167 361.667 208.333 372 213 c 0
 382.333 217.667 393.167 220 404.5 220 c 0
665 740.5 m 0
 677 740.5 688.167 738.167 698.5 733.5 c 0
 708.833 728.833 717.833 722.667 725.5 715 c 0
 733.167 707.333 739.333 698.333 744 688 c 0
 748.667 677.667 751 666.5 751 654.5 c 0
 751 643.167 748.667 632.333 744 622 c 0
 739.333 611.667 733.167 602.667 725.5 595 c 0
 717.833 587.333 708.833 581.167 698.5 576.5 c 0
 688.167 571.833 677 569.5 665 569.5 c 0
 653.667 569.5 642.833 571.833 632.5 576.5 c 0
 622.167 581.167 613.167 587.333 605.5 595 c 0
 597.833 602.667 591.667 611.667 587 622 c 0
 582.333 632.333 580 643.167 580 654.5 c 0
 580 666.5 582.333 677.667 587 688 c 0
 591.667 698.333 597.833 707.333 605.5 715 c 0
 613.167 722.667 622.167 728.833 632.5 733.5 c 0
 642.833 738.167 653.667 740.5 665 740.5 c 0
404.5 740 m 0
 416.5 740 427.667 737.667 438 733 c 0
 448.333 728.333 457.333 722.167 465 714.5 c 0
 472.667 706.833 478.833 697.833 483.5 687.5 c 0
 488.167 677.167 490.5 666 490.5 654 c 0
 490.5 642.667 488.167 631.833 483.5 621.5 c 0
 478.833 611.167 472.667 602.167 465 594.5 c 0
 457.333 586.833 448.333 580.667 438 576 c 0
 427.667 571.333 416.5 569 404.5 569 c 0
 393.167 569 382.333 571.333 372 576 c 0
 361.667 580.667 352.667 586.833 345 594.5 c 0
 337.333 602.167 331.167 611.167 326.5 621.5 c 0
 321.833 631.833 319.5 642.667 319.5 654 c 0
 319.5 666 321.833 677.167 326.5 687.5 c 0
 331.167 697.833 337.333 706.833 345 714.5 c 0
 352.667 722.167 361.667 728.333 372 733 c 0
 382.333 737.667 393.167 740 404.5 740 c 0
EndSplineSet
MinimumDistance: x20,-1 
EndChar
